<?xml version="1.0" encoding="UTF-8" standalone="no"?>
<!-- Created with Digital by H.Neemann -->
<!-- created: Mon Aug 30 22:52:39 MST 2021 -->

<svg
   xmlns:svg="http://www.w3.org/2000/svg"
   xmlns="http://www.w3.org/2000/svg"
   width="254.25mm"
   height="380.85mm"
   viewBox="-1358 123 1695 2539">
<g stroke-linecap="square">
<path d="M -860,640 L -700,640 L -700,400 L -300,400 L -300,380 L -220,380" stroke="#0000b2" stroke-width="4.0" fill="none"/>
<path d="M -120,640 L -20,640" stroke="#0000b2" stroke-width="4.0" fill="none"/>
<path d="M -860,1280 L -540,1280 L -540,720 L -300,720 L -300,700 L -220,700" stroke="#0000b2" stroke-width="4.0" fill="none"/>
<path d="M -120,1280 L -20,1280" stroke="#0000b2" stroke-width="4.0" fill="none"/>
<path d="M -300,240 L -300,260 L -220,260" stroke="#0000b2" stroke-width="4.0" fill="none"/>
<path d="M -300,880 L -300,900 L -220,900" stroke="#0000b2" stroke-width="4.0" fill="none"/>
<path d="M -1060,1800 L -960,1800" stroke="#0000b2" stroke-width="4.0" fill="none"/>
<path d="M -1060,2440 L -960,2440" stroke="#0000b2" stroke-width="4.0" fill="none"/>
<path d="M -1160,140 L -1080,140" stroke="#0000b2" stroke-width="4.0" fill="none"/>
<path d="M -1060,140 L -960,140" stroke="#0000b2" stroke-width="4.0" fill="none"/>
<path d="M -1060,780 L -960,780" stroke="#0000b2" stroke-width="4.0" fill="none"/>
<path d="M -120,400 L -20,400" stroke="#0000b2" stroke-width="4.0" fill="none"/>
<path d="M -120,1040 L -20,1040" stroke="#0000b2" stroke-width="4.0" fill="none"/>
<path d="M -300,640 L -300,660 L -220,660" stroke="#0000b2" stroke-width="4.0" fill="none"/>
<path d="M -300,1280 L -300,1300 L -220,1300" stroke="#0000b2" stroke-width="4.0" fill="none"/>
<path d="M -1060,1560 L -800,1560 L -800,360 L -980,360 L -980,340 L -960,340" stroke="#0000b2" stroke-width="4.0" fill="none"/>
<path d="M -1060,2200 L -720,2200 L -720,1000 L -980,1000 L -980,980 L -960,980" stroke="#0000b2" stroke-width="4.0" fill="none"/>
<path d="M -1060,540 L -640,540 L -640,1860 L -980,1860 L -980,1840 L -960,1840" stroke="#0000b2" stroke-width="4.0" fill="none"/>
<path d="M -1060,1180 L -560,1180 L -560,2500 L -980,2500 L -980,2480 L -960,2480" stroke="#0000b2" stroke-width="4.0" fill="none"/>
<path d="M -860,1820 L -480,1820 L -480,960 L -300,960 L -300,940 L -220,940" stroke="#0000b2" stroke-width="4.0" fill="none"/>
<path d="M -860,2460 L -400,2460 L -400,1280 L -300,1280 L -300,1260 L -220,1260" stroke="#0000b2" stroke-width="4.0" fill="none"/>
<path d="M 0,160 L 140,160" stroke="#0000b2" stroke-width="4.0" fill="none"/>
<path d="M -860,160 L -300,160 L -300,140 L -220,140" stroke="#0000b2" stroke-width="4.0" fill="none"/>
<path d="M -120,160 L -20,160" stroke="#0000b2" stroke-width="4.0" fill="none"/>
<path d="M -860,800 L -680,800 L -680,480 L -300,480 L -300,460 L -220,460" stroke="#0000b2" stroke-width="4.0" fill="none"/>
<path d="M -120,800 L -20,800" stroke="#0000b2" stroke-width="4.0" fill="none"/>
<path d="M -300,400 L -300,420 L -220,420" stroke="#0000b2" stroke-width="4.0" fill="none"/>
<path d="M -300,1040 L -300,1060 L -220,1060" stroke="#0000b2" stroke-width="4.0" fill="none"/>
<path d="M -1060,1960 L -960,1960" stroke="#0000b2" stroke-width="4.0" fill="none"/>
<path d="M -1060,2600 L -960,2600" stroke="#0000b2" stroke-width="4.0" fill="none"/>
<path d="M -1060,300 L -960,300" stroke="#0000b2" stroke-width="4.0" fill="none"/>
<path d="M -1060,940 L -960,940" stroke="#0000b2" stroke-width="4.0" fill="none"/>
<path d="M -120,560 L -20,560" stroke="#0000b2" stroke-width="4.0" fill="none"/>
<path d="M -120,1200 L -20,1200" stroke="#0000b2" stroke-width="4.0" fill="none"/>
<path d="M -300,160 L -300,180 L -220,180" stroke="#0000b2" stroke-width="4.0" fill="none"/>
<path d="M -300,800 L -300,820 L -220,820" stroke="#0000b2" stroke-width="4.0" fill="none"/>
<path d="M -1060,2360 L -700,2360 L -700,1160 L -980,1160 L -980,1140 L -960,1140" stroke="#0000b2" stroke-width="4.0" fill="none"/>
<path d="M -1060,700 L -620,700 L -620,2020 L -980,2020 L -980,2000 L -960,2000" stroke="#0000b2" stroke-width="4.0" fill="none"/>
<path d="M -1060,1340 L -540,1340 L -540,2660 L -980,2660 L -980,2640 L -960,2640" stroke="#0000b2" stroke-width="4.0" fill="none"/>
<path d="M -860,1980 L -460,1980 L -460,1040 L -300,1040 L -300,1020 L -220,1020" stroke="#0000b2" stroke-width="4.0" fill="none"/>
<path d="M -860,2620 L -380,2620 L -380,1360 L -300,1360 L -300,1340 L -220,1340" stroke="#0000b2" stroke-width="4.0" fill="none"/>
<path d="M -860,320 L -740,320 L -740,240 L -300,240 L -300,220 L -220,220" stroke="#0000b2" stroke-width="4.0" fill="none"/>
<path d="M -120,320 L -20,320" stroke="#0000b2" stroke-width="4.0" fill="none"/>
<path d="M -860,960 L -580,960 L -580,560 L -300,560 L -300,540 L -220,540" stroke="#0000b2" stroke-width="4.0" fill="none"/>
<path d="M -120,960 L -20,960" stroke="#0000b2" stroke-width="4.0" fill="none"/>
<path d="M -300,560 L -300,580 L -220,580" stroke="#0000b2" stroke-width="4.0" fill="none"/>
<path d="M -300,1200 L -300,1220 L -220,1220" stroke="#0000b2" stroke-width="4.0" fill="none"/>
<path d="M -1060,1480 L -960,1480" stroke="#0000b2" stroke-width="4.0" fill="none"/>
<path d="M -1060,2120 L -960,2120" stroke="#0000b2" stroke-width="4.0" fill="none"/>
<path d="M -1060,460 L -960,460" stroke="#0000b2" stroke-width="4.0" fill="none"/>
<path d="M -1060,1100 L -960,1100" stroke="#0000b2" stroke-width="4.0" fill="none"/>
<path d="M -120,720 L -20,720" stroke="#0000b2" stroke-width="4.0" fill="none"/>
<path d="M -120,1360 L -20,1360" stroke="#0000b2" stroke-width="4.0" fill="none"/>
<path d="M -300,320 L -300,340 L -220,340" stroke="#0000b2" stroke-width="4.0" fill="none"/>
<path d="M -300,960 L -300,980 L -220,980" stroke="#0000b2" stroke-width="4.0" fill="none"/>
<path d="M -1060,1880 L -760,1880 L -760,680 L -980,680 L -980,660 L -960,660" stroke="#0000b2" stroke-width="4.0" fill="none"/>
<path d="M -1060,2520 L -680,2520 L -680,1320 L -980,1320 L -980,1300 L -960,1300" stroke="#0000b2" stroke-width="4.0" fill="none"/>
<path d="M -1060,220 L -820,220 L -820,1540 L -980,1540 L -980,1520 L -960,1520" stroke="#0000b2" stroke-width="4.0" fill="none"/>
<path d="M -1060,860 L -600,860 L -600,2180 L -980,2180 L -980,2160 L -960,2160" stroke="#0000b2" stroke-width="4.0" fill="none"/>
<path d="M -860,1500 L -520,1500 L -520,800 L -300,800 L -300,780 L -220,780" stroke="#0000b2" stroke-width="4.0" fill="none"/>
<path d="M -860,2140 L -440,2140 L -440,1120 L -300,1120 L -300,1100 L -220,1100" stroke="#0000b2" stroke-width="4.0" fill="none"/>
<path d="M -860,480 L -720,480 L -720,320 L -300,320 L -300,300 L -220,300" stroke="#0000b2" stroke-width="4.0" fill="none"/>
<path d="M -120,480 L -20,480" stroke="#0000b2" stroke-width="4.0" fill="none"/>
<path d="M -860,1120 L -560,1120 L -560,640 L -300,640 L -300,620 L -220,620" stroke="#0000b2" stroke-width="4.0" fill="none"/>
<path d="M -120,1120 L -20,1120" stroke="#0000b2" stroke-width="4.0" fill="none"/>
<path d="M -300,720 L -300,740 L -220,740" stroke="#0000b2" stroke-width="4.0" fill="none"/>
<path d="M -300,1360 L -300,1380 L -220,1380" stroke="#0000b2" stroke-width="4.0" fill="none"/>
<path d="M -1060,1640 L -960,1640" stroke="#0000b2" stroke-width="4.0" fill="none"/>
<path d="M -1060,2280 L -960,2280" stroke="#0000b2" stroke-width="4.0" fill="none"/>
<path d="M -1060,620 L -960,620" stroke="#0000b2" stroke-width="4.0" fill="none"/>
<path d="M -1060,1260 L -960,1260" stroke="#0000b2" stroke-width="4.0" fill="none"/>
<path d="M -120,240 L -20,240" stroke="#0000b2" stroke-width="4.0" fill="none"/>
<path d="M -120,880 L -20,880" stroke="#0000b2" stroke-width="4.0" fill="none"/>
<path d="M -300,480 L -300,500 L -220,500" stroke="#0000b2" stroke-width="4.0" fill="none"/>
<path d="M -300,1120 L -300,1140 L -220,1140" stroke="#0000b2" stroke-width="4.0" fill="none"/>
<path d="M -1160,1400 L -1080,1400" stroke="#0000b2" stroke-width="4.0" fill="none"/>
<path d="M -1060,2040 L -740,2040 L -740,840 L -980,840 L -980,820 L -960,820" stroke="#0000b2" stroke-width="4.0" fill="none"/>
<path d="M -1060,380 L -660,380 L -660,1700 L -980,1700 L -980,1680 L -960,1680" stroke="#0000b2" stroke-width="4.0" fill="none"/>
<path d="M -860,1660 L -500,1660 L -500,880 L -300,880 L -300,860 L -220,860" stroke="#0000b2" stroke-width="4.0" fill="none"/>
<path d="M -860,2300 L -420,2300 L -420,1200 L -300,1200 L -300,1180 L -220,1180" stroke="#0000b2" stroke-width="4.0" fill="none"/>
<path d="M -960,180 L -980,180 L -980,200 L -840,200 L -840,1400 L -1060,1400" stroke="#0000b2" stroke-width="4.0" fill="none"/>
<path d="M -1060,1720 L -780,1720 L -780,520 L -980,520 L -980,500 L -960,500" stroke="#0000b2" stroke-width="4.0" fill="none"/>
<path d="M -960,2320 L -980,2320 L -980,2340 L -580,2340 L -580,1020 L -1060,1020" stroke="#0000b2" stroke-width="4.0" fill="none"/>
<path d="M -1080,140 L -1070,140 L -1060,140" stroke="#000000" stroke-width="4.0" fill="none"/>
<path d="M -1060,220 L -1070,220" stroke="#000000" stroke-width="4.0" fill="none"/>
<path d="M -1060,300 L -1070,300" stroke="#000000" stroke-width="4.0" fill="none"/>
<path d="M -1060,380 L -1070,380" stroke="#000000" stroke-width="4.0" fill="none"/>
<path d="M -1060,460 L -1070,460" stroke="#000000" stroke-width="4.0" fill="none"/>
<path d="M -1060,540 L -1070,540" stroke="#000000" stroke-width="4.0" fill="none"/>
<path d="M -1060,620 L -1070,620" stroke="#000000" stroke-width="4.0" fill="none"/>
<path d="M -1060,700 L -1070,700" stroke="#000000" stroke-width="4.0" fill="none"/>
<path d="M -1060,780 L -1070,780" stroke="#000000" stroke-width="4.0" fill="none"/>
<path d="M -1060,860 L -1070,860" stroke="#000000" stroke-width="4.0" fill="none"/>
<path d="M -1060,940 L -1070,940" stroke="#000000" stroke-width="4.0" fill="none"/>
<path d="M -1060,1020 L -1070,1020" stroke="#000000" stroke-width="4.0" fill="none"/>
<path d="M -1060,1100 L -1070,1100" stroke="#000000" stroke-width="4.0" fill="none"/>
<path d="M -1060,1180 L -1070,1180" stroke="#000000" stroke-width="4.0" fill="none"/>
<path d="M -1060,1260 L -1070,1260" stroke="#000000" stroke-width="4.0" fill="none"/>
<path d="M -1060,1340 L -1070,1340" stroke="#000000" stroke-width="4.0" fill="none"/>
<path d="M -1080,1400 L -1070,1400 L -1060,1400" stroke="#000000" stroke-width="4.0" fill="none"/>
<path d="M -1060,1480 L -1070,1480" stroke="#000000" stroke-width="4.0" fill="none"/>
<path d="M -1060,1560 L -1070,1560" stroke="#000000" stroke-width="4.0" fill="none"/>
<path d="M -1060,1640 L -1070,1640" stroke="#000000" stroke-width="4.0" fill="none"/>
<path d="M -1060,1720 L -1070,1720" stroke="#000000" stroke-width="4.0" fill="none"/>
<path d="M -1060,1800 L -1070,1800" stroke="#000000" stroke-width="4.0" fill="none"/>
<path d="M -1060,1880 L -1070,1880" stroke="#000000" stroke-width="4.0" fill="none"/>
<path d="M -1060,1960 L -1070,1960" stroke="#000000" stroke-width="4.0" fill="none"/>
<path d="M -1060,2040 L -1070,2040" stroke="#000000" stroke-width="4.0" fill="none"/>
<path d="M -1060,2120 L -1070,2120" stroke="#000000" stroke-width="4.0" fill="none"/>
<path d="M -1060,2200 L -1070,2200" stroke="#000000" stroke-width="4.0" fill="none"/>
<path d="M -1060,2280 L -1070,2280" stroke="#000000" stroke-width="4.0" fill="none"/>
<path d="M -1060,2360 L -1070,2360" stroke="#000000" stroke-width="4.0" fill="none"/>
<path d="M -1060,2440 L -1070,2440" stroke="#000000" stroke-width="4.0" fill="none"/>
<path d="M -1060,2520 L -1070,2520" stroke="#000000" stroke-width="4.0" fill="none"/>
<path d="M -1060,2600 L -1070,2600" stroke="#000000" stroke-width="4.0" fill="none"/>
<path d="M -20,160 L -10,160 L 0,160" stroke="#000000" stroke-width="4.0" fill="none"/>
<path d="M -20,240 L -10,240" stroke="#000000" stroke-width="4.0" fill="none"/>
<path d="M -20,320 L -10,320" stroke="#000000" stroke-width="4.0" fill="none"/>
<path d="M -20,400 L -10,400" stroke="#000000" stroke-width="4.0" fill="none"/>
<path d="M -20,480 L -10,480" stroke="#000000" stroke-width="4.0" fill="none"/>
<path d="M -20,560 L -10,560" stroke="#000000" stroke-width="4.0" fill="none"/>
<path d="M -20,640 L -10,640" stroke="#000000" stroke-width="4.0" fill="none"/>
<path d="M -20,720 L -10,720" stroke="#000000" stroke-width="4.0" fill="none"/>
<path d="M -20,800 L -10,800" stroke="#000000" stroke-width="4.0" fill="none"/>
<path d="M -20,880 L -10,880" stroke="#000000" stroke-width="4.0" fill="none"/>
<path d="M -20,960 L -10,960" stroke="#000000" stroke-width="4.0" fill="none"/>
<path d="M -20,1040 L -10,1040" stroke="#000000" stroke-width="4.0" fill="none"/>
<path d="M -20,1120 L -10,1120" stroke="#000000" stroke-width="4.0" fill="none"/>
<path d="M -20,1200 L -10,1200" stroke="#000000" stroke-width="4.0" fill="none"/>
<path d="M -20,1280 L -10,1280" stroke="#000000" stroke-width="4.0" fill="none"/>
<path d="M -20,1360 L -10,1360" stroke="#000000" stroke-width="4.0" fill="none"/>
<g>
<circle cx="-300.0" cy="640.0" r="4.0" stroke="#0000b2" stroke-width="4.0" fill="#0000b2" />
<circle cx="-300.0" cy="1280.0" r="4.0" stroke="#0000b2" stroke-width="4.0" fill="#0000b2" />
<circle cx="-300.0" cy="400.0" r="4.0" stroke="#0000b2" stroke-width="4.0" fill="#0000b2" />
<circle cx="-300.0" cy="1040.0" r="4.0" stroke="#0000b2" stroke-width="4.0" fill="#0000b2" />
<circle cx="-300.0" cy="160.0" r="4.0" stroke="#0000b2" stroke-width="4.0" fill="#0000b2" />
<circle cx="-300.0" cy="800.0" r="4.0" stroke="#0000b2" stroke-width="4.0" fill="#0000b2" />
<circle cx="-300.0" cy="560.0" r="4.0" stroke="#0000b2" stroke-width="4.0" fill="#0000b2" />
<circle cx="-300.0" cy="1200.0" r="4.0" stroke="#0000b2" stroke-width="4.0" fill="#0000b2" />
<circle cx="-300.0" cy="320.0" r="4.0" stroke="#0000b2" stroke-width="4.0" fill="#0000b2" />
<circle cx="-300.0" cy="960.0" r="4.0" stroke="#0000b2" stroke-width="4.0" fill="#0000b2" />
<circle cx="-300.0" cy="720.0" r="4.0" stroke="#0000b2" stroke-width="4.0" fill="#0000b2" />
<circle cx="-300.0" cy="1360.0" r="4.0" stroke="#0000b2" stroke-width="4.0" fill="#0000b2" />
<circle cx="-300.0" cy="480.0" r="4.0" stroke="#0000b2" stroke-width="4.0" fill="#0000b2" />
<circle cx="-300.0" cy="1120.0" r="4.0" stroke="#0000b2" stroke-width="4.0" fill="#0000b2" />
<circle cx="-300.0" cy="240.0" r="4.0" stroke="#0000b2" stroke-width="4.0" fill="#0000b2" />
<circle cx="-300.0" cy="880.0" r="4.0" stroke="#0000b2" stroke-width="4.0" fill="#0000b2" />
</g>
<g>
<path d="M -1191,125 L -1161,125 L -1161,155 L -1191,155 Z" stroke="#000000" stroke-width="4.0" fill="none"/>
<circle cx="-1176.0" cy="140.0" r="9.0" stroke="#000000" stroke-width="4.0" fill="none" />
<text text-anchor="end" x="-1205.0" y="149.0" fill="#000000" style="font-size:24px"><tspan style="font-style:italic;">IN A(16 BIT)</tspan></text>
<circle cx="-1160.0" cy="140.0" r="2.0" stroke="#b20000" stroke-width="4.0" fill="#b20000" />
</g>
<g>
<text text-anchor="end" x="-1082.0" y="137.0" fill="#808080" style="font-size:12px">0-15</text>
<text text-anchor="start" x="-1058.0" y="137.0" fill="#808080" style="font-size:12px">0</text>
<text text-anchor="start" x="-1058.0" y="217.0" fill="#808080" style="font-size:12px">1</text>
<text text-anchor="start" x="-1058.0" y="297.0" fill="#808080" style="font-size:12px">2</text>
<text text-anchor="start" x="-1058.0" y="377.0" fill="#808080" style="font-size:12px">3</text>
<text text-anchor="start" x="-1058.0" y="457.0" fill="#808080" style="font-size:12px">4</text>
<text text-anchor="start" x="-1058.0" y="537.0" fill="#808080" style="font-size:12px">5</text>
<text text-anchor="start" x="-1058.0" y="617.0" fill="#808080" style="font-size:12px">6</text>
<text text-anchor="start" x="-1058.0" y="697.0" fill="#808080" style="font-size:12px">7</text>
<text text-anchor="start" x="-1058.0" y="777.0" fill="#808080" style="font-size:12px">8</text>
<text text-anchor="start" x="-1058.0" y="857.0" fill="#808080" style="font-size:12px">9</text>
<text text-anchor="start" x="-1058.0" y="937.0" fill="#808080" style="font-size:12px">10</text>
<text text-anchor="start" x="-1058.0" y="1017.0" fill="#808080" style="font-size:12px">11</text>
<text text-anchor="start" x="-1058.0" y="1097.0" fill="#808080" style="font-size:12px">12</text>
<text text-anchor="start" x="-1058.0" y="1177.0" fill="#808080" style="font-size:12px">13</text>
<text text-anchor="start" x="-1058.0" y="1257.0" fill="#808080" style="font-size:12px">14</text>
<text text-anchor="start" x="-1058.0" y="1337.0" fill="#808080" style="font-size:12px">15</text>
<path d="M -1072,138 L -1068,138 L -1068,1342 L -1072,1342 Z" stroke="#000000" stroke-width="4.0" fill="#000000" fill-opacity="1.0"/>
<circle cx="-1080.0" cy="140.0" r="2.0" stroke="#0000b2" stroke-width="4.0" fill="#0000b2" />
<circle cx="-1060.0" cy="140.0" r="2.0" stroke="#b20000" stroke-width="4.0" fill="#b20000" />
<circle cx="-1060.0" cy="220.0" r="2.0" stroke="#b20000" stroke-width="4.0" fill="#b20000" />
<circle cx="-1060.0" cy="300.0" r="2.0" stroke="#b20000" stroke-width="4.0" fill="#b20000" />
<circle cx="-1060.0" cy="380.0" r="2.0" stroke="#b20000" stroke-width="4.0" fill="#b20000" />
<circle cx="-1060.0" cy="460.0" r="2.0" stroke="#b20000" stroke-width="4.0" fill="#b20000" />
<circle cx="-1060.0" cy="540.0" r="2.0" stroke="#b20000" stroke-width="4.0" fill="#b20000" />
<circle cx="-1060.0" cy="620.0" r="2.0" stroke="#b20000" stroke-width="4.0" fill="#b20000" />
<circle cx="-1060.0" cy="700.0" r="2.0" stroke="#b20000" stroke-width="4.0" fill="#b20000" />
<circle cx="-1060.0" cy="780.0" r="2.0" stroke="#b20000" stroke-width="4.0" fill="#b20000" />
<circle cx="-1060.0" cy="860.0" r="2.0" stroke="#b20000" stroke-width="4.0" fill="#b20000" />
<circle cx="-1060.0" cy="940.0" r="2.0" stroke="#b20000" stroke-width="4.0" fill="#b20000" />
<circle cx="-1060.0" cy="1020.0" r="2.0" stroke="#b20000" stroke-width="4.0" fill="#b20000" />
<circle cx="-1060.0" cy="1100.0" r="2.0" stroke="#b20000" stroke-width="4.0" fill="#b20000" />
<circle cx="-1060.0" cy="1180.0" r="2.0" stroke="#b20000" stroke-width="4.0" fill="#b20000" />
<circle cx="-1060.0" cy="1260.0" r="2.0" stroke="#b20000" stroke-width="4.0" fill="#b20000" />
<circle cx="-1060.0" cy="1340.0" r="2.0" stroke="#b20000" stroke-width="4.0" fill="#b20000" />
</g>
<g>
<path d="M -1191,1385 L -1161,1385 L -1161,1415 L -1191,1415 Z" stroke="#000000" stroke-width="4.0" fill="none"/>
<circle cx="-1176.0" cy="1400.0" r="9.0" stroke="#000000" stroke-width="4.0" fill="none" />
<text text-anchor="end" x="-1205.0" y="1409.0" fill="#000000" style="font-size:24px"><tspan style="font-style:italic;">IN B(16 BIT)</tspan></text>
<circle cx="-1160.0" cy="1400.0" r="2.0" stroke="#b20000" stroke-width="4.0" fill="#b20000" />
</g>
<g>
<text text-anchor="end" x="-1082.0" y="1397.0" fill="#808080" style="font-size:12px">0-15</text>
<text text-anchor="start" x="-1058.0" y="1397.0" fill="#808080" style="font-size:12px">0</text>
<text text-anchor="start" x="-1058.0" y="1477.0" fill="#808080" style="font-size:12px">1</text>
<text text-anchor="start" x="-1058.0" y="1557.0" fill="#808080" style="font-size:12px">2</text>
<text text-anchor="start" x="-1058.0" y="1637.0" fill="#808080" style="font-size:12px">3</text>
<text text-anchor="start" x="-1058.0" y="1717.0" fill="#808080" style="font-size:12px">4</text>
<text text-anchor="start" x="-1058.0" y="1797.0" fill="#808080" style="font-size:12px">5</text>
<text text-anchor="start" x="-1058.0" y="1877.0" fill="#808080" style="font-size:12px">6</text>
<text text-anchor="start" x="-1058.0" y="1957.0" fill="#808080" style="font-size:12px">7</text>
<text text-anchor="start" x="-1058.0" y="2037.0" fill="#808080" style="font-size:12px">8</text>
<text text-anchor="start" x="-1058.0" y="2117.0" fill="#808080" style="font-size:12px">9</text>
<text text-anchor="start" x="-1058.0" y="2197.0" fill="#808080" style="font-size:12px">10</text>
<text text-anchor="start" x="-1058.0" y="2277.0" fill="#808080" style="font-size:12px">11</text>
<text text-anchor="start" x="-1058.0" y="2357.0" fill="#808080" style="font-size:12px">12</text>
<text text-anchor="start" x="-1058.0" y="2437.0" fill="#808080" style="font-size:12px">13</text>
<text text-anchor="start" x="-1058.0" y="2517.0" fill="#808080" style="font-size:12px">14</text>
<text text-anchor="start" x="-1058.0" y="2597.0" fill="#808080" style="font-size:12px">15</text>
<path d="M -1072,1398 L -1068,1398 L -1068,2602 L -1072,2602 Z" stroke="#000000" stroke-width="4.0" fill="#000000" fill-opacity="1.0"/>
<circle cx="-1080.0" cy="1400.0" r="2.0" stroke="#0000b2" stroke-width="4.0" fill="#0000b2" />
<circle cx="-1060.0" cy="1400.0" r="2.0" stroke="#b20000" stroke-width="4.0" fill="#b20000" />
<circle cx="-1060.0" cy="1480.0" r="2.0" stroke="#b20000" stroke-width="4.0" fill="#b20000" />
<circle cx="-1060.0" cy="1560.0" r="2.0" stroke="#b20000" stroke-width="4.0" fill="#b20000" />
<circle cx="-1060.0" cy="1640.0" r="2.0" stroke="#b20000" stroke-width="4.0" fill="#b20000" />
<circle cx="-1060.0" cy="1720.0" r="2.0" stroke="#b20000" stroke-width="4.0" fill="#b20000" />
<circle cx="-1060.0" cy="1800.0" r="2.0" stroke="#b20000" stroke-width="4.0" fill="#b20000" />
<circle cx="-1060.0" cy="1880.0" r="2.0" stroke="#b20000" stroke-width="4.0" fill="#b20000" />
<circle cx="-1060.0" cy="1960.0" r="2.0" stroke="#b20000" stroke-width="4.0" fill="#b20000" />
<circle cx="-1060.0" cy="2040.0" r="2.0" stroke="#b20000" stroke-width="4.0" fill="#b20000" />
<circle cx="-1060.0" cy="2120.0" r="2.0" stroke="#b20000" stroke-width="4.0" fill="#b20000" />
<circle cx="-1060.0" cy="2200.0" r="2.0" stroke="#b20000" stroke-width="4.0" fill="#b20000" />
<circle cx="-1060.0" cy="2280.0" r="2.0" stroke="#b20000" stroke-width="4.0" fill="#b20000" />
<circle cx="-1060.0" cy="2360.0" r="2.0" stroke="#b20000" stroke-width="4.0" fill="#b20000" />
<circle cx="-1060.0" cy="2440.0" r="2.0" stroke="#b20000" stroke-width="4.0" fill="#b20000" />
<circle cx="-1060.0" cy="2520.0" r="2.0" stroke="#b20000" stroke-width="4.0" fill="#b20000" />
<circle cx="-1060.0" cy="2600.0" r="2.0" stroke="#b20000" stroke-width="4.0" fill="#b20000" />
</g>
<g>
<circle cx="156.0" cy="160.0" r="9.0" stroke="#000000" stroke-width="4.0" fill="none" />
<circle cx="156.0" cy="160.0" r="15.0" stroke="#000000" stroke-width="4.0" fill="none" />
<text text-anchor="start" x="185.0" y="169.0" fill="#000000" style="font-size:24px"><tspan style="font-style:italic;">OUT(16 BIT)</tspan></text>
<circle cx="140.0" cy="160.0" r="2.0" stroke="#0000b2" stroke-width="4.0" fill="#0000b2" />
</g>
<g>
<path d="M -910,190 L -959,190 L -959,130 L -910,130 C -900,130 -880,140 -881,160 C -881,180 -900,190 -910,190 Z" stroke="#000000" stroke-width="4.0" fill="none"/>
<circle cx="-870.0" cy="160.0" r="9.0" stroke="#000000" stroke-width="4.0" fill="none" />
<circle cx="-960.0" cy="140.0" r="2.0" stroke="#0000b2" stroke-width="4.0" fill="#0000b2" />
<circle cx="-960.0" cy="180.0" r="2.0" stroke="#0000b2" stroke-width="4.0" fill="#0000b2" />
<circle cx="-860.0" cy="160.0" r="2.0" stroke="#b20000" stroke-width="4.0" fill="#b20000" />
</g>
<g>
<path d="M -170,190 L -219,190 L -219,130 L -170,130 C -160,130 -140,140 -141,160 C -141,180 -160,190 -170,190 Z" stroke="#000000" stroke-width="4.0" fill="none"/>
<circle cx="-130.0" cy="160.0" r="9.0" stroke="#000000" stroke-width="4.0" fill="none" />
<circle cx="-220.0" cy="140.0" r="2.0" stroke="#0000b2" stroke-width="4.0" fill="#0000b2" />
<circle cx="-220.0" cy="180.0" r="2.0" stroke="#0000b2" stroke-width="4.0" fill="#0000b2" />
<circle cx="-120.0" cy="160.0" r="2.0" stroke="#b20000" stroke-width="4.0" fill="#b20000" />
</g>
<g>
<path d="M -910,1530 L -959,1530 L -959,1470 L -910,1470 C -900,1470 -880,1480 -881,1500 C -881,1520 -900,1530 -910,1530 Z" stroke="#000000" stroke-width="4.0" fill="none"/>
<circle cx="-870.0" cy="1500.0" r="9.0" stroke="#000000" stroke-width="4.0" fill="none" />
<circle cx="-960.0" cy="1480.0" r="2.0" stroke="#0000b2" stroke-width="4.0" fill="#0000b2" />
<circle cx="-960.0" cy="1520.0" r="2.0" stroke="#0000b2" stroke-width="4.0" fill="#0000b2" />
<circle cx="-860.0" cy="1500.0" r="2.0" stroke="#b20000" stroke-width="4.0" fill="#b20000" />
</g>
<g>
<path d="M -910,350 L -959,350 L -959,290 L -910,290 C -900,290 -880,300 -881,320 C -881,340 -900,350 -910,350 Z" stroke="#000000" stroke-width="4.0" fill="none"/>
<circle cx="-870.0" cy="320.0" r="9.0" stroke="#000000" stroke-width="4.0" fill="none" />
<circle cx="-960.0" cy="300.0" r="2.0" stroke="#0000b2" stroke-width="4.0" fill="#0000b2" />
<circle cx="-960.0" cy="340.0" r="2.0" stroke="#0000b2" stroke-width="4.0" fill="#0000b2" />
<circle cx="-860.0" cy="320.0" r="2.0" stroke="#b20000" stroke-width="4.0" fill="#b20000" />
</g>
<g>
<path d="M -910,510 L -959,510 L -959,450 L -910,450 C -900,450 -880,460 -881,480 C -881,500 -900,510 -910,510 Z" stroke="#000000" stroke-width="4.0" fill="none"/>
<circle cx="-870.0" cy="480.0" r="9.0" stroke="#000000" stroke-width="4.0" fill="none" />
<circle cx="-960.0" cy="460.0" r="2.0" stroke="#0000b2" stroke-width="4.0" fill="#0000b2" />
<circle cx="-960.0" cy="500.0" r="2.0" stroke="#0000b2" stroke-width="4.0" fill="#0000b2" />
<circle cx="-860.0" cy="480.0" r="2.0" stroke="#b20000" stroke-width="4.0" fill="#b20000" />
</g>
<g>
<path d="M -910,670 L -959,670 L -959,610 L -910,610 C -900,610 -880,620 -881,640 C -881,660 -900,670 -910,670 Z" stroke="#000000" stroke-width="4.0" fill="none"/>
<circle cx="-870.0" cy="640.0" r="9.0" stroke="#000000" stroke-width="4.0" fill="none" />
<circle cx="-960.0" cy="620.0" r="2.0" stroke="#0000b2" stroke-width="4.0" fill="#0000b2" />
<circle cx="-960.0" cy="660.0" r="2.0" stroke="#0000b2" stroke-width="4.0" fill="#0000b2" />
<circle cx="-860.0" cy="640.0" r="2.0" stroke="#b20000" stroke-width="4.0" fill="#b20000" />
</g>
<g>
<path d="M -910,830 L -959,830 L -959,770 L -910,770 C -900,770 -880,780 -881,800 C -881,820 -900,830 -910,830 Z" stroke="#000000" stroke-width="4.0" fill="none"/>
<circle cx="-870.0" cy="800.0" r="9.0" stroke="#000000" stroke-width="4.0" fill="none" />
<circle cx="-960.0" cy="780.0" r="2.0" stroke="#0000b2" stroke-width="4.0" fill="#0000b2" />
<circle cx="-960.0" cy="820.0" r="2.0" stroke="#0000b2" stroke-width="4.0" fill="#0000b2" />
<circle cx="-860.0" cy="800.0" r="2.0" stroke="#b20000" stroke-width="4.0" fill="#b20000" />
</g>
<g>
<path d="M -910,990 L -959,990 L -959,930 L -910,930 C -900,930 -880,940 -881,960 C -881,980 -900,990 -910,990 Z" stroke="#000000" stroke-width="4.0" fill="none"/>
<circle cx="-870.0" cy="960.0" r="9.0" stroke="#000000" stroke-width="4.0" fill="none" />
<circle cx="-960.0" cy="940.0" r="2.0" stroke="#0000b2" stroke-width="4.0" fill="#0000b2" />
<circle cx="-960.0" cy="980.0" r="2.0" stroke="#0000b2" stroke-width="4.0" fill="#0000b2" />
<circle cx="-860.0" cy="960.0" r="2.0" stroke="#b20000" stroke-width="4.0" fill="#b20000" />
</g>
<g>
<path d="M -910,1150 L -959,1150 L -959,1090 L -910,1090 C -900,1090 -880,1100 -881,1120 C -881,1140 -900,1150 -910,1150 Z" stroke="#000000" stroke-width="4.0" fill="none"/>
<circle cx="-870.0" cy="1120.0" r="9.0" stroke="#000000" stroke-width="4.0" fill="none" />
<circle cx="-960.0" cy="1100.0" r="2.0" stroke="#0000b2" stroke-width="4.0" fill="#0000b2" />
<circle cx="-960.0" cy="1140.0" r="2.0" stroke="#0000b2" stroke-width="4.0" fill="#0000b2" />
<circle cx="-860.0" cy="1120.0" r="2.0" stroke="#b20000" stroke-width="4.0" fill="#b20000" />
</g>
<g>
<path d="M -910,1310 L -959,1310 L -959,1250 L -910,1250 C -900,1250 -880,1260 -881,1280 C -881,1300 -900,1310 -910,1310 Z" stroke="#000000" stroke-width="4.0" fill="none"/>
<circle cx="-870.0" cy="1280.0" r="9.0" stroke="#000000" stroke-width="4.0" fill="none" />
<circle cx="-960.0" cy="1260.0" r="2.0" stroke="#0000b2" stroke-width="4.0" fill="#0000b2" />
<circle cx="-960.0" cy="1300.0" r="2.0" stroke="#0000b2" stroke-width="4.0" fill="#0000b2" />
<circle cx="-860.0" cy="1280.0" r="2.0" stroke="#b20000" stroke-width="4.0" fill="#b20000" />
</g>
<g>
<path d="M -910,1690 L -959,1690 L -959,1630 L -910,1630 C -900,1630 -880,1640 -881,1660 C -881,1680 -900,1690 -910,1690 Z" stroke="#000000" stroke-width="4.0" fill="none"/>
<circle cx="-870.0" cy="1660.0" r="9.0" stroke="#000000" stroke-width="4.0" fill="none" />
<circle cx="-960.0" cy="1640.0" r="2.0" stroke="#0000b2" stroke-width="4.0" fill="#0000b2" />
<circle cx="-960.0" cy="1680.0" r="2.0" stroke="#0000b2" stroke-width="4.0" fill="#0000b2" />
<circle cx="-860.0" cy="1660.0" r="2.0" stroke="#b20000" stroke-width="4.0" fill="#b20000" />
</g>
<g>
<path d="M -910,1850 L -959,1850 L -959,1790 L -910,1790 C -900,1790 -880,1800 -881,1820 C -881,1840 -900,1850 -910,1850 Z" stroke="#000000" stroke-width="4.0" fill="none"/>
<circle cx="-870.0" cy="1820.0" r="9.0" stroke="#000000" stroke-width="4.0" fill="none" />
<circle cx="-960.0" cy="1800.0" r="2.0" stroke="#0000b2" stroke-width="4.0" fill="#0000b2" />
<circle cx="-960.0" cy="1840.0" r="2.0" stroke="#0000b2" stroke-width="4.0" fill="#0000b2" />
<circle cx="-860.0" cy="1820.0" r="2.0" stroke="#b20000" stroke-width="4.0" fill="#b20000" />
</g>
<g>
<path d="M -910,2010 L -959,2010 L -959,1950 L -910,1950 C -900,1950 -880,1960 -881,1980 C -881,2000 -900,2010 -910,2010 Z" stroke="#000000" stroke-width="4.0" fill="none"/>
<circle cx="-870.0" cy="1980.0" r="9.0" stroke="#000000" stroke-width="4.0" fill="none" />
<circle cx="-960.0" cy="1960.0" r="2.0" stroke="#0000b2" stroke-width="4.0" fill="#0000b2" />
<circle cx="-960.0" cy="2000.0" r="2.0" stroke="#0000b2" stroke-width="4.0" fill="#0000b2" />
<circle cx="-860.0" cy="1980.0" r="2.0" stroke="#b20000" stroke-width="4.0" fill="#b20000" />
</g>
<g>
<path d="M -910,2170 L -959,2170 L -959,2110 L -910,2110 C -900,2110 -880,2120 -881,2140 C -881,2160 -900,2170 -910,2170 Z" stroke="#000000" stroke-width="4.0" fill="none"/>
<circle cx="-870.0" cy="2140.0" r="9.0" stroke="#000000" stroke-width="4.0" fill="none" />
<circle cx="-960.0" cy="2120.0" r="2.0" stroke="#0000b2" stroke-width="4.0" fill="#0000b2" />
<circle cx="-960.0" cy="2160.0" r="2.0" stroke="#0000b2" stroke-width="4.0" fill="#0000b2" />
<circle cx="-860.0" cy="2140.0" r="2.0" stroke="#b20000" stroke-width="4.0" fill="#b20000" />
</g>
<g>
<path d="M -910,2330 L -959,2330 L -959,2270 L -910,2270 C -900,2270 -880,2280 -881,2300 C -881,2320 -900,2330 -910,2330 Z" stroke="#000000" stroke-width="4.0" fill="none"/>
<circle cx="-870.0" cy="2300.0" r="9.0" stroke="#000000" stroke-width="4.0" fill="none" />
<circle cx="-960.0" cy="2280.0" r="2.0" stroke="#0000b2" stroke-width="4.0" fill="#0000b2" />
<circle cx="-960.0" cy="2320.0" r="2.0" stroke="#0000b2" stroke-width="4.0" fill="#0000b2" />
<circle cx="-860.0" cy="2300.0" r="2.0" stroke="#b20000" stroke-width="4.0" fill="#b20000" />
</g>
<g>
<path d="M -910,2490 L -959,2490 L -959,2430 L -910,2430 C -900,2430 -880,2440 -881,2460 C -881,2480 -900,2490 -910,2490 Z" stroke="#000000" stroke-width="4.0" fill="none"/>
<circle cx="-870.0" cy="2460.0" r="9.0" stroke="#000000" stroke-width="4.0" fill="none" />
<circle cx="-960.0" cy="2440.0" r="2.0" stroke="#0000b2" stroke-width="4.0" fill="#0000b2" />
<circle cx="-960.0" cy="2480.0" r="2.0" stroke="#0000b2" stroke-width="4.0" fill="#0000b2" />
<circle cx="-860.0" cy="2460.0" r="2.0" stroke="#b20000" stroke-width="4.0" fill="#b20000" />
</g>
<g>
<path d="M -910,2650 L -959,2650 L -959,2590 L -910,2590 C -900,2590 -880,2600 -881,2620 C -881,2640 -900,2650 -910,2650 Z" stroke="#000000" stroke-width="4.0" fill="none"/>
<circle cx="-870.0" cy="2620.0" r="9.0" stroke="#000000" stroke-width="4.0" fill="none" />
<circle cx="-960.0" cy="2600.0" r="2.0" stroke="#0000b2" stroke-width="4.0" fill="#0000b2" />
<circle cx="-960.0" cy="2640.0" r="2.0" stroke="#0000b2" stroke-width="4.0" fill="#0000b2" />
<circle cx="-860.0" cy="2620.0" r="2.0" stroke="#b20000" stroke-width="4.0" fill="#b20000" />
</g>
<g>
<text text-anchor="end" x="-22.0" y="157.0" fill="#808080" style="font-size:12px">0</text>
<text text-anchor="end" x="-22.0" y="237.0" fill="#808080" style="font-size:12px">1</text>
<text text-anchor="end" x="-22.0" y="317.0" fill="#808080" style="font-size:12px">2</text>
<text text-anchor="end" x="-22.0" y="397.0" fill="#808080" style="font-size:12px">3</text>
<text text-anchor="end" x="-22.0" y="477.0" fill="#808080" style="font-size:12px">4</text>
<text text-anchor="end" x="-22.0" y="557.0" fill="#808080" style="font-size:12px">5</text>
<text text-anchor="end" x="-22.0" y="637.0" fill="#808080" style="font-size:12px">6</text>
<text text-anchor="end" x="-22.0" y="717.0" fill="#808080" style="font-size:12px">7</text>
<text text-anchor="end" x="-22.0" y="797.0" fill="#808080" style="font-size:12px">8</text>
<text text-anchor="end" x="-22.0" y="877.0" fill="#808080" style="font-size:12px">9</text>
<text text-anchor="end" x="-22.0" y="957.0" fill="#808080" style="font-size:12px">10</text>
<text text-anchor="end" x="-22.0" y="1037.0" fill="#808080" style="font-size:12px">11</text>
<text text-anchor="end" x="-22.0" y="1117.0" fill="#808080" style="font-size:12px">12</text>
<text text-anchor="end" x="-22.0" y="1197.0" fill="#808080" style="font-size:12px">13</text>
<text text-anchor="end" x="-22.0" y="1277.0" fill="#808080" style="font-size:12px">14</text>
<text text-anchor="end" x="-22.0" y="1357.0" fill="#808080" style="font-size:12px">15</text>
<text text-anchor="start" x="2.0" y="157.0" fill="#808080" style="font-size:12px">0-15</text>
<path d="M -12,158 L -8,158 L -8,1362 L -12,1362 Z" stroke="#000000" stroke-width="4.0" fill="#000000" fill-opacity="1.0"/>
<circle cx="-20.0" cy="160.0" r="2.0" stroke="#0000b2" stroke-width="4.0" fill="#0000b2" />
<circle cx="-20.0" cy="240.0" r="2.0" stroke="#0000b2" stroke-width="4.0" fill="#0000b2" />
<circle cx="-20.0" cy="320.0" r="2.0" stroke="#0000b2" stroke-width="4.0" fill="#0000b2" />
<circle cx="-20.0" cy="400.0" r="2.0" stroke="#0000b2" stroke-width="4.0" fill="#0000b2" />
<circle cx="-20.0" cy="480.0" r="2.0" stroke="#0000b2" stroke-width="4.0" fill="#0000b2" />
<circle cx="-20.0" cy="560.0" r="2.0" stroke="#0000b2" stroke-width="4.0" fill="#0000b2" />
<circle cx="-20.0" cy="640.0" r="2.0" stroke="#0000b2" stroke-width="4.0" fill="#0000b2" />
<circle cx="-20.0" cy="720.0" r="2.0" stroke="#0000b2" stroke-width="4.0" fill="#0000b2" />
<circle cx="-20.0" cy="800.0" r="2.0" stroke="#0000b2" stroke-width="4.0" fill="#0000b2" />
<circle cx="-20.0" cy="880.0" r="2.0" stroke="#0000b2" stroke-width="4.0" fill="#0000b2" />
<circle cx="-20.0" cy="960.0" r="2.0" stroke="#0000b2" stroke-width="4.0" fill="#0000b2" />
<circle cx="-20.0" cy="1040.0" r="2.0" stroke="#0000b2" stroke-width="4.0" fill="#0000b2" />
<circle cx="-20.0" cy="1120.0" r="2.0" stroke="#0000b2" stroke-width="4.0" fill="#0000b2" />
<circle cx="-20.0" cy="1200.0" r="2.0" stroke="#0000b2" stroke-width="4.0" fill="#0000b2" />
<circle cx="-20.0" cy="1280.0" r="2.0" stroke="#0000b2" stroke-width="4.0" fill="#0000b2" />
<circle cx="-20.0" cy="1360.0" r="2.0" stroke="#0000b2" stroke-width="4.0" fill="#0000b2" />
<circle cx="0.0" cy="160.0" r="2.0" stroke="#b20000" stroke-width="4.0" fill="#b20000" />
</g>
<g>
<path d="M -170,270 L -219,270 L -219,210 L -170,210 C -160,210 -140,220 -141,240 C -141,260 -160,270 -170,270 Z" stroke="#000000" stroke-width="4.0" fill="none"/>
<circle cx="-130.0" cy="240.0" r="9.0" stroke="#000000" stroke-width="4.0" fill="none" />
<circle cx="-220.0" cy="220.0" r="2.0" stroke="#0000b2" stroke-width="4.0" fill="#0000b2" />
<circle cx="-220.0" cy="260.0" r="2.0" stroke="#0000b2" stroke-width="4.0" fill="#0000b2" />
<circle cx="-120.0" cy="240.0" r="2.0" stroke="#b20000" stroke-width="4.0" fill="#b20000" />
</g>
<g>
<path d="M -170,350 L -219,350 L -219,290 L -170,290 C -160,290 -140,300 -141,320 C -141,340 -160,350 -170,350 Z" stroke="#000000" stroke-width="4.0" fill="none"/>
<circle cx="-130.0" cy="320.0" r="9.0" stroke="#000000" stroke-width="4.0" fill="none" />
<circle cx="-220.0" cy="300.0" r="2.0" stroke="#0000b2" stroke-width="4.0" fill="#0000b2" />
<circle cx="-220.0" cy="340.0" r="2.0" stroke="#0000b2" stroke-width="4.0" fill="#0000b2" />
<circle cx="-120.0" cy="320.0" r="2.0" stroke="#b20000" stroke-width="4.0" fill="#b20000" />
</g>
<g>
<path d="M -170,430 L -219,430 L -219,370 L -170,370 C -160,370 -140,380 -141,400 C -141,420 -160,430 -170,430 Z" stroke="#000000" stroke-width="4.0" fill="none"/>
<circle cx="-130.0" cy="400.0" r="9.0" stroke="#000000" stroke-width="4.0" fill="none" />
<circle cx="-220.0" cy="380.0" r="2.0" stroke="#0000b2" stroke-width="4.0" fill="#0000b2" />
<circle cx="-220.0" cy="420.0" r="2.0" stroke="#0000b2" stroke-width="4.0" fill="#0000b2" />
<circle cx="-120.0" cy="400.0" r="2.0" stroke="#b20000" stroke-width="4.0" fill="#b20000" />
</g>
<g>
<path d="M -170,510 L -219,510 L -219,450 L -170,450 C -160,450 -140,460 -141,480 C -141,500 -160,510 -170,510 Z" stroke="#000000" stroke-width="4.0" fill="none"/>
<circle cx="-130.0" cy="480.0" r="9.0" stroke="#000000" stroke-width="4.0" fill="none" />
<circle cx="-220.0" cy="460.0" r="2.0" stroke="#0000b2" stroke-width="4.0" fill="#0000b2" />
<circle cx="-220.0" cy="500.0" r="2.0" stroke="#0000b2" stroke-width="4.0" fill="#0000b2" />
<circle cx="-120.0" cy="480.0" r="2.0" stroke="#b20000" stroke-width="4.0" fill="#b20000" />
</g>
<g>
<path d="M -170,590 L -219,590 L -219,530 L -170,530 C -160,530 -140,540 -141,560 C -141,580 -160,590 -170,590 Z" stroke="#000000" stroke-width="4.0" fill="none"/>
<circle cx="-130.0" cy="560.0" r="9.0" stroke="#000000" stroke-width="4.0" fill="none" />
<circle cx="-220.0" cy="540.0" r="2.0" stroke="#0000b2" stroke-width="4.0" fill="#0000b2" />
<circle cx="-220.0" cy="580.0" r="2.0" stroke="#0000b2" stroke-width="4.0" fill="#0000b2" />
<circle cx="-120.0" cy="560.0" r="2.0" stroke="#b20000" stroke-width="4.0" fill="#b20000" />
</g>
<g>
<path d="M -170,670 L -219,670 L -219,610 L -170,610 C -160,610 -140,620 -141,640 C -141,660 -160,670 -170,670 Z" stroke="#000000" stroke-width="4.0" fill="none"/>
<circle cx="-130.0" cy="640.0" r="9.0" stroke="#000000" stroke-width="4.0" fill="none" />
<circle cx="-220.0" cy="620.0" r="2.0" stroke="#0000b2" stroke-width="4.0" fill="#0000b2" />
<circle cx="-220.0" cy="660.0" r="2.0" stroke="#0000b2" stroke-width="4.0" fill="#0000b2" />
<circle cx="-120.0" cy="640.0" r="2.0" stroke="#b20000" stroke-width="4.0" fill="#b20000" />
</g>
<g>
<path d="M -170,750 L -219,750 L -219,690 L -170,690 C -160,690 -140,700 -141,720 C -141,740 -160,750 -170,750 Z" stroke="#000000" stroke-width="4.0" fill="none"/>
<circle cx="-130.0" cy="720.0" r="9.0" stroke="#000000" stroke-width="4.0" fill="none" />
<circle cx="-220.0" cy="700.0" r="2.0" stroke="#0000b2" stroke-width="4.0" fill="#0000b2" />
<circle cx="-220.0" cy="740.0" r="2.0" stroke="#0000b2" stroke-width="4.0" fill="#0000b2" />
<circle cx="-120.0" cy="720.0" r="2.0" stroke="#b20000" stroke-width="4.0" fill="#b20000" />
</g>
<g>
<path d="M -170,830 L -219,830 L -219,770 L -170,770 C -160,770 -140,780 -141,800 C -141,820 -160,830 -170,830 Z" stroke="#000000" stroke-width="4.0" fill="none"/>
<circle cx="-130.0" cy="800.0" r="9.0" stroke="#000000" stroke-width="4.0" fill="none" />
<circle cx="-220.0" cy="780.0" r="2.0" stroke="#0000b2" stroke-width="4.0" fill="#0000b2" />
<circle cx="-220.0" cy="820.0" r="2.0" stroke="#0000b2" stroke-width="4.0" fill="#0000b2" />
<circle cx="-120.0" cy="800.0" r="2.0" stroke="#b20000" stroke-width="4.0" fill="#b20000" />
</g>
<g>
<path d="M -170,910 L -219,910 L -219,850 L -170,850 C -160,850 -140,860 -141,880 C -141,900 -160,910 -170,910 Z" stroke="#000000" stroke-width="4.0" fill="none"/>
<circle cx="-130.0" cy="880.0" r="9.0" stroke="#000000" stroke-width="4.0" fill="none" />
<circle cx="-220.0" cy="860.0" r="2.0" stroke="#0000b2" stroke-width="4.0" fill="#0000b2" />
<circle cx="-220.0" cy="900.0" r="2.0" stroke="#0000b2" stroke-width="4.0" fill="#0000b2" />
<circle cx="-120.0" cy="880.0" r="2.0" stroke="#b20000" stroke-width="4.0" fill="#b20000" />
</g>
<g>
<path d="M -170,990 L -219,990 L -219,930 L -170,930 C -160,930 -140,940 -141,960 C -141,980 -160,990 -170,990 Z" stroke="#000000" stroke-width="4.0" fill="none"/>
<circle cx="-130.0" cy="960.0" r="9.0" stroke="#000000" stroke-width="4.0" fill="none" />
<circle cx="-220.0" cy="940.0" r="2.0" stroke="#0000b2" stroke-width="4.0" fill="#0000b2" />
<circle cx="-220.0" cy="980.0" r="2.0" stroke="#0000b2" stroke-width="4.0" fill="#0000b2" />
<circle cx="-120.0" cy="960.0" r="2.0" stroke="#b20000" stroke-width="4.0" fill="#b20000" />
</g>
<g>
<path d="M -170,1070 L -219,1070 L -219,1010 L -170,1010 C -160,1010 -140,1020 -141,1040 C -141,1060 -160,1070 -170,1070 Z" stroke="#000000" stroke-width="4.0" fill="none"/>
<circle cx="-130.0" cy="1040.0" r="9.0" stroke="#000000" stroke-width="4.0" fill="none" />
<circle cx="-220.0" cy="1020.0" r="2.0" stroke="#0000b2" stroke-width="4.0" fill="#0000b2" />
<circle cx="-220.0" cy="1060.0" r="2.0" stroke="#0000b2" stroke-width="4.0" fill="#0000b2" />
<circle cx="-120.0" cy="1040.0" r="2.0" stroke="#b20000" stroke-width="4.0" fill="#b20000" />
</g>
<g>
<path d="M -170,1150 L -219,1150 L -219,1090 L -170,1090 C -160,1090 -140,1100 -141,1120 C -141,1140 -160,1150 -170,1150 Z" stroke="#000000" stroke-width="4.0" fill="none"/>
<circle cx="-130.0" cy="1120.0" r="9.0" stroke="#000000" stroke-width="4.0" fill="none" />
<circle cx="-220.0" cy="1100.0" r="2.0" stroke="#0000b2" stroke-width="4.0" fill="#0000b2" />
<circle cx="-220.0" cy="1140.0" r="2.0" stroke="#0000b2" stroke-width="4.0" fill="#0000b2" />
<circle cx="-120.0" cy="1120.0" r="2.0" stroke="#b20000" stroke-width="4.0" fill="#b20000" />
</g>
<g>
<path d="M -170,1230 L -219,1230 L -219,1170 L -170,1170 C -160,1170 -140,1180 -141,1200 C -141,1220 -160,1230 -170,1230 Z" stroke="#000000" stroke-width="4.0" fill="none"/>
<circle cx="-130.0" cy="1200.0" r="9.0" stroke="#000000" stroke-width="4.0" fill="none" />
<circle cx="-220.0" cy="1180.0" r="2.0" stroke="#0000b2" stroke-width="4.0" fill="#0000b2" />
<circle cx="-220.0" cy="1220.0" r="2.0" stroke="#0000b2" stroke-width="4.0" fill="#0000b2" />
<circle cx="-120.0" cy="1200.0" r="2.0" stroke="#b20000" stroke-width="4.0" fill="#b20000" />
</g>
<g>
<path d="M -170,1310 L -219,1310 L -219,1250 L -170,1250 C -160,1250 -140,1260 -141,1280 C -141,1300 -160,1310 -170,1310 Z" stroke="#000000" stroke-width="4.0" fill="none"/>
<circle cx="-130.0" cy="1280.0" r="9.0" stroke="#000000" stroke-width="4.0" fill="none" />
<circle cx="-220.0" cy="1260.0" r="2.0" stroke="#0000b2" stroke-width="4.0" fill="#0000b2" />
<circle cx="-220.0" cy="1300.0" r="2.0" stroke="#0000b2" stroke-width="4.0" fill="#0000b2" />
<circle cx="-120.0" cy="1280.0" r="2.0" stroke="#b20000" stroke-width="4.0" fill="#b20000" />
</g>
<g>
<path d="M -170,1390 L -219,1390 L -219,1330 L -170,1330 C -160,1330 -140,1340 -141,1360 C -141,1380 -160,1390 -170,1390 Z" stroke="#000000" stroke-width="4.0" fill="none"/>
<circle cx="-130.0" cy="1360.0" r="9.0" stroke="#000000" stroke-width="4.0" fill="none" />
<circle cx="-220.0" cy="1340.0" r="2.0" stroke="#0000b2" stroke-width="4.0" fill="#0000b2" />
<circle cx="-220.0" cy="1380.0" r="2.0" stroke="#0000b2" stroke-width="4.0" fill="#0000b2" />
<circle cx="-120.0" cy="1360.0" r="2.0" stroke="#b20000" stroke-width="4.0" fill="#b20000" />
</g>
</g>
</svg>