<?xml version="1.0" encoding="UTF-8" standalone="no"?>
<!-- Created with Digital by H.Neemann -->
<!-- created: Tue Aug 31 14:11:08 MST 2021 -->

<svg
   xmlns:svg="http://www.w3.org/2000/svg"
   xmlns="http://www.w3.org/2000/svg"
   width="218.25mm"
   height="389.1mm"
   viewBox="-18 30 1455 2594">
<g stroke-linecap="square">
<path d="M 280,640 L 400,640" stroke="#0000b2" stroke-width="4.0" fill="none"/>
<path d="M 280,1280 L 400,1280" stroke="#0000b2" stroke-width="4.0" fill="none"/>
<path d="M 440,260 L 1080,260" stroke="#0000b2" stroke-width="4.0" fill="none"/>
<path d="M 440,900 L 1080,900" stroke="#0000b2" stroke-width="4.0" fill="none"/>
<path d="M 420,520 L 980,520 L 980,440" stroke="#0000b2" stroke-width="4.0" fill="none"/>
<path d="M 420,1160 L 980,1160 L 980,1080" stroke="#0000b2" stroke-width="4.0" fill="none"/>
<path d="M 180,1420 L 260,1420" stroke="#0000b2" stroke-width="4.0" fill="none"/>
<path d="M 280,1420 L 300,1420 L 300,1440 L 580,1440 L 580,220 L 400,220 L 400,200" stroke="#0000b2" stroke-width="4.0" fill="none"/>
<path d="M 280,2060 L 740,2060 L 740,860 L 380,860 L 380,840 L 400,840" stroke="#0000b2" stroke-width="4.0" fill="none"/>
<path d="M 280,400 L 400,400" stroke="#0000b2" stroke-width="4.0" fill="none"/>
<path d="M 280,1040 L 400,1040" stroke="#0000b2" stroke-width="4.0" fill="none"/>
<path d="M 440,660 L 1080,660" stroke="#0000b2" stroke-width="4.0" fill="none"/>
<path d="M 440,1300 L 1080,1300" stroke="#0000b2" stroke-width="4.0" fill="none"/>
<path d="M 420,280 L 980,280 L 980,200" stroke="#0000b2" stroke-width="4.0" fill="none"/>
<path d="M 420,920 L 980,920 L 980,1000 L 420,1000" stroke="#0000b2" stroke-width="4.0" fill="none"/>
<path d="M 280,1820 L 680,1820 L 680,620 L 380,620 L 380,600 L 400,600" stroke="#0000b2" stroke-width="4.0" fill="none"/>
<path d="M 280,2460 L 840,2460 L 840,1260 L 380,1260 L 380,1240 L 400,1240" stroke="#0000b2" stroke-width="4.0" fill="none"/>
<path d="M 200,160 L 260,160" stroke="#0000b2" stroke-width="4.0" fill="none"/>
<path d="M 280,160 L 400,160" stroke="#0000b2" stroke-width="4.0" fill="none"/>
<path d="M 280,800 L 400,800" stroke="#0000b2" stroke-width="4.0" fill="none"/>
<path d="M 440,420 L 1080,420" stroke="#0000b2" stroke-width="4.0" fill="none"/>
<path d="M 440,1060 L 1080,1060" stroke="#0000b2" stroke-width="4.0" fill="none"/>
<path d="M 420,680 L 980,680 L 980,600" stroke="#0000b2" stroke-width="4.0" fill="none"/>
<path d="M 420,1320 L 980,1320 L 980,1240" stroke="#0000b2" stroke-width="4.0" fill="none"/>
<path d="M 280,1580 L 620,1580 L 620,380 L 380,380 L 380,360 L 400,360" stroke="#0000b2" stroke-width="4.0" fill="none"/>
<path d="M 280,2220 L 780,2220 L 780,1020 L 380,1020 L 380,1000 L 400,1000" stroke="#0000b2" stroke-width="4.0" fill="none"/>
<path d="M 280,560 L 400,560" stroke="#0000b2" stroke-width="4.0" fill="none"/>
<path d="M 280,1200 L 400,1200" stroke="#0000b2" stroke-width="4.0" fill="none"/>
<path d="M 440,180 L 1080,180" stroke="#0000b2" stroke-width="4.0" fill="none"/>
<path d="M 1100,180 L 1120,180 L 1120,160 L 1240,160" stroke="#0000b2" stroke-width="4.0" fill="none"/>
<path d="M 440,820 L 1080,820" stroke="#0000b2" stroke-width="4.0" fill="none"/>
<path d="M 420,440 L 980,440 L 980,360 L 420,360" stroke="#0000b2" stroke-width="4.0" fill="none"/>
<path d="M 420,1080 L 980,1080 L 980,1000" stroke="#0000b2" stroke-width="4.0" fill="none"/>
<path d="M 280,320 L 400,320" stroke="#0000b2" stroke-width="4.0" fill="none"/>
<path d="M 280,960 L 400,960" stroke="#0000b2" stroke-width="4.0" fill="none"/>
<path d="M 440,580 L 1080,580" stroke="#0000b2" stroke-width="4.0" fill="none"/>
<path d="M 440,1220 L 1080,1220" stroke="#0000b2" stroke-width="4.0" fill="none"/>
<path d="M 420,840 L 980,840 L 980,760" stroke="#0000b2" stroke-width="4.0" fill="none"/>
<path d="M 420,200 L 980,200 L 980,120" stroke="#0000b2" stroke-width="4.0" fill="none"/>
<path d="M 280,720 L 400,720" stroke="#0000b2" stroke-width="4.0" fill="none"/>
<path d="M 280,1360 L 400,1360" stroke="#0000b2" stroke-width="4.0" fill="none"/>
<path d="M 440,340 L 1080,340" stroke="#0000b2" stroke-width="4.0" fill="none"/>
<path d="M 440,980 L 1080,980" stroke="#0000b2" stroke-width="4.0" fill="none"/>
<path d="M 420,600 L 980,600 L 980,520" stroke="#0000b2" stroke-width="4.0" fill="none"/>
<path d="M 420,1240 L 980,1240 L 980,1160" stroke="#0000b2" stroke-width="4.0" fill="none"/>
<path d="M 280,480 L 400,480" stroke="#0000b2" stroke-width="4.0" fill="none"/>
<path d="M 280,1120 L 400,1120" stroke="#0000b2" stroke-width="4.0" fill="none"/>
<path d="M 440,740 L 1080,740" stroke="#0000b2" stroke-width="4.0" fill="none"/>
<path d="M 440,1380 L 1080,1380" stroke="#0000b2" stroke-width="4.0" fill="none"/>
<path d="M 280,1900 L 700,1900 L 700,700 L 380,700 L 380,680 L 400,680" stroke="#0000b2" stroke-width="4.0" fill="none"/>
<path d="M 280,2540 L 860,2540 L 860,1340 L 380,1340 L 380,1320 L 400,1320" stroke="#0000b2" stroke-width="4.0" fill="none"/>
<path d="M 280,240 L 400,240" stroke="#0000b2" stroke-width="4.0" fill="none"/>
<path d="M 280,880 L 400,880" stroke="#0000b2" stroke-width="4.0" fill="none"/>
<path d="M 440,500 L 1080,500" stroke="#0000b2" stroke-width="4.0" fill="none"/>
<path d="M 440,1140 L 1080,1140" stroke="#0000b2" stroke-width="4.0" fill="none"/>
<path d="M 420,760 L 980,760 L 980,680" stroke="#0000b2" stroke-width="4.0" fill="none"/>
<path d="M 420,1400 L 980,1400 L 980,1320" stroke="#0000b2" stroke-width="4.0" fill="none"/>
<path d="M 980,280 L 980,360" stroke="#0000b2" stroke-width="4.0" fill="none"/>
<path d="M 980,840 L 980,920" stroke="#0000b2" stroke-width="4.0" fill="none"/>
<path d="M 400,280 L 380,280 L 380,300 L 600,300 L 600,1500 L 280,1500" stroke="#0000b2" stroke-width="4.0" fill="none"/>
<path d="M 400,440 L 380,440 L 380,460 L 640,460 L 640,1660 L 280,1660" stroke="#0000b2" stroke-width="4.0" fill="none"/>
<path d="M 400,520 L 380,520 L 380,540 L 660,540 L 660,1740 L 280,1740" stroke="#0000b2" stroke-width="4.0" fill="none"/>
<path d="M 280,1980 L 720,1980 L 720,780 L 380,780 L 380,760 L 400,760" stroke="#0000b2" stroke-width="4.0" fill="none"/>
<path d="M 400,920 L 380,920 L 380,940 L 760,940 L 760,2140 L 280,2140" stroke="#0000b2" stroke-width="4.0" fill="none"/>
<path d="M 400,1080 L 380,1080 L 380,1100 L 800,1100 L 800,2300 L 280,2300" stroke="#0000b2" stroke-width="4.0" fill="none"/>
<path d="M 400,1160 L 380,1160 L 380,1180 L 820,1180 L 820,2380 L 280,2380" stroke="#0000b2" stroke-width="4.0" fill="none"/>
<path d="M 280,2620 L 880,2620 L 880,1420 L 380,1420 L 380,1400 L 400,1400" stroke="#0000b2" stroke-width="4.0" fill="none"/>
<path d="M 260,160 L 270,160 L 280,160" stroke="#000000" stroke-width="4.0" fill="none"/>
<path d="M 280,240 L 270,240" stroke="#000000" stroke-width="4.0" fill="none"/>
<path d="M 280,320 L 270,320" stroke="#000000" stroke-width="4.0" fill="none"/>
<path d="M 280,400 L 270,400" stroke="#000000" stroke-width="4.0" fill="none"/>
<path d="M 280,480 L 270,480" stroke="#000000" stroke-width="4.0" fill="none"/>
<path d="M 280,560 L 270,560" stroke="#000000" stroke-width="4.0" fill="none"/>
<path d="M 280,640 L 270,640" stroke="#000000" stroke-width="4.0" fill="none"/>
<path d="M 280,720 L 270,720" stroke="#000000" stroke-width="4.0" fill="none"/>
<path d="M 280,800 L 270,800" stroke="#000000" stroke-width="4.0" fill="none"/>
<path d="M 280,880 L 270,880" stroke="#000000" stroke-width="4.0" fill="none"/>
<path d="M 280,960 L 270,960" stroke="#000000" stroke-width="4.0" fill="none"/>
<path d="M 280,1040 L 270,1040" stroke="#000000" stroke-width="4.0" fill="none"/>
<path d="M 280,1120 L 270,1120" stroke="#000000" stroke-width="4.0" fill="none"/>
<path d="M 280,1200 L 270,1200" stroke="#000000" stroke-width="4.0" fill="none"/>
<path d="M 280,1280 L 270,1280" stroke="#000000" stroke-width="4.0" fill="none"/>
<path d="M 280,1360 L 270,1360" stroke="#000000" stroke-width="4.0" fill="none"/>
<path d="M 260,1420 L 270,1420 L 280,1420" stroke="#000000" stroke-width="4.0" fill="none"/>
<path d="M 280,1500 L 270,1500" stroke="#000000" stroke-width="4.0" fill="none"/>
<path d="M 280,1580 L 270,1580" stroke="#000000" stroke-width="4.0" fill="none"/>
<path d="M 280,1660 L 270,1660" stroke="#000000" stroke-width="4.0" fill="none"/>
<path d="M 280,1740 L 270,1740" stroke="#000000" stroke-width="4.0" fill="none"/>
<path d="M 280,1820 L 270,1820" stroke="#000000" stroke-width="4.0" fill="none"/>
<path d="M 280,1900 L 270,1900" stroke="#000000" stroke-width="4.0" fill="none"/>
<path d="M 280,1980 L 270,1980" stroke="#000000" stroke-width="4.0" fill="none"/>
<path d="M 280,2060 L 270,2060" stroke="#000000" stroke-width="4.0" fill="none"/>
<path d="M 280,2140 L 270,2140" stroke="#000000" stroke-width="4.0" fill="none"/>
<path d="M 280,2220 L 270,2220" stroke="#000000" stroke-width="4.0" fill="none"/>
<path d="M 280,2300 L 270,2300" stroke="#000000" stroke-width="4.0" fill="none"/>
<path d="M 280,2380 L 270,2380" stroke="#000000" stroke-width="4.0" fill="none"/>
<path d="M 280,2460 L 270,2460" stroke="#000000" stroke-width="4.0" fill="none"/>
<path d="M 280,2540 L 270,2540" stroke="#000000" stroke-width="4.0" fill="none"/>
<path d="M 280,2620 L 270,2620" stroke="#000000" stroke-width="4.0" fill="none"/>
<path d="M 1080,180 L 1090,180 L 1100,180" stroke="#000000" stroke-width="4.0" fill="none"/>
<path d="M 1080,260 L 1090,260" stroke="#000000" stroke-width="4.0" fill="none"/>
<path d="M 1080,340 L 1090,340" stroke="#000000" stroke-width="4.0" fill="none"/>
<path d="M 1080,420 L 1090,420" stroke="#000000" stroke-width="4.0" fill="none"/>
<path d="M 1080,500 L 1090,500" stroke="#000000" stroke-width="4.0" fill="none"/>
<path d="M 1080,580 L 1090,580" stroke="#000000" stroke-width="4.0" fill="none"/>
<path d="M 1080,660 L 1090,660" stroke="#000000" stroke-width="4.0" fill="none"/>
<path d="M 1080,740 L 1090,740" stroke="#000000" stroke-width="4.0" fill="none"/>
<path d="M 1080,820 L 1090,820" stroke="#000000" stroke-width="4.0" fill="none"/>
<path d="M 1080,900 L 1090,900" stroke="#000000" stroke-width="4.0" fill="none"/>
<path d="M 1080,980 L 1090,980" stroke="#000000" stroke-width="4.0" fill="none"/>
<path d="M 1080,1060 L 1090,1060" stroke="#000000" stroke-width="4.0" fill="none"/>
<path d="M 1080,1140 L 1090,1140" stroke="#000000" stroke-width="4.0" fill="none"/>
<path d="M 1080,1220 L 1090,1220" stroke="#000000" stroke-width="4.0" fill="none"/>
<path d="M 1080,1300 L 1090,1300" stroke="#000000" stroke-width="4.0" fill="none"/>
<path d="M 1080,1380 L 1090,1380" stroke="#000000" stroke-width="4.0" fill="none"/>
<g>
<circle cx="980.0" cy="520.0" r="4.0" stroke="#0000b2" stroke-width="4.0" fill="#0000b2" />
<circle cx="980.0" cy="1160.0" r="4.0" stroke="#0000b2" stroke-width="4.0" fill="#0000b2" />
<circle cx="980.0" cy="280.0" r="4.0" stroke="#0000b2" stroke-width="4.0" fill="#0000b2" />
<circle cx="980.0" cy="920.0" r="4.0" stroke="#0000b2" stroke-width="4.0" fill="#0000b2" />
<circle cx="980.0" cy="680.0" r="4.0" stroke="#0000b2" stroke-width="4.0" fill="#0000b2" />
<circle cx="980.0" cy="1320.0" r="4.0" stroke="#0000b2" stroke-width="4.0" fill="#0000b2" />
<circle cx="980.0" cy="440.0" r="4.0" stroke="#0000b2" stroke-width="4.0" fill="#0000b2" />
<circle cx="980.0" cy="1080.0" r="4.0" stroke="#0000b2" stroke-width="4.0" fill="#0000b2" />
<circle cx="980.0" cy="840.0" r="4.0" stroke="#0000b2" stroke-width="4.0" fill="#0000b2" />
<circle cx="980.0" cy="200.0" r="4.0" stroke="#0000b2" stroke-width="4.0" fill="#0000b2" />
<circle cx="980.0" cy="600.0" r="4.0" stroke="#0000b2" stroke-width="4.0" fill="#0000b2" />
<circle cx="980.0" cy="1240.0" r="4.0" stroke="#0000b2" stroke-width="4.0" fill="#0000b2" />
<circle cx="980.0" cy="360.0" r="4.0" stroke="#0000b2" stroke-width="4.0" fill="#0000b2" />
<circle cx="980.0" cy="1000.0" r="4.0" stroke="#0000b2" stroke-width="4.0" fill="#0000b2" />
<circle cx="980.0" cy="760.0" r="4.0" stroke="#0000b2" stroke-width="4.0" fill="#0000b2" />
</g>
<g>
<path d="M 169,145 L 199,145 L 199,175 L 169,175 Z" stroke="#000000" stroke-width="4.0" fill="none"/>
<circle cx="184.0" cy="160.0" r="9.0" stroke="#000000" stroke-width="4.0" fill="none" />
<text text-anchor="end" x="155.0" y="169.0" fill="#000000" style="font-size:24px"><tspan style="font-style:italic;">IN A(16 BIT)</tspan></text>
<circle cx="200.0" cy="160.0" r="2.0" stroke="#b20000" stroke-width="4.0" fill="#b20000" />
</g>
<g>
<path d="M 149,1405 L 179,1405 L 179,1435 L 149,1435 Z" stroke="#000000" stroke-width="4.0" fill="none"/>
<circle cx="164.0" cy="1420.0" r="9.0" stroke="#000000" stroke-width="4.0" fill="none" />
<text text-anchor="end" x="135.0" y="1429.0" fill="#000000" style="font-size:24px"><tspan style="font-style:italic;">IN B(16 BIT)</tspan></text>
<circle cx="180.0" cy="1420.0" r="2.0" stroke="#b20000" stroke-width="4.0" fill="#b20000" />
</g>
<g>
<text text-anchor="end" x="258.0" y="157.0" fill="#808080" style="font-size:12px">0-15</text>
<text text-anchor="start" x="282.0" y="157.0" fill="#808080" style="font-size:12px">0</text>
<text text-anchor="start" x="282.0" y="237.0" fill="#808080" style="font-size:12px">1</text>
<text text-anchor="start" x="282.0" y="317.0" fill="#808080" style="font-size:12px">2</text>
<text text-anchor="start" x="282.0" y="397.0" fill="#808080" style="font-size:12px">3</text>
<text text-anchor="start" x="282.0" y="477.0" fill="#808080" style="font-size:12px">4</text>
<text text-anchor="start" x="282.0" y="557.0" fill="#808080" style="font-size:12px">5</text>
<text text-anchor="start" x="282.0" y="637.0" fill="#808080" style="font-size:12px">6</text>
<text text-anchor="start" x="282.0" y="717.0" fill="#808080" style="font-size:12px">7</text>
<text text-anchor="start" x="282.0" y="797.0" fill="#808080" style="font-size:12px">8</text>
<text text-anchor="start" x="282.0" y="877.0" fill="#808080" style="font-size:12px">9</text>
<text text-anchor="start" x="282.0" y="957.0" fill="#808080" style="font-size:12px">10</text>
<text text-anchor="start" x="282.0" y="1037.0" fill="#808080" style="font-size:12px">11</text>
<text text-anchor="start" x="282.0" y="1117.0" fill="#808080" style="font-size:12px">12</text>
<text text-anchor="start" x="282.0" y="1197.0" fill="#808080" style="font-size:12px">13</text>
<text text-anchor="start" x="282.0" y="1277.0" fill="#808080" style="font-size:12px">14</text>
<text text-anchor="start" x="282.0" y="1357.0" fill="#808080" style="font-size:12px">15</text>
<path d="M 268,158 L 272,158 L 272,1362 L 268,1362 Z" stroke="#000000" stroke-width="4.0" fill="#000000" fill-opacity="1.0"/>
<circle cx="260.0" cy="160.0" r="2.0" stroke="#0000b2" stroke-width="4.0" fill="#0000b2" />
<circle cx="280.0" cy="160.0" r="2.0" stroke="#b20000" stroke-width="4.0" fill="#b20000" />
<circle cx="280.0" cy="240.0" r="2.0" stroke="#b20000" stroke-width="4.0" fill="#b20000" />
<circle cx="280.0" cy="320.0" r="2.0" stroke="#b20000" stroke-width="4.0" fill="#b20000" />
<circle cx="280.0" cy="400.0" r="2.0" stroke="#b20000" stroke-width="4.0" fill="#b20000" />
<circle cx="280.0" cy="480.0" r="2.0" stroke="#b20000" stroke-width="4.0" fill="#b20000" />
<circle cx="280.0" cy="560.0" r="2.0" stroke="#b20000" stroke-width="4.0" fill="#b20000" />
<circle cx="280.0" cy="640.0" r="2.0" stroke="#b20000" stroke-width="4.0" fill="#b20000" />
<circle cx="280.0" cy="720.0" r="2.0" stroke="#b20000" stroke-width="4.0" fill="#b20000" />
<circle cx="280.0" cy="800.0" r="2.0" stroke="#b20000" stroke-width="4.0" fill="#b20000" />
<circle cx="280.0" cy="880.0" r="2.0" stroke="#b20000" stroke-width="4.0" fill="#b20000" />
<circle cx="280.0" cy="960.0" r="2.0" stroke="#b20000" stroke-width="4.0" fill="#b20000" />
<circle cx="280.0" cy="1040.0" r="2.0" stroke="#b20000" stroke-width="4.0" fill="#b20000" />
<circle cx="280.0" cy="1120.0" r="2.0" stroke="#b20000" stroke-width="4.0" fill="#b20000" />
<circle cx="280.0" cy="1200.0" r="2.0" stroke="#b20000" stroke-width="4.0" fill="#b20000" />
<circle cx="280.0" cy="1280.0" r="2.0" stroke="#b20000" stroke-width="4.0" fill="#b20000" />
<circle cx="280.0" cy="1360.0" r="2.0" stroke="#b20000" stroke-width="4.0" fill="#b20000" />
</g>
<g>
<text text-anchor="end" x="258.0" y="1417.0" fill="#808080" style="font-size:12px">0-15</text>
<text text-anchor="start" x="282.0" y="1417.0" fill="#808080" style="font-size:12px">0</text>
<text text-anchor="start" x="282.0" y="1497.0" fill="#808080" style="font-size:12px">1</text>
<text text-anchor="start" x="282.0" y="1577.0" fill="#808080" style="font-size:12px">2</text>
<text text-anchor="start" x="282.0" y="1657.0" fill="#808080" style="font-size:12px">3</text>
<text text-anchor="start" x="282.0" y="1737.0" fill="#808080" style="font-size:12px">4</text>
<text text-anchor="start" x="282.0" y="1817.0" fill="#808080" style="font-size:12px">5</text>
<text text-anchor="start" x="282.0" y="1897.0" fill="#808080" style="font-size:12px">6</text>
<text text-anchor="start" x="282.0" y="1977.0" fill="#808080" style="font-size:12px">7</text>
<text text-anchor="start" x="282.0" y="2057.0" fill="#808080" style="font-size:12px">8</text>
<text text-anchor="start" x="282.0" y="2137.0" fill="#808080" style="font-size:12px">9</text>
<text text-anchor="start" x="282.0" y="2217.0" fill="#808080" style="font-size:12px">10</text>
<text text-anchor="start" x="282.0" y="2297.0" fill="#808080" style="font-size:12px">11</text>
<text text-anchor="start" x="282.0" y="2377.0" fill="#808080" style="font-size:12px">12</text>
<text text-anchor="start" x="282.0" y="2457.0" fill="#808080" style="font-size:12px">13</text>
<text text-anchor="start" x="282.0" y="2537.0" fill="#808080" style="font-size:12px">14</text>
<text text-anchor="start" x="282.0" y="2617.0" fill="#808080" style="font-size:12px">15</text>
<path d="M 268,1418 L 272,1418 L 272,2622 L 268,2622 Z" stroke="#000000" stroke-width="4.0" fill="#000000" fill-opacity="1.0"/>
<circle cx="260.0" cy="1420.0" r="2.0" stroke="#0000b2" stroke-width="4.0" fill="#0000b2" />
<circle cx="280.0" cy="1420.0" r="2.0" stroke="#b20000" stroke-width="4.0" fill="#b20000" />
<circle cx="280.0" cy="1500.0" r="2.0" stroke="#b20000" stroke-width="4.0" fill="#b20000" />
<circle cx="280.0" cy="1580.0" r="2.0" stroke="#b20000" stroke-width="4.0" fill="#b20000" />
<circle cx="280.0" cy="1660.0" r="2.0" stroke="#b20000" stroke-width="4.0" fill="#b20000" />
<circle cx="280.0" cy="1740.0" r="2.0" stroke="#b20000" stroke-width="4.0" fill="#b20000" />
<circle cx="280.0" cy="1820.0" r="2.0" stroke="#b20000" stroke-width="4.0" fill="#b20000" />
<circle cx="280.0" cy="1900.0" r="2.0" stroke="#b20000" stroke-width="4.0" fill="#b20000" />
<circle cx="280.0" cy="1980.0" r="2.0" stroke="#b20000" stroke-width="4.0" fill="#b20000" />
<circle cx="280.0" cy="2060.0" r="2.0" stroke="#b20000" stroke-width="4.0" fill="#b20000" />
<circle cx="280.0" cy="2140.0" r="2.0" stroke="#b20000" stroke-width="4.0" fill="#b20000" />
<circle cx="280.0" cy="2220.0" r="2.0" stroke="#b20000" stroke-width="4.0" fill="#b20000" />
<circle cx="280.0" cy="2300.0" r="2.0" stroke="#b20000" stroke-width="4.0" fill="#b20000" />
<circle cx="280.0" cy="2380.0" r="2.0" stroke="#b20000" stroke-width="4.0" fill="#b20000" />
<circle cx="280.0" cy="2460.0" r="2.0" stroke="#b20000" stroke-width="4.0" fill="#b20000" />
<circle cx="280.0" cy="2540.0" r="2.0" stroke="#b20000" stroke-width="4.0" fill="#b20000" />
<circle cx="280.0" cy="2620.0" r="2.0" stroke="#b20000" stroke-width="4.0" fill="#b20000" />
</g>
<g>
<path d="M 401,156 L 439,165 L 439,195 L 401,204 Z" stroke="#000000" stroke-width="4.0" fill="none"/>
<text text-anchor="start" x="403.0" y="175.5" fill="#808080" style="font-size:18px">0</text>
<circle cx="420.0" cy="200.0" r="2.0" stroke="#0000b2" stroke-width="4.0" fill="#0000b2" />
<circle cx="400.0" cy="160.0" r="2.0" stroke="#0000b2" stroke-width="4.0" fill="#0000b2" />
<circle cx="400.0" cy="200.0" r="2.0" stroke="#0000b2" stroke-width="4.0" fill="#0000b2" />
<circle cx="440.0" cy="180.0" r="2.0" stroke="#b20000" stroke-width="4.0" fill="#b20000" />
</g>
<g>
<path d="M 401,236 L 439,245 L 439,275 L 401,284 Z" stroke="#000000" stroke-width="4.0" fill="none"/>
<text text-anchor="start" x="403.0" y="255.5" fill="#808080" style="font-size:18px">0</text>
<circle cx="420.0" cy="280.0" r="2.0" stroke="#0000b2" stroke-width="4.0" fill="#0000b2" />
<circle cx="400.0" cy="240.0" r="2.0" stroke="#0000b2" stroke-width="4.0" fill="#0000b2" />
<circle cx="400.0" cy="280.0" r="2.0" stroke="#0000b2" stroke-width="4.0" fill="#0000b2" />
<circle cx="440.0" cy="260.0" r="2.0" stroke="#b20000" stroke-width="4.0" fill="#b20000" />
</g>
<g>
<path d="M 401,316 L 439,325 L 439,355 L 401,364 Z" stroke="#000000" stroke-width="4.0" fill="none"/>
<text text-anchor="start" x="403.0" y="335.5" fill="#808080" style="font-size:18px">0</text>
<circle cx="420.0" cy="360.0" r="2.0" stroke="#0000b2" stroke-width="4.0" fill="#0000b2" />
<circle cx="400.0" cy="320.0" r="2.0" stroke="#0000b2" stroke-width="4.0" fill="#0000b2" />
<circle cx="400.0" cy="360.0" r="2.0" stroke="#0000b2" stroke-width="4.0" fill="#0000b2" />
<circle cx="440.0" cy="340.0" r="2.0" stroke="#b20000" stroke-width="4.0" fill="#b20000" />
</g>
<g>
<path d="M 401,396 L 439,405 L 439,435 L 401,444 Z" stroke="#000000" stroke-width="4.0" fill="none"/>
<text text-anchor="start" x="403.0" y="415.5" fill="#808080" style="font-size:18px">0</text>
<circle cx="420.0" cy="440.0" r="2.0" stroke="#0000b2" stroke-width="4.0" fill="#0000b2" />
<circle cx="400.0" cy="400.0" r="2.0" stroke="#0000b2" stroke-width="4.0" fill="#0000b2" />
<circle cx="400.0" cy="440.0" r="2.0" stroke="#0000b2" stroke-width="4.0" fill="#0000b2" />
<circle cx="440.0" cy="420.0" r="2.0" stroke="#b20000" stroke-width="4.0" fill="#b20000" />
</g>
<g>
<path d="M 401,476 L 439,485 L 439,515 L 401,524 Z" stroke="#000000" stroke-width="4.0" fill="none"/>
<text text-anchor="start" x="403.0" y="495.5" fill="#808080" style="font-size:18px">0</text>
<circle cx="420.0" cy="520.0" r="2.0" stroke="#0000b2" stroke-width="4.0" fill="#0000b2" />
<circle cx="400.0" cy="480.0" r="2.0" stroke="#0000b2" stroke-width="4.0" fill="#0000b2" />
<circle cx="400.0" cy="520.0" r="2.0" stroke="#0000b2" stroke-width="4.0" fill="#0000b2" />
<circle cx="440.0" cy="500.0" r="2.0" stroke="#b20000" stroke-width="4.0" fill="#b20000" />
</g>
<g>
<path d="M 401,556 L 439,565 L 439,595 L 401,604 Z" stroke="#000000" stroke-width="4.0" fill="none"/>
<text text-anchor="start" x="403.0" y="575.5" fill="#808080" style="font-size:18px">0</text>
<circle cx="420.0" cy="600.0" r="2.0" stroke="#0000b2" stroke-width="4.0" fill="#0000b2" />
<circle cx="400.0" cy="560.0" r="2.0" stroke="#0000b2" stroke-width="4.0" fill="#0000b2" />
<circle cx="400.0" cy="600.0" r="2.0" stroke="#0000b2" stroke-width="4.0" fill="#0000b2" />
<circle cx="440.0" cy="580.0" r="2.0" stroke="#b20000" stroke-width="4.0" fill="#b20000" />
</g>
<g>
<path d="M 401,636 L 439,645 L 439,675 L 401,684 Z" stroke="#000000" stroke-width="4.0" fill="none"/>
<text text-anchor="start" x="403.0" y="655.5" fill="#808080" style="font-size:18px">0</text>
<circle cx="420.0" cy="680.0" r="2.0" stroke="#0000b2" stroke-width="4.0" fill="#0000b2" />
<circle cx="400.0" cy="640.0" r="2.0" stroke="#0000b2" stroke-width="4.0" fill="#0000b2" />
<circle cx="400.0" cy="680.0" r="2.0" stroke="#0000b2" stroke-width="4.0" fill="#0000b2" />
<circle cx="440.0" cy="660.0" r="2.0" stroke="#b20000" stroke-width="4.0" fill="#b20000" />
</g>
<g>
<path d="M 401,716 L 439,725 L 439,755 L 401,764 Z" stroke="#000000" stroke-width="4.0" fill="none"/>
<text text-anchor="start" x="403.0" y="735.5" fill="#808080" style="font-size:18px">0</text>
<circle cx="420.0" cy="760.0" r="2.0" stroke="#0000b2" stroke-width="4.0" fill="#0000b2" />
<circle cx="400.0" cy="720.0" r="2.0" stroke="#0000b2" stroke-width="4.0" fill="#0000b2" />
<circle cx="400.0" cy="760.0" r="2.0" stroke="#0000b2" stroke-width="4.0" fill="#0000b2" />
<circle cx="440.0" cy="740.0" r="2.0" stroke="#b20000" stroke-width="4.0" fill="#b20000" />
</g>
<g>
<path d="M 401,796 L 439,805 L 439,835 L 401,844 Z" stroke="#000000" stroke-width="4.0" fill="none"/>
<text text-anchor="start" x="403.0" y="815.5" fill="#808080" style="font-size:18px">0</text>
<circle cx="420.0" cy="840.0" r="2.0" stroke="#0000b2" stroke-width="4.0" fill="#0000b2" />
<circle cx="400.0" cy="800.0" r="2.0" stroke="#0000b2" stroke-width="4.0" fill="#0000b2" />
<circle cx="400.0" cy="840.0" r="2.0" stroke="#0000b2" stroke-width="4.0" fill="#0000b2" />
<circle cx="440.0" cy="820.0" r="2.0" stroke="#b20000" stroke-width="4.0" fill="#b20000" />
</g>
<g>
<path d="M 401,876 L 439,885 L 439,915 L 401,924 Z" stroke="#000000" stroke-width="4.0" fill="none"/>
<text text-anchor="start" x="403.0" y="895.5" fill="#808080" style="font-size:18px">0</text>
<circle cx="420.0" cy="920.0" r="2.0" stroke="#0000b2" stroke-width="4.0" fill="#0000b2" />
<circle cx="400.0" cy="880.0" r="2.0" stroke="#0000b2" stroke-width="4.0" fill="#0000b2" />
<circle cx="400.0" cy="920.0" r="2.0" stroke="#0000b2" stroke-width="4.0" fill="#0000b2" />
<circle cx="440.0" cy="900.0" r="2.0" stroke="#b20000" stroke-width="4.0" fill="#b20000" />
</g>
<g>
<path d="M 401,956 L 439,965 L 439,995 L 401,1004 Z" stroke="#000000" stroke-width="4.0" fill="none"/>
<text text-anchor="start" x="403.0" y="975.5" fill="#808080" style="font-size:18px">0</text>
<circle cx="420.0" cy="1000.0" r="2.0" stroke="#0000b2" stroke-width="4.0" fill="#0000b2" />
<circle cx="400.0" cy="960.0" r="2.0" stroke="#0000b2" stroke-width="4.0" fill="#0000b2" />
<circle cx="400.0" cy="1000.0" r="2.0" stroke="#0000b2" stroke-width="4.0" fill="#0000b2" />
<circle cx="440.0" cy="980.0" r="2.0" stroke="#b20000" stroke-width="4.0" fill="#b20000" />
</g>
<g>
<path d="M 401,1036 L 439,1045 L 439,1075 L 401,1084 Z" stroke="#000000" stroke-width="4.0" fill="none"/>
<text text-anchor="start" x="403.0" y="1055.5" fill="#808080" style="font-size:18px">0</text>
<circle cx="420.0" cy="1080.0" r="2.0" stroke="#0000b2" stroke-width="4.0" fill="#0000b2" />
<circle cx="400.0" cy="1040.0" r="2.0" stroke="#0000b2" stroke-width="4.0" fill="#0000b2" />
<circle cx="400.0" cy="1080.0" r="2.0" stroke="#0000b2" stroke-width="4.0" fill="#0000b2" />
<circle cx="440.0" cy="1060.0" r="2.0" stroke="#b20000" stroke-width="4.0" fill="#b20000" />
</g>
<g>
<path d="M 401,1116 L 439,1125 L 439,1155 L 401,1164 Z" stroke="#000000" stroke-width="4.0" fill="none"/>
<text text-anchor="start" x="403.0" y="1135.5" fill="#808080" style="font-size:18px">0</text>
<circle cx="420.0" cy="1160.0" r="2.0" stroke="#0000b2" stroke-width="4.0" fill="#0000b2" />
<circle cx="400.0" cy="1120.0" r="2.0" stroke="#0000b2" stroke-width="4.0" fill="#0000b2" />
<circle cx="400.0" cy="1160.0" r="2.0" stroke="#0000b2" stroke-width="4.0" fill="#0000b2" />
<circle cx="440.0" cy="1140.0" r="2.0" stroke="#b20000" stroke-width="4.0" fill="#b20000" />
</g>
<g>
<path d="M 401,1196 L 439,1205 L 439,1235 L 401,1244 Z" stroke="#000000" stroke-width="4.0" fill="none"/>
<text text-anchor="start" x="403.0" y="1215.5" fill="#808080" style="font-size:18px">0</text>
<circle cx="420.0" cy="1240.0" r="2.0" stroke="#0000b2" stroke-width="4.0" fill="#0000b2" />
<circle cx="400.0" cy="1200.0" r="2.0" stroke="#0000b2" stroke-width="4.0" fill="#0000b2" />
<circle cx="400.0" cy="1240.0" r="2.0" stroke="#0000b2" stroke-width="4.0" fill="#0000b2" />
<circle cx="440.0" cy="1220.0" r="2.0" stroke="#b20000" stroke-width="4.0" fill="#b20000" />
</g>
<g>
<path d="M 401,1276 L 439,1285 L 439,1315 L 401,1324 Z" stroke="#000000" stroke-width="4.0" fill="none"/>
<text text-anchor="start" x="403.0" y="1295.5" fill="#808080" style="font-size:18px">0</text>
<circle cx="420.0" cy="1320.0" r="2.0" stroke="#0000b2" stroke-width="4.0" fill="#0000b2" />
<circle cx="400.0" cy="1280.0" r="2.0" stroke="#0000b2" stroke-width="4.0" fill="#0000b2" />
<circle cx="400.0" cy="1320.0" r="2.0" stroke="#0000b2" stroke-width="4.0" fill="#0000b2" />
<circle cx="440.0" cy="1300.0" r="2.0" stroke="#b20000" stroke-width="4.0" fill="#b20000" />
</g>
<g>
<path d="M 401,1356 L 439,1365 L 439,1395 L 401,1404 Z" stroke="#000000" stroke-width="4.0" fill="none"/>
<text text-anchor="start" x="403.0" y="1375.5" fill="#808080" style="font-size:18px">0</text>
<circle cx="420.0" cy="1400.0" r="2.0" stroke="#0000b2" stroke-width="4.0" fill="#0000b2" />
<circle cx="400.0" cy="1360.0" r="2.0" stroke="#0000b2" stroke-width="4.0" fill="#0000b2" />
<circle cx="400.0" cy="1400.0" r="2.0" stroke="#0000b2" stroke-width="4.0" fill="#0000b2" />
<circle cx="440.0" cy="1380.0" r="2.0" stroke="#b20000" stroke-width="4.0" fill="#b20000" />
</g>
<g>
<text text-anchor="end" x="1078.0" y="177.0" fill="#808080" style="font-size:12px">0</text>
<text text-anchor="end" x="1078.0" y="257.0" fill="#808080" style="font-size:12px">1</text>
<text text-anchor="end" x="1078.0" y="337.0" fill="#808080" style="font-size:12px">2</text>
<text text-anchor="end" x="1078.0" y="417.0" fill="#808080" style="font-size:12px">3</text>
<text text-anchor="end" x="1078.0" y="497.0" fill="#808080" style="font-size:12px">4</text>
<text text-anchor="end" x="1078.0" y="577.0" fill="#808080" style="font-size:12px">5</text>
<text text-anchor="end" x="1078.0" y="657.0" fill="#808080" style="font-size:12px">6</text>
<text text-anchor="end" x="1078.0" y="737.0" fill="#808080" style="font-size:12px">7</text>
<text text-anchor="end" x="1078.0" y="817.0" fill="#808080" style="font-size:12px">8</text>
<text text-anchor="end" x="1078.0" y="897.0" fill="#808080" style="font-size:12px">9</text>
<text text-anchor="end" x="1078.0" y="977.0" fill="#808080" style="font-size:12px">10</text>
<text text-anchor="end" x="1078.0" y="1057.0" fill="#808080" style="font-size:12px">11</text>
<text text-anchor="end" x="1078.0" y="1137.0" fill="#808080" style="font-size:12px">12</text>
<text text-anchor="end" x="1078.0" y="1217.0" fill="#808080" style="font-size:12px">13</text>
<text text-anchor="end" x="1078.0" y="1297.0" fill="#808080" style="font-size:12px">14</text>
<text text-anchor="end" x="1078.0" y="1377.0" fill="#808080" style="font-size:12px">15</text>
<text text-anchor="start" x="1102.0" y="177.0" fill="#808080" style="font-size:12px">0-15</text>
<path d="M 1088,178 L 1092,178 L 1092,1382 L 1088,1382 Z" stroke="#000000" stroke-width="4.0" fill="#000000" fill-opacity="1.0"/>
<circle cx="1080.0" cy="180.0" r="2.0" stroke="#0000b2" stroke-width="4.0" fill="#0000b2" />
<circle cx="1080.0" cy="260.0" r="2.0" stroke="#0000b2" stroke-width="4.0" fill="#0000b2" />
<circle cx="1080.0" cy="340.0" r="2.0" stroke="#0000b2" stroke-width="4.0" fill="#0000b2" />
<circle cx="1080.0" cy="420.0" r="2.0" stroke="#0000b2" stroke-width="4.0" fill="#0000b2" />
<circle cx="1080.0" cy="500.0" r="2.0" stroke="#0000b2" stroke-width="4.0" fill="#0000b2" />
<circle cx="1080.0" cy="580.0" r="2.0" stroke="#0000b2" stroke-width="4.0" fill="#0000b2" />
<circle cx="1080.0" cy="660.0" r="2.0" stroke="#0000b2" stroke-width="4.0" fill="#0000b2" />
<circle cx="1080.0" cy="740.0" r="2.0" stroke="#0000b2" stroke-width="4.0" fill="#0000b2" />
<circle cx="1080.0" cy="820.0" r="2.0" stroke="#0000b2" stroke-width="4.0" fill="#0000b2" />
<circle cx="1080.0" cy="900.0" r="2.0" stroke="#0000b2" stroke-width="4.0" fill="#0000b2" />
<circle cx="1080.0" cy="980.0" r="2.0" stroke="#0000b2" stroke-width="4.0" fill="#0000b2" />
<circle cx="1080.0" cy="1060.0" r="2.0" stroke="#0000b2" stroke-width="4.0" fill="#0000b2" />
<circle cx="1080.0" cy="1140.0" r="2.0" stroke="#0000b2" stroke-width="4.0" fill="#0000b2" />
<circle cx="1080.0" cy="1220.0" r="2.0" stroke="#0000b2" stroke-width="4.0" fill="#0000b2" />
<circle cx="1080.0" cy="1300.0" r="2.0" stroke="#0000b2" stroke-width="4.0" fill="#0000b2" />
<circle cx="1080.0" cy="1380.0" r="2.0" stroke="#0000b2" stroke-width="4.0" fill="#0000b2" />
<circle cx="1100.0" cy="180.0" r="2.0" stroke="#b20000" stroke-width="4.0" fill="#b20000" />
</g>
<g>
<circle cx="1256.0" cy="160.0" r="9.0" stroke="#000000" stroke-width="4.0" fill="none" />
<circle cx="1256.0" cy="160.0" r="15.0" stroke="#000000" stroke-width="4.0" fill="none" />
<text text-anchor="start" x="1285.0" y="169.0" fill="#000000" style="font-size:24px"><tspan style="font-style:italic;">OUT(16 BIT)</tspan></text>
<circle cx="1240.0" cy="160.0" r="2.0" stroke="#0000b2" stroke-width="4.0" fill="#0000b2" />
</g>
<g>
<path d="M 995,89 L 995,119 L 965,119 L 965,89 Z" stroke="#000000" stroke-width="4.0" fill="none"/>
<circle cx="980.0" cy="104.0" r="9.0" stroke="#000000" stroke-width="4.0" fill="none" />
<text text-anchor="start" x="980.0" y="84.0" fill="#000000" style="font-size:24px" transform="rotate(-90,980.0,75.0)" ><tspan style="font-style:italic;">SEL</tspan></text>
<circle cx="980.0" cy="120.0" r="2.0" stroke="#b20000" stroke-width="4.0" fill="#b20000" />
</g>
</g>
</svg>