<?xml version="1.0" encoding="UTF-8" standalone="no"?>
<!-- Created with Digital by H.Neemann -->
<!-- created: Mon Sep 06 19:30:54 MST 2021 -->

<svg
   xmlns:svg="http://www.w3.org/2000/svg"
   xmlns="http://www.w3.org/2000/svg"
   width="165.15mm"
   height="202.65mm"
   viewBox="165 -57 1101 1351">
<g stroke-linecap="square">
<path d="M 480,20 L 490,20 L 500,20" stroke="#000000" stroke-width="4.0" fill="none"/>
<path d="M 500,100 L 490,100" stroke="#000000" stroke-width="4.0" fill="none"/>
<path d="M 500,180 L 490,180" stroke="#000000" stroke-width="4.0" fill="none"/>
<path d="M 500,260 L 490,260" stroke="#000000" stroke-width="4.0" fill="none"/>
<path d="M 500,340 L 490,340" stroke="#000000" stroke-width="4.0" fill="none"/>
<path d="M 500,420 L 490,420" stroke="#000000" stroke-width="4.0" fill="none"/>
<path d="M 500,500 L 490,500" stroke="#000000" stroke-width="4.0" fill="none"/>
<path d="M 500,580 L 490,580" stroke="#000000" stroke-width="4.0" fill="none"/>
<path d="M 500,660 L 490,660" stroke="#000000" stroke-width="4.0" fill="none"/>
<path d="M 500,740 L 490,740" stroke="#000000" stroke-width="4.0" fill="none"/>
<path d="M 500,820 L 490,820" stroke="#000000" stroke-width="4.0" fill="none"/>
<path d="M 500,900 L 490,900" stroke="#000000" stroke-width="4.0" fill="none"/>
<path d="M 500,980 L 490,980" stroke="#000000" stroke-width="4.0" fill="none"/>
<path d="M 500,1060 L 490,1060" stroke="#000000" stroke-width="4.0" fill="none"/>
<path d="M 500,1140 L 490,1140" stroke="#000000" stroke-width="4.0" fill="none"/>
<path d="M 500,1220 L 490,1220" stroke="#000000" stroke-width="4.0" fill="none"/>
<path d="M 420,40 L 430,40 L 440,40" stroke="#000000" stroke-width="4.0" fill="none"/>
<path d="M 440,120 L 430,120" stroke="#000000" stroke-width="4.0" fill="none"/>
<path d="M 440,200 L 430,200" stroke="#000000" stroke-width="4.0" fill="none"/>
<path d="M 440,280 L 430,280" stroke="#000000" stroke-width="4.0" fill="none"/>
<path d="M 440,360 L 430,360" stroke="#000000" stroke-width="4.0" fill="none"/>
<path d="M 440,440 L 430,440" stroke="#000000" stroke-width="4.0" fill="none"/>
<path d="M 440,520 L 430,520" stroke="#000000" stroke-width="4.0" fill="none"/>
<path d="M 440,600 L 430,600" stroke="#000000" stroke-width="4.0" fill="none"/>
<path d="M 440,680 L 430,680" stroke="#000000" stroke-width="4.0" fill="none"/>
<path d="M 440,760 L 430,760" stroke="#000000" stroke-width="4.0" fill="none"/>
<path d="M 440,840 L 430,840" stroke="#000000" stroke-width="4.0" fill="none"/>
<path d="M 440,920 L 430,920" stroke="#000000" stroke-width="4.0" fill="none"/>
<path d="M 440,1000 L 430,1000" stroke="#000000" stroke-width="4.0" fill="none"/>
<path d="M 440,1080 L 430,1080" stroke="#000000" stroke-width="4.0" fill="none"/>
<path d="M 440,1160 L 430,1160" stroke="#000000" stroke-width="4.0" fill="none"/>
<path d="M 440,1240 L 430,1240" stroke="#000000" stroke-width="4.0" fill="none"/>
<path d="M 960,20 L 970,20 L 980,20" stroke="#000000" stroke-width="4.0" fill="none"/>
<path d="M 960,100 L 970,100" stroke="#000000" stroke-width="4.0" fill="none"/>
<path d="M 960,180 L 970,180" stroke="#000000" stroke-width="4.0" fill="none"/>
<path d="M 960,260 L 970,260" stroke="#000000" stroke-width="4.0" fill="none"/>
<path d="M 960,340 L 970,340" stroke="#000000" stroke-width="4.0" fill="none"/>
<path d="M 960,420 L 970,420" stroke="#000000" stroke-width="4.0" fill="none"/>
<path d="M 960,500 L 970,500" stroke="#000000" stroke-width="4.0" fill="none"/>
<path d="M 960,580 L 970,580" stroke="#000000" stroke-width="4.0" fill="none"/>
<path d="M 960,660 L 970,660" stroke="#000000" stroke-width="4.0" fill="none"/>
<path d="M 960,740 L 970,740" stroke="#000000" stroke-width="4.0" fill="none"/>
<path d="M 960,820 L 970,820" stroke="#000000" stroke-width="4.0" fill="none"/>
<path d="M 960,900 L 970,900" stroke="#000000" stroke-width="4.0" fill="none"/>
<path d="M 960,980 L 970,980" stroke="#000000" stroke-width="4.0" fill="none"/>
<path d="M 960,1060 L 970,1060" stroke="#000000" stroke-width="4.0" fill="none"/>
<path d="M 960,1140 L 970,1140" stroke="#000000" stroke-width="4.0" fill="none"/>
<path d="M 960,1220 L 970,1220" stroke="#000000" stroke-width="4.0" fill="none"/>
<path d="M 360,0 L 420,0 L 420,40" stroke="#0000b2" stroke-width="4.0" fill="none"/>
<path d="M 500,260 L 560,260" stroke="#0000b2" stroke-width="4.0" fill="none"/>
<path d="M 620,260 L 960,260" stroke="#0000b2" stroke-width="4.0" fill="none"/>
<path d="M 500,900 L 560,900" stroke="#0000b2" stroke-width="4.0" fill="none"/>
<path d="M 620,900 L 960,900" stroke="#0000b2" stroke-width="4.0" fill="none"/>
<path d="M 440,520 L 560,520" stroke="#0000b2" stroke-width="4.0" fill="none"/>
<path d="M 620,520 L 780,520 L 780,640 L 520,640 L 520,620 L 560,620" stroke="#0000b2" stroke-width="4.0" fill="none"/>
<path d="M 440,1160 L 560,1160" stroke="#0000b2" stroke-width="4.0" fill="none"/>
<path d="M 620,1160 L 940,1160 L 940,1280 L 520,1280 L 520,1260 L 560,1260" stroke="#0000b2" stroke-width="4.0" fill="none"/>
<path d="M 500,20 L 560,20" stroke="#0000b2" stroke-width="4.0" fill="none"/>
<path d="M 980,20 L 1060,20" stroke="#0000b2" stroke-width="4.0" fill="none"/>
<path d="M 620,20 L 960,20" stroke="#0000b2" stroke-width="4.0" fill="none"/>
<path d="M 500,660 L 560,660" stroke="#0000b2" stroke-width="4.0" fill="none"/>
<path d="M 620,660 L 960,660" stroke="#0000b2" stroke-width="4.0" fill="none"/>
<path d="M 440,280 L 560,280" stroke="#0000b2" stroke-width="4.0" fill="none"/>
<path d="M 620,280 L 720,280 L 720,400 L 520,400 L 520,380 L 560,380" stroke="#0000b2" stroke-width="4.0" fill="none"/>
<path d="M 440,920 L 560,920" stroke="#0000b2" stroke-width="4.0" fill="none"/>
<path d="M 620,920 L 880,920 L 880,1040 L 520,1040 L 520,1020 L 560,1020" stroke="#0000b2" stroke-width="4.0" fill="none"/>
<path d="M 500,420 L 560,420" stroke="#0000b2" stroke-width="4.0" fill="none"/>
<path d="M 620,420 L 960,420" stroke="#0000b2" stroke-width="4.0" fill="none"/>
<path d="M 500,1060 L 560,1060" stroke="#0000b2" stroke-width="4.0" fill="none"/>
<path d="M 620,1060 L 960,1060" stroke="#0000b2" stroke-width="4.0" fill="none"/>
<path d="M 420,-40 L 440,-40 L 440,20 L 480,20" stroke="#0000b2" stroke-width="4.0" fill="none"/>
<path d="M 440,40 L 560,40" stroke="#0000b2" stroke-width="4.0" fill="none"/>
<path d="M 620,40 L 660,40 L 660,160 L 520,160 L 520,140 L 560,140" stroke="#0000b2" stroke-width="4.0" fill="none"/>
<path d="M 440,680 L 560,680" stroke="#0000b2" stroke-width="4.0" fill="none"/>
<path d="M 620,680 L 820,680 L 820,800 L 520,800 L 520,780 L 560,780" stroke="#0000b2" stroke-width="4.0" fill="none"/>
<path d="M 500,180 L 560,180" stroke="#0000b2" stroke-width="4.0" fill="none"/>
<path d="M 620,180 L 960,180" stroke="#0000b2" stroke-width="4.0" fill="none"/>
<path d="M 500,820 L 560,820" stroke="#0000b2" stroke-width="4.0" fill="none"/>
<path d="M 620,820 L 960,820" stroke="#0000b2" stroke-width="4.0" fill="none"/>
<path d="M 440,440 L 560,440" stroke="#0000b2" stroke-width="4.0" fill="none"/>
<path d="M 620,440 L 760,440 L 760,560 L 520,560 L 520,540 L 560,540" stroke="#0000b2" stroke-width="4.0" fill="none"/>
<path d="M 440,1080 L 560,1080" stroke="#0000b2" stroke-width="4.0" fill="none"/>
<path d="M 620,1080 L 920,1080 L 920,1200 L 520,1200 L 520,1180 L 560,1180" stroke="#0000b2" stroke-width="4.0" fill="none"/>
<path d="M 500,580 L 560,580" stroke="#0000b2" stroke-width="4.0" fill="none"/>
<path d="M 620,580 L 960,580" stroke="#0000b2" stroke-width="4.0" fill="none"/>
<path d="M 500,1220 L 560,1220" stroke="#0000b2" stroke-width="4.0" fill="none"/>
<path d="M 620,1220 L 960,1220" stroke="#0000b2" stroke-width="4.0" fill="none"/>
<path d="M 440,200 L 560,200" stroke="#0000b2" stroke-width="4.0" fill="none"/>
<path d="M 620,200 L 700,200 L 700,320 L 520,320 L 520,300 L 560,300" stroke="#0000b2" stroke-width="4.0" fill="none"/>
<path d="M 440,840 L 560,840" stroke="#0000b2" stroke-width="4.0" fill="none"/>
<path d="M 620,840 L 860,840 L 860,960 L 520,960 L 520,940 L 560,940" stroke="#0000b2" stroke-width="4.0" fill="none"/>
<path d="M 500,340 L 560,340" stroke="#0000b2" stroke-width="4.0" fill="none"/>
<path d="M 620,340 L 960,340" stroke="#0000b2" stroke-width="4.0" fill="none"/>
<path d="M 500,980 L 560,980" stroke="#0000b2" stroke-width="4.0" fill="none"/>
<path d="M 620,980 L 960,980" stroke="#0000b2" stroke-width="4.0" fill="none"/>
<path d="M 440,600 L 560,600" stroke="#0000b2" stroke-width="4.0" fill="none"/>
<path d="M 440,1240 L 560,1240" stroke="#0000b2" stroke-width="4.0" fill="none"/>
<path d="M 500,100 L 560,100" stroke="#0000b2" stroke-width="4.0" fill="none"/>
<path d="M 620,100 L 960,100" stroke="#0000b2" stroke-width="4.0" fill="none"/>
<path d="M 500,740 L 560,740" stroke="#0000b2" stroke-width="4.0" fill="none"/>
<path d="M 620,740 L 960,740" stroke="#0000b2" stroke-width="4.0" fill="none"/>
<path d="M 440,360 L 560,360" stroke="#0000b2" stroke-width="4.0" fill="none"/>
<path d="M 440,1000 L 560,1000" stroke="#0000b2" stroke-width="4.0" fill="none"/>
<path d="M 500,500 L 560,500" stroke="#0000b2" stroke-width="4.0" fill="none"/>
<path d="M 620,500 L 960,500" stroke="#0000b2" stroke-width="4.0" fill="none"/>
<path d="M 500,1140 L 560,1140" stroke="#0000b2" stroke-width="4.0" fill="none"/>
<path d="M 620,1140 L 960,1140" stroke="#0000b2" stroke-width="4.0" fill="none"/>
<path d="M 440,120 L 560,120" stroke="#0000b2" stroke-width="4.0" fill="none"/>
<path d="M 620,120 L 680,120 L 680,240 L 520,240 L 520,220 L 560,220" stroke="#0000b2" stroke-width="4.0" fill="none"/>
<path d="M 440,760 L 560,760" stroke="#0000b2" stroke-width="4.0" fill="none"/>
<path d="M 620,760 L 840,760 L 840,880 L 520,880 L 520,860 L 560,860" stroke="#0000b2" stroke-width="4.0" fill="none"/>
<path d="M 560,460 L 520,460 L 520,480 L 740,480 L 740,360 L 620,360" stroke="#0000b2" stroke-width="4.0" fill="none"/>
<path d="M 560,700 L 520,700 L 520,720 L 800,720 L 800,600 L 620,600" stroke="#0000b2" stroke-width="4.0" fill="none"/>
<path d="M 560,1100 L 520,1100 L 520,1120 L 900,1120 L 900,1000 L 620,1000" stroke="#0000b2" stroke-width="4.0" fill="none"/>
<g>
</g>
<g>
<path d="M 389,-55 L 419,-55 L 419,-25 L 389,-25 Z" stroke="#000000" stroke-width="4.0" fill="none"/>
<circle cx="404.0" cy="-40.0" r="9.0" stroke="#000000" stroke-width="4.0" fill="none" />
<text text-anchor="end" x="375.0" y="-31.0" fill="#000000" style="font-size:24px"><tspan style="font-style:italic;">IN A(16-BIT)</tspan></text>
<circle cx="420.0" cy="-40.0" r="2.0" stroke="#b20000" stroke-width="4.0" fill="#b20000" />
</g>
<g>
<text text-anchor="end" x="478.0" y="17.0" fill="#808080" style="font-size:12px">0-15</text>
<text text-anchor="start" x="502.0" y="17.0" fill="#808080" style="font-size:12px">0</text>
<text text-anchor="start" x="502.0" y="97.0" fill="#808080" style="font-size:12px">1</text>
<text text-anchor="start" x="502.0" y="177.0" fill="#808080" style="font-size:12px">2</text>
<text text-anchor="start" x="502.0" y="257.0" fill="#808080" style="font-size:12px">3</text>
<text text-anchor="start" x="502.0" y="337.0" fill="#808080" style="font-size:12px">4</text>
<text text-anchor="start" x="502.0" y="417.0" fill="#808080" style="font-size:12px">5</text>
<text text-anchor="start" x="502.0" y="497.0" fill="#808080" style="font-size:12px">6</text>
<text text-anchor="start" x="502.0" y="577.0" fill="#808080" style="font-size:12px">7</text>
<text text-anchor="start" x="502.0" y="657.0" fill="#808080" style="font-size:12px">8</text>
<text text-anchor="start" x="502.0" y="737.0" fill="#808080" style="font-size:12px">9</text>
<text text-anchor="start" x="502.0" y="817.0" fill="#808080" style="font-size:12px">10</text>
<text text-anchor="start" x="502.0" y="897.0" fill="#808080" style="font-size:12px">11</text>
<text text-anchor="start" x="502.0" y="977.0" fill="#808080" style="font-size:12px">12</text>
<text text-anchor="start" x="502.0" y="1057.0" fill="#808080" style="font-size:12px">13</text>
<text text-anchor="start" x="502.0" y="1137.0" fill="#808080" style="font-size:12px">14</text>
<text text-anchor="start" x="502.0" y="1217.0" fill="#808080" style="font-size:12px">15</text>
<path d="M 488,18 L 492,18 L 492,1222 L 488,1222 Z" stroke="#000000" stroke-width="4.0" fill="#000000" fill-opacity="1.0"/>
<circle cx="480.0" cy="20.0" r="2.0" stroke="#0000b2" stroke-width="4.0" fill="#0000b2" />
<circle cx="500.0" cy="20.0" r="2.0" stroke="#b20000" stroke-width="4.0" fill="#b20000" />
<circle cx="500.0" cy="100.0" r="2.0" stroke="#b20000" stroke-width="4.0" fill="#b20000" />
<circle cx="500.0" cy="180.0" r="2.0" stroke="#b20000" stroke-width="4.0" fill="#b20000" />
<circle cx="500.0" cy="260.0" r="2.0" stroke="#b20000" stroke-width="4.0" fill="#b20000" />
<circle cx="500.0" cy="340.0" r="2.0" stroke="#b20000" stroke-width="4.0" fill="#b20000" />
<circle cx="500.0" cy="420.0" r="2.0" stroke="#b20000" stroke-width="4.0" fill="#b20000" />
<circle cx="500.0" cy="500.0" r="2.0" stroke="#b20000" stroke-width="4.0" fill="#b20000" />
<circle cx="500.0" cy="580.0" r="2.0" stroke="#b20000" stroke-width="4.0" fill="#b20000" />
<circle cx="500.0" cy="660.0" r="2.0" stroke="#b20000" stroke-width="4.0" fill="#b20000" />
<circle cx="500.0" cy="740.0" r="2.0" stroke="#b20000" stroke-width="4.0" fill="#b20000" />
<circle cx="500.0" cy="820.0" r="2.0" stroke="#b20000" stroke-width="4.0" fill="#b20000" />
<circle cx="500.0" cy="900.0" r="2.0" stroke="#b20000" stroke-width="4.0" fill="#b20000" />
<circle cx="500.0" cy="980.0" r="2.0" stroke="#b20000" stroke-width="4.0" fill="#b20000" />
<circle cx="500.0" cy="1060.0" r="2.0" stroke="#b20000" stroke-width="4.0" fill="#b20000" />
<circle cx="500.0" cy="1140.0" r="2.0" stroke="#b20000" stroke-width="4.0" fill="#b20000" />
<circle cx="500.0" cy="1220.0" r="2.0" stroke="#b20000" stroke-width="4.0" fill="#b20000" />
</g>
<g>
<path d="M 329,-15 L 359,-15 L 359,15 L 329,15 Z" stroke="#000000" stroke-width="4.0" fill="none"/>
<circle cx="344.0" cy="0.0" r="9.0" stroke="#000000" stroke-width="4.0" fill="none" />
<text text-anchor="end" x="315.0" y="9.0" fill="#000000" style="font-size:24px"><tspan style="font-style:italic;">IN B(16-BIT)</tspan></text>
<circle cx="360.0" cy="0.0" r="2.0" stroke="#b20000" stroke-width="4.0" fill="#b20000" />
</g>
<g>
<path d="M 561,1210 L 619,1210 L 619,1270 L 561,1270 Z" stroke="#000000" stroke-width="4.0" fill="none"/>
<text text-anchor="start" x="564.0" y="1226.75" fill="#808080" style="font-size:18px">a</text>
<text text-anchor="start" x="564.0" y="1246.75" fill="#808080" style="font-size:18px">b</text>
<text text-anchor="start" x="564.0" y="1266.75" fill="#808080" style="font-size:18px">c<tspan style="font-size:80%;baseline-shift:sub;">i</tspan></text>
<text text-anchor="end" x="616.0" y="1226.75" fill="#808080" style="font-size:18px">s</text>
<text text-anchor="end" x="616.0" y="1246.75" fill="#808080" style="font-size:18px">c<tspan style="font-size:80%;baseline-shift:sub;">o</tspan></text>
<text text-anchor="middle" x="590.0" y="1287.5" fill="#808080" style="font-size:18px">Add</text>
<circle cx="560.0" cy="1220.0" r="2.0" stroke="#0000b2" stroke-width="4.0" fill="#0000b2" />
<circle cx="560.0" cy="1240.0" r="2.0" stroke="#0000b2" stroke-width="4.0" fill="#0000b2" />
<circle cx="560.0" cy="1260.0" r="2.0" stroke="#0000b2" stroke-width="4.0" fill="#0000b2" />
<circle cx="620.0" cy="1220.0" r="2.0" stroke="#b20000" stroke-width="4.0" fill="#b20000" />
<circle cx="620.0" cy="1240.0" r="2.0" stroke="#b20000" stroke-width="4.0" fill="#b20000" />
</g>
<g>
<text text-anchor="end" x="418.0" y="37.0" fill="#808080" style="font-size:12px">0-15</text>
<text text-anchor="start" x="442.0" y="37.0" fill="#808080" style="font-size:12px">0</text>
<text text-anchor="start" x="442.0" y="117.0" fill="#808080" style="font-size:12px">1</text>
<text text-anchor="start" x="442.0" y="197.0" fill="#808080" style="font-size:12px">2</text>
<text text-anchor="start" x="442.0" y="277.0" fill="#808080" style="font-size:12px">3</text>
<text text-anchor="start" x="442.0" y="357.0" fill="#808080" style="font-size:12px">4</text>
<text text-anchor="start" x="442.0" y="437.0" fill="#808080" style="font-size:12px">5</text>
<text text-anchor="start" x="442.0" y="517.0" fill="#808080" style="font-size:12px">6</text>
<text text-anchor="start" x="442.0" y="597.0" fill="#808080" style="font-size:12px">7</text>
<text text-anchor="start" x="442.0" y="677.0" fill="#808080" style="font-size:12px">8</text>
<text text-anchor="start" x="442.0" y="757.0" fill="#808080" style="font-size:12px">9</text>
<text text-anchor="start" x="442.0" y="837.0" fill="#808080" style="font-size:12px">10</text>
<text text-anchor="start" x="442.0" y="917.0" fill="#808080" style="font-size:12px">11</text>
<text text-anchor="start" x="442.0" y="997.0" fill="#808080" style="font-size:12px">12</text>
<text text-anchor="start" x="442.0" y="1077.0" fill="#808080" style="font-size:12px">13</text>
<text text-anchor="start" x="442.0" y="1157.0" fill="#808080" style="font-size:12px">14</text>
<text text-anchor="start" x="442.0" y="1237.0" fill="#808080" style="font-size:12px">15</text>
<path d="M 428,38 L 432,38 L 432,1242 L 428,1242 Z" stroke="#000000" stroke-width="4.0" fill="#000000" fill-opacity="1.0"/>
<circle cx="420.0" cy="40.0" r="2.0" stroke="#0000b2" stroke-width="4.0" fill="#0000b2" />
<circle cx="440.0" cy="40.0" r="2.0" stroke="#b20000" stroke-width="4.0" fill="#b20000" />
<circle cx="440.0" cy="120.0" r="2.0" stroke="#b20000" stroke-width="4.0" fill="#b20000" />
<circle cx="440.0" cy="200.0" r="2.0" stroke="#b20000" stroke-width="4.0" fill="#b20000" />
<circle cx="440.0" cy="280.0" r="2.0" stroke="#b20000" stroke-width="4.0" fill="#b20000" />
<circle cx="440.0" cy="360.0" r="2.0" stroke="#b20000" stroke-width="4.0" fill="#b20000" />
<circle cx="440.0" cy="440.0" r="2.0" stroke="#b20000" stroke-width="4.0" fill="#b20000" />
<circle cx="440.0" cy="520.0" r="2.0" stroke="#b20000" stroke-width="4.0" fill="#b20000" />
<circle cx="440.0" cy="600.0" r="2.0" stroke="#b20000" stroke-width="4.0" fill="#b20000" />
<circle cx="440.0" cy="680.0" r="2.0" stroke="#b20000" stroke-width="4.0" fill="#b20000" />
<circle cx="440.0" cy="760.0" r="2.0" stroke="#b20000" stroke-width="4.0" fill="#b20000" />
<circle cx="440.0" cy="840.0" r="2.0" stroke="#b20000" stroke-width="4.0" fill="#b20000" />
<circle cx="440.0" cy="920.0" r="2.0" stroke="#b20000" stroke-width="4.0" fill="#b20000" />
<circle cx="440.0" cy="1000.0" r="2.0" stroke="#b20000" stroke-width="4.0" fill="#b20000" />
<circle cx="440.0" cy="1080.0" r="2.0" stroke="#b20000" stroke-width="4.0" fill="#b20000" />
<circle cx="440.0" cy="1160.0" r="2.0" stroke="#b20000" stroke-width="4.0" fill="#b20000" />
<circle cx="440.0" cy="1240.0" r="2.0" stroke="#b20000" stroke-width="4.0" fill="#b20000" />
</g>
<g>
<path d="M 561,6 L 619,6 L 619,54 L 561,54 Z" stroke="#ffffb4" stroke-width="0.0" fill="#ffffb4" fill-opacity="0.7843137254901961"/>
<path d="M 561,6 L 619,6 L 619,54 L 561,54 Z" stroke="#000000" stroke-width="4.0" fill="none"/>
<text text-anchor="start" x="564.0" y="26.75" fill="#808080" style="font-size:18px">IN A</text>
<text text-anchor="start" x="564.0" y="46.75" fill="#808080" style="font-size:18px">IN B</text>
<text text-anchor="end" x="616.0" y="26.75" fill="#808080" style="font-size:18px">SUM</text>
<text text-anchor="end" x="616.0" y="46.75" fill="#808080" style="font-size:18px">CARRY</text>
<text text-anchor="middle" x="590.0" y="71.5" fill="#808080" style="font-size:18px">Half_Adder</text>
<circle cx="560.0" cy="20.0" r="2.0" stroke="#0000b2" stroke-width="4.0" fill="#0000b2" />
<circle cx="560.0" cy="40.0" r="2.0" stroke="#0000b2" stroke-width="4.0" fill="#0000b2" />
<circle cx="620.0" cy="20.0" r="2.0" stroke="#b20000" stroke-width="4.0" fill="#b20000" />
<circle cx="620.0" cy="40.0" r="2.0" stroke="#b20000" stroke-width="4.0" fill="#b20000" />
</g>
<g>
<path d="M 561,90 L 619,90 L 619,150 L 561,150 Z" stroke="#000000" stroke-width="4.0" fill="none"/>
<text text-anchor="start" x="564.0" y="106.75" fill="#808080" style="font-size:18px">a</text>
<text text-anchor="start" x="564.0" y="126.75" fill="#808080" style="font-size:18px">b</text>
<text text-anchor="start" x="564.0" y="146.75" fill="#808080" style="font-size:18px">c<tspan style="font-size:80%;baseline-shift:sub;">i</tspan></text>
<text text-anchor="end" x="616.0" y="106.75" fill="#808080" style="font-size:18px">s</text>
<text text-anchor="end" x="616.0" y="126.75" fill="#808080" style="font-size:18px">c<tspan style="font-size:80%;baseline-shift:sub;">o</tspan></text>
<text text-anchor="middle" x="590.0" y="167.5" fill="#808080" style="font-size:18px">Add</text>
<circle cx="560.0" cy="100.0" r="2.0" stroke="#0000b2" stroke-width="4.0" fill="#0000b2" />
<circle cx="560.0" cy="120.0" r="2.0" stroke="#0000b2" stroke-width="4.0" fill="#0000b2" />
<circle cx="560.0" cy="140.0" r="2.0" stroke="#0000b2" stroke-width="4.0" fill="#0000b2" />
<circle cx="620.0" cy="100.0" r="2.0" stroke="#b20000" stroke-width="4.0" fill="#b20000" />
<circle cx="620.0" cy="120.0" r="2.0" stroke="#b20000" stroke-width="4.0" fill="#b20000" />
</g>
<g>
<path d="M 561,170 L 619,170 L 619,230 L 561,230 Z" stroke="#000000" stroke-width="4.0" fill="none"/>
<text text-anchor="start" x="564.0" y="186.75" fill="#808080" style="font-size:18px">a</text>
<text text-anchor="start" x="564.0" y="206.75" fill="#808080" style="font-size:18px">b</text>
<text text-anchor="start" x="564.0" y="226.75" fill="#808080" style="font-size:18px">c<tspan style="font-size:80%;baseline-shift:sub;">i</tspan></text>
<text text-anchor="end" x="616.0" y="186.75" fill="#808080" style="font-size:18px">s</text>
<text text-anchor="end" x="616.0" y="206.75" fill="#808080" style="font-size:18px">c<tspan style="font-size:80%;baseline-shift:sub;">o</tspan></text>
<text text-anchor="middle" x="590.0" y="247.5" fill="#808080" style="font-size:18px">Add</text>
<circle cx="560.0" cy="180.0" r="2.0" stroke="#0000b2" stroke-width="4.0" fill="#0000b2" />
<circle cx="560.0" cy="200.0" r="2.0" stroke="#0000b2" stroke-width="4.0" fill="#0000b2" />
<circle cx="560.0" cy="220.0" r="2.0" stroke="#0000b2" stroke-width="4.0" fill="#0000b2" />
<circle cx="620.0" cy="180.0" r="2.0" stroke="#b20000" stroke-width="4.0" fill="#b20000" />
<circle cx="620.0" cy="200.0" r="2.0" stroke="#b20000" stroke-width="4.0" fill="#b20000" />
</g>
<g>
<path d="M 561,250 L 619,250 L 619,310 L 561,310 Z" stroke="#000000" stroke-width="4.0" fill="none"/>
<text text-anchor="start" x="564.0" y="266.75" fill="#808080" style="font-size:18px">a</text>
<text text-anchor="start" x="564.0" y="286.75" fill="#808080" style="font-size:18px">b</text>
<text text-anchor="start" x="564.0" y="306.75" fill="#808080" style="font-size:18px">c<tspan style="font-size:80%;baseline-shift:sub;">i</tspan></text>
<text text-anchor="end" x="616.0" y="266.75" fill="#808080" style="font-size:18px">s</text>
<text text-anchor="end" x="616.0" y="286.75" fill="#808080" style="font-size:18px">c<tspan style="font-size:80%;baseline-shift:sub;">o</tspan></text>
<text text-anchor="middle" x="590.0" y="327.5" fill="#808080" style="font-size:18px">Add</text>
<circle cx="560.0" cy="260.0" r="2.0" stroke="#0000b2" stroke-width="4.0" fill="#0000b2" />
<circle cx="560.0" cy="280.0" r="2.0" stroke="#0000b2" stroke-width="4.0" fill="#0000b2" />
<circle cx="560.0" cy="300.0" r="2.0" stroke="#0000b2" stroke-width="4.0" fill="#0000b2" />
<circle cx="620.0" cy="260.0" r="2.0" stroke="#b20000" stroke-width="4.0" fill="#b20000" />
<circle cx="620.0" cy="280.0" r="2.0" stroke="#b20000" stroke-width="4.0" fill="#b20000" />
</g>
<g>
<path d="M 561,330 L 619,330 L 619,390 L 561,390 Z" stroke="#000000" stroke-width="4.0" fill="none"/>
<text text-anchor="start" x="564.0" y="346.75" fill="#808080" style="font-size:18px">a</text>
<text text-anchor="start" x="564.0" y="366.75" fill="#808080" style="font-size:18px">b</text>
<text text-anchor="start" x="564.0" y="386.75" fill="#808080" style="font-size:18px">c<tspan style="font-size:80%;baseline-shift:sub;">i</tspan></text>
<text text-anchor="end" x="616.0" y="346.75" fill="#808080" style="font-size:18px">s</text>
<text text-anchor="end" x="616.0" y="366.75" fill="#808080" style="font-size:18px">c<tspan style="font-size:80%;baseline-shift:sub;">o</tspan></text>
<text text-anchor="middle" x="590.0" y="407.5" fill="#808080" style="font-size:18px">Add</text>
<circle cx="560.0" cy="340.0" r="2.0" stroke="#0000b2" stroke-width="4.0" fill="#0000b2" />
<circle cx="560.0" cy="360.0" r="2.0" stroke="#0000b2" stroke-width="4.0" fill="#0000b2" />
<circle cx="560.0" cy="380.0" r="2.0" stroke="#0000b2" stroke-width="4.0" fill="#0000b2" />
<circle cx="620.0" cy="340.0" r="2.0" stroke="#b20000" stroke-width="4.0" fill="#b20000" />
<circle cx="620.0" cy="360.0" r="2.0" stroke="#b20000" stroke-width="4.0" fill="#b20000" />
</g>
<g>
<path d="M 561,410 L 619,410 L 619,470 L 561,470 Z" stroke="#000000" stroke-width="4.0" fill="none"/>
<text text-anchor="start" x="564.0" y="426.75" fill="#808080" style="font-size:18px">a</text>
<text text-anchor="start" x="564.0" y="446.75" fill="#808080" style="font-size:18px">b</text>
<text text-anchor="start" x="564.0" y="466.75" fill="#808080" style="font-size:18px">c<tspan style="font-size:80%;baseline-shift:sub;">i</tspan></text>
<text text-anchor="end" x="616.0" y="426.75" fill="#808080" style="font-size:18px">s</text>
<text text-anchor="end" x="616.0" y="446.75" fill="#808080" style="font-size:18px">c<tspan style="font-size:80%;baseline-shift:sub;">o</tspan></text>
<text text-anchor="middle" x="590.0" y="487.5" fill="#808080" style="font-size:18px">Add</text>
<circle cx="560.0" cy="420.0" r="2.0" stroke="#0000b2" stroke-width="4.0" fill="#0000b2" />
<circle cx="560.0" cy="440.0" r="2.0" stroke="#0000b2" stroke-width="4.0" fill="#0000b2" />
<circle cx="560.0" cy="460.0" r="2.0" stroke="#0000b2" stroke-width="4.0" fill="#0000b2" />
<circle cx="620.0" cy="420.0" r="2.0" stroke="#b20000" stroke-width="4.0" fill="#b20000" />
<circle cx="620.0" cy="440.0" r="2.0" stroke="#b20000" stroke-width="4.0" fill="#b20000" />
</g>
<g>
<path d="M 561,490 L 619,490 L 619,550 L 561,550 Z" stroke="#000000" stroke-width="4.0" fill="none"/>
<text text-anchor="start" x="564.0" y="506.75" fill="#808080" style="font-size:18px">a</text>
<text text-anchor="start" x="564.0" y="526.75" fill="#808080" style="font-size:18px">b</text>
<text text-anchor="start" x="564.0" y="546.75" fill="#808080" style="font-size:18px">c<tspan style="font-size:80%;baseline-shift:sub;">i</tspan></text>
<text text-anchor="end" x="616.0" y="506.75" fill="#808080" style="font-size:18px">s</text>
<text text-anchor="end" x="616.0" y="526.75" fill="#808080" style="font-size:18px">c<tspan style="font-size:80%;baseline-shift:sub;">o</tspan></text>
<text text-anchor="middle" x="590.0" y="567.5" fill="#808080" style="font-size:18px">Add</text>
<circle cx="560.0" cy="500.0" r="2.0" stroke="#0000b2" stroke-width="4.0" fill="#0000b2" />
<circle cx="560.0" cy="520.0" r="2.0" stroke="#0000b2" stroke-width="4.0" fill="#0000b2" />
<circle cx="560.0" cy="540.0" r="2.0" stroke="#0000b2" stroke-width="4.0" fill="#0000b2" />
<circle cx="620.0" cy="500.0" r="2.0" stroke="#b20000" stroke-width="4.0" fill="#b20000" />
<circle cx="620.0" cy="520.0" r="2.0" stroke="#b20000" stroke-width="4.0" fill="#b20000" />
</g>
<g>
<path d="M 561,570 L 619,570 L 619,630 L 561,630 Z" stroke="#000000" stroke-width="4.0" fill="none"/>
<text text-anchor="start" x="564.0" y="586.75" fill="#808080" style="font-size:18px">a</text>
<text text-anchor="start" x="564.0" y="606.75" fill="#808080" style="font-size:18px">b</text>
<text text-anchor="start" x="564.0" y="626.75" fill="#808080" style="font-size:18px">c<tspan style="font-size:80%;baseline-shift:sub;">i</tspan></text>
<text text-anchor="end" x="616.0" y="586.75" fill="#808080" style="font-size:18px">s</text>
<text text-anchor="end" x="616.0" y="606.75" fill="#808080" style="font-size:18px">c<tspan style="font-size:80%;baseline-shift:sub;">o</tspan></text>
<text text-anchor="middle" x="590.0" y="647.5" fill="#808080" style="font-size:18px">Add</text>
<circle cx="560.0" cy="580.0" r="2.0" stroke="#0000b2" stroke-width="4.0" fill="#0000b2" />
<circle cx="560.0" cy="600.0" r="2.0" stroke="#0000b2" stroke-width="4.0" fill="#0000b2" />
<circle cx="560.0" cy="620.0" r="2.0" stroke="#0000b2" stroke-width="4.0" fill="#0000b2" />
<circle cx="620.0" cy="580.0" r="2.0" stroke="#b20000" stroke-width="4.0" fill="#b20000" />
<circle cx="620.0" cy="600.0" r="2.0" stroke="#b20000" stroke-width="4.0" fill="#b20000" />
</g>
<g>
<path d="M 561,650 L 619,650 L 619,710 L 561,710 Z" stroke="#000000" stroke-width="4.0" fill="none"/>
<text text-anchor="start" x="564.0" y="666.75" fill="#808080" style="font-size:18px">a</text>
<text text-anchor="start" x="564.0" y="686.75" fill="#808080" style="font-size:18px">b</text>
<text text-anchor="start" x="564.0" y="706.75" fill="#808080" style="font-size:18px">c<tspan style="font-size:80%;baseline-shift:sub;">i</tspan></text>
<text text-anchor="end" x="616.0" y="666.75" fill="#808080" style="font-size:18px">s</text>
<text text-anchor="end" x="616.0" y="686.75" fill="#808080" style="font-size:18px">c<tspan style="font-size:80%;baseline-shift:sub;">o</tspan></text>
<text text-anchor="middle" x="590.0" y="727.5" fill="#808080" style="font-size:18px">Add</text>
<circle cx="560.0" cy="660.0" r="2.0" stroke="#0000b2" stroke-width="4.0" fill="#0000b2" />
<circle cx="560.0" cy="680.0" r="2.0" stroke="#0000b2" stroke-width="4.0" fill="#0000b2" />
<circle cx="560.0" cy="700.0" r="2.0" stroke="#0000b2" stroke-width="4.0" fill="#0000b2" />
<circle cx="620.0" cy="660.0" r="2.0" stroke="#b20000" stroke-width="4.0" fill="#b20000" />
<circle cx="620.0" cy="680.0" r="2.0" stroke="#b20000" stroke-width="4.0" fill="#b20000" />
</g>
<g>
<path d="M 561,730 L 619,730 L 619,790 L 561,790 Z" stroke="#000000" stroke-width="4.0" fill="none"/>
<text text-anchor="start" x="564.0" y="746.75" fill="#808080" style="font-size:18px">a</text>
<text text-anchor="start" x="564.0" y="766.75" fill="#808080" style="font-size:18px">b</text>
<text text-anchor="start" x="564.0" y="786.75" fill="#808080" style="font-size:18px">c<tspan style="font-size:80%;baseline-shift:sub;">i</tspan></text>
<text text-anchor="end" x="616.0" y="746.75" fill="#808080" style="font-size:18px">s</text>
<text text-anchor="end" x="616.0" y="766.75" fill="#808080" style="font-size:18px">c<tspan style="font-size:80%;baseline-shift:sub;">o</tspan></text>
<text text-anchor="middle" x="590.0" y="807.5" fill="#808080" style="font-size:18px">Add</text>
<circle cx="560.0" cy="740.0" r="2.0" stroke="#0000b2" stroke-width="4.0" fill="#0000b2" />
<circle cx="560.0" cy="760.0" r="2.0" stroke="#0000b2" stroke-width="4.0" fill="#0000b2" />
<circle cx="560.0" cy="780.0" r="2.0" stroke="#0000b2" stroke-width="4.0" fill="#0000b2" />
<circle cx="620.0" cy="740.0" r="2.0" stroke="#b20000" stroke-width="4.0" fill="#b20000" />
<circle cx="620.0" cy="760.0" r="2.0" stroke="#b20000" stroke-width="4.0" fill="#b20000" />
</g>
<g>
<path d="M 561,810 L 619,810 L 619,870 L 561,870 Z" stroke="#000000" stroke-width="4.0" fill="none"/>
<text text-anchor="start" x="564.0" y="826.75" fill="#808080" style="font-size:18px">a</text>
<text text-anchor="start" x="564.0" y="846.75" fill="#808080" style="font-size:18px">b</text>
<text text-anchor="start" x="564.0" y="866.75" fill="#808080" style="font-size:18px">c<tspan style="font-size:80%;baseline-shift:sub;">i</tspan></text>
<text text-anchor="end" x="616.0" y="826.75" fill="#808080" style="font-size:18px">s</text>
<text text-anchor="end" x="616.0" y="846.75" fill="#808080" style="font-size:18px">c<tspan style="font-size:80%;baseline-shift:sub;">o</tspan></text>
<text text-anchor="middle" x="590.0" y="887.5" fill="#808080" style="font-size:18px">Add</text>
<circle cx="560.0" cy="820.0" r="2.0" stroke="#0000b2" stroke-width="4.0" fill="#0000b2" />
<circle cx="560.0" cy="840.0" r="2.0" stroke="#0000b2" stroke-width="4.0" fill="#0000b2" />
<circle cx="560.0" cy="860.0" r="2.0" stroke="#0000b2" stroke-width="4.0" fill="#0000b2" />
<circle cx="620.0" cy="820.0" r="2.0" stroke="#b20000" stroke-width="4.0" fill="#b20000" />
<circle cx="620.0" cy="840.0" r="2.0" stroke="#b20000" stroke-width="4.0" fill="#b20000" />
</g>
<g>
<path d="M 561,890 L 619,890 L 619,950 L 561,950 Z" stroke="#000000" stroke-width="4.0" fill="none"/>
<text text-anchor="start" x="564.0" y="906.75" fill="#808080" style="font-size:18px">a</text>
<text text-anchor="start" x="564.0" y="926.75" fill="#808080" style="font-size:18px">b</text>
<text text-anchor="start" x="564.0" y="946.75" fill="#808080" style="font-size:18px">c<tspan style="font-size:80%;baseline-shift:sub;">i</tspan></text>
<text text-anchor="end" x="616.0" y="906.75" fill="#808080" style="font-size:18px">s</text>
<text text-anchor="end" x="616.0" y="926.75" fill="#808080" style="font-size:18px">c<tspan style="font-size:80%;baseline-shift:sub;">o</tspan></text>
<text text-anchor="middle" x="590.0" y="967.5" fill="#808080" style="font-size:18px">Add</text>
<circle cx="560.0" cy="900.0" r="2.0" stroke="#0000b2" stroke-width="4.0" fill="#0000b2" />
<circle cx="560.0" cy="920.0" r="2.0" stroke="#0000b2" stroke-width="4.0" fill="#0000b2" />
<circle cx="560.0" cy="940.0" r="2.0" stroke="#0000b2" stroke-width="4.0" fill="#0000b2" />
<circle cx="620.0" cy="900.0" r="2.0" stroke="#b20000" stroke-width="4.0" fill="#b20000" />
<circle cx="620.0" cy="920.0" r="2.0" stroke="#b20000" stroke-width="4.0" fill="#b20000" />
</g>
<g>
<path d="M 561,970 L 619,970 L 619,1030 L 561,1030 Z" stroke="#000000" stroke-width="4.0" fill="none"/>
<text text-anchor="start" x="564.0" y="986.75" fill="#808080" style="font-size:18px">a</text>
<text text-anchor="start" x="564.0" y="1006.75" fill="#808080" style="font-size:18px">b</text>
<text text-anchor="start" x="564.0" y="1026.75" fill="#808080" style="font-size:18px">c<tspan style="font-size:80%;baseline-shift:sub;">i</tspan></text>
<text text-anchor="end" x="616.0" y="986.75" fill="#808080" style="font-size:18px">s</text>
<text text-anchor="end" x="616.0" y="1006.75" fill="#808080" style="font-size:18px">c<tspan style="font-size:80%;baseline-shift:sub;">o</tspan></text>
<text text-anchor="middle" x="590.0" y="1047.5" fill="#808080" style="font-size:18px">Add</text>
<circle cx="560.0" cy="980.0" r="2.0" stroke="#0000b2" stroke-width="4.0" fill="#0000b2" />
<circle cx="560.0" cy="1000.0" r="2.0" stroke="#0000b2" stroke-width="4.0" fill="#0000b2" />
<circle cx="560.0" cy="1020.0" r="2.0" stroke="#0000b2" stroke-width="4.0" fill="#0000b2" />
<circle cx="620.0" cy="980.0" r="2.0" stroke="#b20000" stroke-width="4.0" fill="#b20000" />
<circle cx="620.0" cy="1000.0" r="2.0" stroke="#b20000" stroke-width="4.0" fill="#b20000" />
</g>
<g>
<path d="M 561,1050 L 619,1050 L 619,1110 L 561,1110 Z" stroke="#000000" stroke-width="4.0" fill="none"/>
<text text-anchor="start" x="564.0" y="1066.75" fill="#808080" style="font-size:18px">a</text>
<text text-anchor="start" x="564.0" y="1086.75" fill="#808080" style="font-size:18px">b</text>
<text text-anchor="start" x="564.0" y="1106.75" fill="#808080" style="font-size:18px">c<tspan style="font-size:80%;baseline-shift:sub;">i</tspan></text>
<text text-anchor="end" x="616.0" y="1066.75" fill="#808080" style="font-size:18px">s</text>
<text text-anchor="end" x="616.0" y="1086.75" fill="#808080" style="font-size:18px">c<tspan style="font-size:80%;baseline-shift:sub;">o</tspan></text>
<text text-anchor="middle" x="590.0" y="1127.5" fill="#808080" style="font-size:18px">Add</text>
<circle cx="560.0" cy="1060.0" r="2.0" stroke="#0000b2" stroke-width="4.0" fill="#0000b2" />
<circle cx="560.0" cy="1080.0" r="2.0" stroke="#0000b2" stroke-width="4.0" fill="#0000b2" />
<circle cx="560.0" cy="1100.0" r="2.0" stroke="#0000b2" stroke-width="4.0" fill="#0000b2" />
<circle cx="620.0" cy="1060.0" r="2.0" stroke="#b20000" stroke-width="4.0" fill="#b20000" />
<circle cx="620.0" cy="1080.0" r="2.0" stroke="#b20000" stroke-width="4.0" fill="#b20000" />
</g>
<g>
<path d="M 561,1130 L 619,1130 L 619,1190 L 561,1190 Z" stroke="#000000" stroke-width="4.0" fill="none"/>
<text text-anchor="start" x="564.0" y="1146.75" fill="#808080" style="font-size:18px">a</text>
<text text-anchor="start" x="564.0" y="1166.75" fill="#808080" style="font-size:18px">b</text>
<text text-anchor="start" x="564.0" y="1186.75" fill="#808080" style="font-size:18px">c<tspan style="font-size:80%;baseline-shift:sub;">i</tspan></text>
<text text-anchor="end" x="616.0" y="1146.75" fill="#808080" style="font-size:18px">s</text>
<text text-anchor="end" x="616.0" y="1166.75" fill="#808080" style="font-size:18px">c<tspan style="font-size:80%;baseline-shift:sub;">o</tspan></text>
<text text-anchor="middle" x="590.0" y="1207.5" fill="#808080" style="font-size:18px">Add</text>
<circle cx="560.0" cy="1140.0" r="2.0" stroke="#0000b2" stroke-width="4.0" fill="#0000b2" />
<circle cx="560.0" cy="1160.0" r="2.0" stroke="#0000b2" stroke-width="4.0" fill="#0000b2" />
<circle cx="560.0" cy="1180.0" r="2.0" stroke="#0000b2" stroke-width="4.0" fill="#0000b2" />
<circle cx="620.0" cy="1140.0" r="2.0" stroke="#b20000" stroke-width="4.0" fill="#b20000" />
<circle cx="620.0" cy="1160.0" r="2.0" stroke="#b20000" stroke-width="4.0" fill="#b20000" />
</g>
<g>
<circle cx="1076.0" cy="20.0" r="9.0" stroke="#000000" stroke-width="4.0" fill="none" />
<circle cx="1076.0" cy="20.0" r="15.0" stroke="#000000" stroke-width="4.0" fill="none" />
<text text-anchor="start" x="1105.0" y="29.0" fill="#000000" style="font-size:24px"><tspan style="font-style:italic;">OUT (16-BIT)</tspan></text>
<circle cx="1060.0" cy="20.0" r="2.0" stroke="#0000b2" stroke-width="4.0" fill="#0000b2" />
</g>
<g>
<text text-anchor="end" x="958.0" y="17.0" fill="#808080" style="font-size:12px">0</text>
<text text-anchor="end" x="958.0" y="97.0" fill="#808080" style="font-size:12px">1</text>
<text text-anchor="end" x="958.0" y="177.0" fill="#808080" style="font-size:12px">2</text>
<text text-anchor="end" x="958.0" y="257.0" fill="#808080" style="font-size:12px">3</text>
<text text-anchor="end" x="958.0" y="337.0" fill="#808080" style="font-size:12px">4</text>
<text text-anchor="end" x="958.0" y="417.0" fill="#808080" style="font-size:12px">5</text>
<text text-anchor="end" x="958.0" y="497.0" fill="#808080" style="font-size:12px">6</text>
<text text-anchor="end" x="958.0" y="577.0" fill="#808080" style="font-size:12px">7</text>
<text text-anchor="end" x="958.0" y="657.0" fill="#808080" style="font-size:12px">8</text>
<text text-anchor="end" x="958.0" y="737.0" fill="#808080" style="font-size:12px">9</text>
<text text-anchor="end" x="958.0" y="817.0" fill="#808080" style="font-size:12px">10</text>
<text text-anchor="end" x="958.0" y="897.0" fill="#808080" style="font-size:12px">11</text>
<text text-anchor="end" x="958.0" y="977.0" fill="#808080" style="font-size:12px">12</text>
<text text-anchor="end" x="958.0" y="1057.0" fill="#808080" style="font-size:12px">13</text>
<text text-anchor="end" x="958.0" y="1137.0" fill="#808080" style="font-size:12px">14</text>
<text text-anchor="end" x="958.0" y="1217.0" fill="#808080" style="font-size:12px">15</text>
<text text-anchor="start" x="982.0" y="17.0" fill="#808080" style="font-size:12px">0-15</text>
<path d="M 968,18 L 972,18 L 972,1222 L 968,1222 Z" stroke="#000000" stroke-width="4.0" fill="#000000" fill-opacity="1.0"/>
<circle cx="960.0" cy="20.0" r="2.0" stroke="#0000b2" stroke-width="4.0" fill="#0000b2" />
<circle cx="960.0" cy="100.0" r="2.0" stroke="#0000b2" stroke-width="4.0" fill="#0000b2" />
<circle cx="960.0" cy="180.0" r="2.0" stroke="#0000b2" stroke-width="4.0" fill="#0000b2" />
<circle cx="960.0" cy="260.0" r="2.0" stroke="#0000b2" stroke-width="4.0" fill="#0000b2" />
<circle cx="960.0" cy="340.0" r="2.0" stroke="#0000b2" stroke-width="4.0" fill="#0000b2" />
<circle cx="960.0" cy="420.0" r="2.0" stroke="#0000b2" stroke-width="4.0" fill="#0000b2" />
<circle cx="960.0" cy="500.0" r="2.0" stroke="#0000b2" stroke-width="4.0" fill="#0000b2" />
<circle cx="960.0" cy="580.0" r="2.0" stroke="#0000b2" stroke-width="4.0" fill="#0000b2" />
<circle cx="960.0" cy="660.0" r="2.0" stroke="#0000b2" stroke-width="4.0" fill="#0000b2" />
<circle cx="960.0" cy="740.0" r="2.0" stroke="#0000b2" stroke-width="4.0" fill="#0000b2" />
<circle cx="960.0" cy="820.0" r="2.0" stroke="#0000b2" stroke-width="4.0" fill="#0000b2" />
<circle cx="960.0" cy="900.0" r="2.0" stroke="#0000b2" stroke-width="4.0" fill="#0000b2" />
<circle cx="960.0" cy="980.0" r="2.0" stroke="#0000b2" stroke-width="4.0" fill="#0000b2" />
<circle cx="960.0" cy="1060.0" r="2.0" stroke="#0000b2" stroke-width="4.0" fill="#0000b2" />
<circle cx="960.0" cy="1140.0" r="2.0" stroke="#0000b2" stroke-width="4.0" fill="#0000b2" />
<circle cx="960.0" cy="1220.0" r="2.0" stroke="#0000b2" stroke-width="4.0" fill="#0000b2" />
<circle cx="980.0" cy="20.0" r="2.0" stroke="#b20000" stroke-width="4.0" fill="#b20000" />
</g>
</g>
</svg>