<?xml version="1.0" encoding="UTF-8" standalone="no"?>
<!-- Created with Digital by H.Neemann -->
<!-- created: Mon Sep 13 21:59:05 MST 2021 -->

<svg
   xmlns:svg="http://www.w3.org/2000/svg"
   xmlns="http://www.w3.org/2000/svg"
   width="79.65mm"
   height="35.25mm"
   viewBox="508 238 531 235">
<g stroke-linecap="square">
<path d="M 720,320 L 800,320" stroke="#0000b2" stroke-width="4.0" fill="none"/>
<path d="M 580,320 L 620,320" stroke="#0000b2" stroke-width="4.0" fill="none"/>
<path d="M 660,300 L 800,300" stroke="#0000b2" stroke-width="4.0" fill="none"/>
<path d="M 860,300 L 900,300 L 940,300" stroke="#0000b2" stroke-width="4.0" fill="none"/>
<path d="M 640,320 L 640,360" stroke="#0000b2" stroke-width="4.0" fill="none"/>
<path d="M 900,300 L 900,240 L 580,240 L 580,280 L 620,280" stroke="#0000b2" stroke-width="4.0" fill="none"/>
<g>
<circle cx="900.0" cy="300.0" r="4.0" stroke="#0000b2" stroke-width="4.0" fill="#0000b2" />
</g>
<g>
<path d="M 689,305 L 719,305 L 719,335 L 689,335 Z" stroke="#000000" stroke-width="4.0" fill="none"/>
<path d="M 695,325 L 700,325 L 700,315 L 705,315 L 705,325 L 710,325 L 710,315 L 715,315" stroke="#000000" stroke-width="2.0" fill="none"/>
<circle cx="720.0" cy="320.0" r="2.0" stroke="#b20000" stroke-width="4.0" fill="#b20000" />
</g>
<g>
<path d="M 801,290 L 859,290 L 859,330 L 801,330 Z" stroke="#000000" stroke-width="4.0" fill="none"/>
<text text-anchor="start" x="804.0" y="306.75" fill="#808080" style="font-size:18px">D</text>
<path d="M 801,327 L 808,320 L 801,313" stroke="#000000" stroke-width="2.0" fill="none"/>
<text text-anchor="start" x="811.0" y="326.75" fill="#808080" style="font-size:18px">C</text>
<text text-anchor="end" x="856.0" y="306.75" fill="#808080" style="font-size:18px">Q</text>
<text text-anchor="end" x="856.0" y="326.75" fill="#808080" style="font-size:18px"><tspan style="text-decoration:overline;">Q</tspan></text>
<text text-anchor="middle" x="830.0" y="347.5" fill="#808080" style="font-size:18px">D</text>
<circle cx="800.0" cy="300.0" r="2.0" stroke="#0000b2" stroke-width="4.0" fill="#0000b2" />
<circle cx="800.0" cy="320.0" r="2.0" stroke="#0000b2" stroke-width="4.0" fill="#0000b2" />
<circle cx="860.0" cy="300.0" r="2.0" stroke="#b20000" stroke-width="4.0" fill="#b20000" />
<circle cx="860.0" cy="320.0" r="2.0" stroke="#b20000" stroke-width="4.0" fill="#b20000" />
</g>
<g>
<path d="M 625,391 L 625,361 L 655,361 L 655,391 Z" stroke="#000000" stroke-width="4.0" fill="none"/>
<circle cx="640.0" cy="376.0" r="9.0" stroke="#000000" stroke-width="4.0" fill="none" />
<text text-anchor="end" x="640.0" y="414.0" fill="#000000" style="font-size:24px" transform="rotate(-90,640.0,405.0)" ><tspan style="font-style:italic;">LOAD</tspan></text>
<circle cx="640.0" cy="360.0" r="2.0" stroke="#b20000" stroke-width="4.0" fill="#b20000" />
</g>
<g>
<path d="M 549,305 L 579,305 L 579,335 L 549,335 Z" stroke="#000000" stroke-width="4.0" fill="none"/>
<circle cx="564.0" cy="320.0" r="9.0" stroke="#000000" stroke-width="4.0" fill="none" />
<text text-anchor="end" x="535.0" y="329.0" fill="#000000" style="font-size:24px"><tspan style="font-style:italic;">IN</tspan></text>
<circle cx="580.0" cy="320.0" r="2.0" stroke="#b20000" stroke-width="4.0" fill="#b20000" />
</g>
<g>
<circle cx="956.0" cy="300.0" r="9.0" stroke="#000000" stroke-width="4.0" fill="none" />
<circle cx="956.0" cy="300.0" r="15.0" stroke="#000000" stroke-width="4.0" fill="none" />
<text text-anchor="start" x="985.0" y="309.0" fill="#000000" style="font-size:24px"><tspan style="font-style:italic;">OUT</tspan></text>
<circle cx="940.0" cy="300.0" r="2.0" stroke="#0000b2" stroke-width="4.0" fill="#0000b2" />
</g>
<g>
<path d="M 621,276 L 659,285 L 659,315 L 621,324 Z" stroke="#000000" stroke-width="4.0" fill="none"/>
<text text-anchor="start" x="623.0" y="295.5" fill="#808080" style="font-size:18px">0</text>
<circle cx="640.0" cy="320.0" r="2.0" stroke="#0000b2" stroke-width="4.0" fill="#0000b2" />
<circle cx="620.0" cy="280.0" r="2.0" stroke="#0000b2" stroke-width="4.0" fill="#0000b2" />
<circle cx="620.0" cy="320.0" r="2.0" stroke="#0000b2" stroke-width="4.0" fill="#0000b2" />
<circle cx="660.0" cy="300.0" r="2.0" stroke="#b20000" stroke-width="4.0" fill="#b20000" />
</g>
</g>
</svg>