<?xml version="1.0" encoding="UTF-8" standalone="no"?>
<!-- Created with Digital by H.Neemann -->
<!-- created: Mon Sep 13 21:56:09 MST 2021 -->

<svg
   xmlns:svg="http://www.w3.org/2000/svg"
   xmlns="http://www.w3.org/2000/svg"
   width="79.65mm"
   height="35.25mm"
   viewBox="328 158 531 235">
<g stroke-linecap="square">
<path d="M 540,240 L 620,240" stroke="#0000b2" stroke-width="4.0" fill="none"/>
<path d="M 400,240 L 440,240" stroke="#0000b2" stroke-width="4.0" fill="none"/>
<path d="M 480,220 L 620,220" stroke="#0000b2" stroke-width="4.0" fill="none"/>
<path d="M 680,220 L 720,220 L 760,220" stroke="#0000b2" stroke-width="4.0" fill="none"/>
<path d="M 720,220 L 720,160 L 400,160 L 400,200 L 440,200" stroke="#0000b2" stroke-width="4.0" fill="none"/>
<path d="M 460,240 L 460,280" stroke="#0000b2" stroke-width="4.0" fill="none"/>
<g>
<circle cx="720.0" cy="220.0" r="4.0" stroke="#0000b2" stroke-width="4.0" fill="#0000b2" />
</g>
<g>
<path d="M 509,225 L 539,225 L 539,255 L 509,255 Z" stroke="#000000" stroke-width="4.0" fill="none"/>
<path d="M 515,245 L 520,245 L 520,235 L 525,235 L 525,245 L 530,245 L 530,235 L 535,235" stroke="#000000" stroke-width="2.0" fill="none"/>
<circle cx="540.0" cy="240.0" r="2.0" stroke="#b20000" stroke-width="4.0" fill="#b20000" />
</g>
<g>
<path d="M 621,210 L 679,210 L 679,250 L 621,250 Z" stroke="#000000" stroke-width="4.0" fill="none"/>
<text text-anchor="start" x="624.0" y="226.75" fill="#808080" style="font-size:18px">D</text>
<path d="M 621,247 L 628,240 L 621,233" stroke="#000000" stroke-width="2.0" fill="none"/>
<text text-anchor="start" x="631.0" y="246.75" fill="#808080" style="font-size:18px">C</text>
<text text-anchor="end" x="676.0" y="226.75" fill="#808080" style="font-size:18px">Q</text>
<text text-anchor="end" x="676.0" y="246.75" fill="#808080" style="font-size:18px"><tspan style="text-decoration:overline;">Q</tspan></text>
<text text-anchor="middle" x="650.0" y="267.5" fill="#808080" style="font-size:18px">D</text>
<circle cx="620.0" cy="220.0" r="2.0" stroke="#0000b2" stroke-width="4.0" fill="#0000b2" />
<circle cx="620.0" cy="240.0" r="2.0" stroke="#0000b2" stroke-width="4.0" fill="#0000b2" />
<circle cx="680.0" cy="220.0" r="2.0" stroke="#b20000" stroke-width="4.0" fill="#b20000" />
<circle cx="680.0" cy="240.0" r="2.0" stroke="#b20000" stroke-width="4.0" fill="#b20000" />
</g>
<g>
<path d="M 445,311 L 445,281 L 475,281 L 475,311 Z" stroke="#000000" stroke-width="4.0" fill="none"/>
<circle cx="460.0" cy="296.0" r="9.0" stroke="#000000" stroke-width="4.0" fill="none" />
<text text-anchor="end" x="460.0" y="334.0" fill="#000000" style="font-size:24px" transform="rotate(-90,460.0,325.0)" ><tspan style="font-style:italic;">LOAD</tspan></text>
<circle cx="460.0" cy="280.0" r="2.0" stroke="#b20000" stroke-width="4.0" fill="#b20000" />
</g>
<g>
<path d="M 369,225 L 399,225 L 399,255 L 369,255 Z" stroke="#000000" stroke-width="4.0" fill="none"/>
<circle cx="384.0" cy="240.0" r="9.0" stroke="#000000" stroke-width="4.0" fill="none" />
<text text-anchor="end" x="355.0" y="249.0" fill="#000000" style="font-size:24px"><tspan style="font-style:italic;">IN</tspan></text>
<circle cx="400.0" cy="240.0" r="2.0" stroke="#b20000" stroke-width="4.0" fill="#b20000" />
</g>
<g>
<circle cx="776.0" cy="220.0" r="9.0" stroke="#000000" stroke-width="4.0" fill="none" />
<circle cx="776.0" cy="220.0" r="15.0" stroke="#000000" stroke-width="4.0" fill="none" />
<text text-anchor="start" x="805.0" y="229.0" fill="#000000" style="font-size:24px"><tspan style="font-style:italic;">OUT</tspan></text>
<circle cx="760.0" cy="220.0" r="2.0" stroke="#0000b2" stroke-width="4.0" fill="#0000b2" />
</g>
<g>
<path d="M 441,196 L 479,205 L 479,235 L 441,244 Z" stroke="#000000" stroke-width="4.0" fill="none"/>
<text text-anchor="start" x="443.0" y="215.5" fill="#808080" style="font-size:18px">0</text>
<circle cx="460.0" cy="240.0" r="2.0" stroke="#0000b2" stroke-width="4.0" fill="#0000b2" />
<circle cx="440.0" cy="200.0" r="2.0" stroke="#0000b2" stroke-width="4.0" fill="#0000b2" />
<circle cx="440.0" cy="240.0" r="2.0" stroke="#0000b2" stroke-width="4.0" fill="#0000b2" />
<circle cx="480.0" cy="220.0" r="2.0" stroke="#b20000" stroke-width="4.0" fill="#b20000" />
</g>
</g>
</svg>