<?xml version="1.0" encoding="UTF-8" standalone="no"?>
<!-- Created with Digital by H.Neemann -->
<!-- created: Sun Sep 05 20:00:07 MST 2021 -->

<svg
   xmlns:svg="http://www.w3.org/2000/svg"
   xmlns="http://www.w3.org/2000/svg"
   width="103.35mm"
   height="33.6mm"
   viewBox="320 128 689 224">
<g stroke-linecap="square">
<path d="M 420,160 L 480,160 L 480,140 L 560,140 L 574,140" stroke="#0000b2" stroke-width="4.0" fill="none"/>
<path d="M 640,160 L 880,160" stroke="#0000b2" stroke-width="4.0" fill="none"/>
<path d="M 420,320 L 500,320 L 500,180 L 560,180 L 574,180" stroke="#0000b2" stroke-width="4.0" fill="none"/>
<path d="M 640,320 L 880,320" stroke="#0000b2" stroke-width="4.0" fill="none"/>
<path d="M 500,320 L 500,340 L 560,340" stroke="#0000b2" stroke-width="4.0" fill="none"/>
<path d="M 480,160 L 480,300 L 560,300" stroke="#0000b2" stroke-width="4.0" fill="none"/>
<g>
<circle cx="480.0" cy="160.0" r="4.0" stroke="#0000b2" stroke-width="4.0" fill="#0000b2" />
<circle cx="500.0" cy="320.0" r="4.0" stroke="#0000b2" stroke-width="4.0" fill="#0000b2" />
</g>
<g>
<circle cx="896.0" cy="160.0" r="9.0" stroke="#000000" stroke-width="4.0" fill="none" />
<circle cx="896.0" cy="160.0" r="15.0" stroke="#000000" stroke-width="4.0" fill="none" />
<text text-anchor="start" x="925.0" y="169.0" fill="#000000" style="font-size:24px"><tspan style="font-style:italic;">SUM</tspan></text>
<circle cx="880.0" cy="160.0" r="2.0" stroke="#0000b2" stroke-width="4.0" fill="#0000b2" />
</g>
<g>
<circle cx="896.0" cy="320.0" r="9.0" stroke="#000000" stroke-width="4.0" fill="none" />
<circle cx="896.0" cy="320.0" r="15.0" stroke="#000000" stroke-width="4.0" fill="none" />
<text text-anchor="start" x="925.0" y="329.0" fill="#000000" style="font-size:24px"><tspan style="font-style:italic;">CARRY</tspan></text>
<circle cx="880.0" cy="320.0" r="2.0" stroke="#0000b2" stroke-width="4.0" fill="#0000b2" />
</g>
<g>
<path d="M 389,145 L 419,145 L 419,175 L 389,175 Z" stroke="#000000" stroke-width="4.0" fill="none"/>
<circle cx="404.0" cy="160.0" r="9.0" stroke="#000000" stroke-width="4.0" fill="none" />
<text text-anchor="end" x="375.0" y="169.0" fill="#000000" style="font-size:24px"><tspan style="font-style:italic;">IN A</tspan></text>
<circle cx="420.0" cy="160.0" r="2.0" stroke="#b20000" stroke-width="4.0" fill="#b20000" />
</g>
<g>
<path d="M 389,305 L 419,305 L 419,335 L 389,335 Z" stroke="#000000" stroke-width="4.0" fill="none"/>
<circle cx="404.0" cy="320.0" r="9.0" stroke="#000000" stroke-width="4.0" fill="none" />
<text text-anchor="end" x="375.0" y="329.0" fill="#000000" style="font-size:24px"><tspan style="font-style:italic;">IN B</tspan></text>
<circle cx="420.0" cy="320.0" r="2.0" stroke="#b20000" stroke-width="4.0" fill="#b20000" />
</g>
<g>
<path d="M 610,350 L 561,350 L 561,290 L 610,290 C 620,290 640,300 639,320 C 639,340 620,350 610,350 Z" stroke="#000000" stroke-width="4.0" fill="none"/>
<circle cx="560.0" cy="300.0" r="2.0" stroke="#0000b2" stroke-width="4.0" fill="#0000b2" />
<circle cx="560.0" cy="340.0" r="2.0" stroke="#0000b2" stroke-width="4.0" fill="#0000b2" />
<circle cx="640.0" cy="320.0" r="2.0" stroke="#b20000" stroke-width="4.0" fill="#b20000" />
</g>
<g>
<path d="M 590,190 L 570,190 C 580,174 580,146 570,130 L 590,130 C 610,130 630,140 640,160 C 630,180 610,190 590,190 Z" stroke="#000000" stroke-width="4.0" fill="none"/>
<path d="M 560,190 C 570,180 570,140 560,130" stroke="#000000" stroke-width="4.0" fill="none"/>
<circle cx="560.0" cy="140.0" r="2.0" stroke="#0000b2" stroke-width="4.0" fill="#0000b2" />
<circle cx="560.0" cy="180.0" r="2.0" stroke="#0000b2" stroke-width="4.0" fill="#0000b2" />
<circle cx="640.0" cy="160.0" r="2.0" stroke="#b20000" stroke-width="4.0" fill="#b20000" />
</g>
</g>
</svg>