<?xml version="1.0" encoding="UTF-8" standalone="no"?>
<!-- Created with Digital by H.Neemann -->
<!-- created: Mon Aug 30 22:52:19 MST 2021 -->

<svg
   xmlns:svg="http://www.w3.org/2000/svg"
   xmlns="http://www.w3.org/2000/svg"
   width="115.65mm"
   height="189.6mm"
   viewBox="28 228 771 1264">
<g stroke-linecap="square">
<path d="M 100,260 L 180,260" stroke="#0000b2" stroke-width="4.0" fill="none"/>
<path d="M 200,260 L 260,260 L 260,240 L 300,240" stroke="#0000b2" stroke-width="4.0" fill="none"/>
<path d="M 400,260 L 600,260" stroke="#0000b2" stroke-width="4.0" fill="none"/>
<path d="M 620,260 L 700,260" stroke="#0000b2" stroke-width="4.0" fill="none"/>
<path d="M 200,580 L 260,580 L 260,560 L 300,560" stroke="#0000b2" stroke-width="4.0" fill="none"/>
<path d="M 400,580 L 600,580" stroke="#0000b2" stroke-width="4.0" fill="none"/>
<path d="M 200,900 L 260,900 L 260,880 L 300,880" stroke="#0000b2" stroke-width="4.0" fill="none"/>
<path d="M 400,900 L 600,900" stroke="#0000b2" stroke-width="4.0" fill="none"/>
<path d="M 200,1220 L 260,1220 L 260,1200 L 300,1200" stroke="#0000b2" stroke-width="4.0" fill="none"/>
<path d="M 400,1220 L 600,1220" stroke="#0000b2" stroke-width="4.0" fill="none"/>
<path d="M 260,500 L 260,520 L 300,520" stroke="#0000b2" stroke-width="4.0" fill="none"/>
<path d="M 260,820 L 260,840 L 300,840" stroke="#0000b2" stroke-width="4.0" fill="none"/>
<path d="M 260,1140 L 260,1160 L 300,1160" stroke="#0000b2" stroke-width="4.0" fill="none"/>
<path d="M 260,1460 L 260,1480 L 300,1480" stroke="#0000b2" stroke-width="4.0" fill="none"/>
<path d="M 200,340 L 260,340 L 260,320 L 300,320" stroke="#0000b2" stroke-width="4.0" fill="none"/>
<path d="M 400,340 L 600,340" stroke="#0000b2" stroke-width="4.0" fill="none"/>
<path d="M 200,660 L 260,660 L 260,640 L 300,640" stroke="#0000b2" stroke-width="4.0" fill="none"/>
<path d="M 400,660 L 600,660" stroke="#0000b2" stroke-width="4.0" fill="none"/>
<path d="M 200,980 L 260,980 L 260,960 L 300,960" stroke="#0000b2" stroke-width="4.0" fill="none"/>
<path d="M 400,980 L 600,980" stroke="#0000b2" stroke-width="4.0" fill="none"/>
<path d="M 200,1300 L 260,1300 L 260,1280 L 300,1280" stroke="#0000b2" stroke-width="4.0" fill="none"/>
<path d="M 400,1300 L 600,1300" stroke="#0000b2" stroke-width="4.0" fill="none"/>
<path d="M 260,260 L 260,280 L 300,280" stroke="#0000b2" stroke-width="4.0" fill="none"/>
<path d="M 260,580 L 260,600 L 300,600" stroke="#0000b2" stroke-width="4.0" fill="none"/>
<path d="M 260,900 L 260,920 L 300,920" stroke="#0000b2" stroke-width="4.0" fill="none"/>
<path d="M 260,1220 L 260,1240 L 300,1240" stroke="#0000b2" stroke-width="4.0" fill="none"/>
<path d="M 200,420 L 260,420 L 260,400 L 300,400" stroke="#0000b2" stroke-width="4.0" fill="none"/>
<path d="M 400,420 L 600,420" stroke="#0000b2" stroke-width="4.0" fill="none"/>
<path d="M 200,740 L 260,740 L 260,720 L 300,720" stroke="#0000b2" stroke-width="4.0" fill="none"/>
<path d="M 400,740 L 600,740" stroke="#0000b2" stroke-width="4.0" fill="none"/>
<path d="M 200,1060 L 260,1060 L 260,1040 L 300,1040" stroke="#0000b2" stroke-width="4.0" fill="none"/>
<path d="M 400,1060 L 600,1060" stroke="#0000b2" stroke-width="4.0" fill="none"/>
<path d="M 200,1380 L 260,1380 L 260,1360 L 300,1360" stroke="#0000b2" stroke-width="4.0" fill="none"/>
<path d="M 400,1380 L 600,1380" stroke="#0000b2" stroke-width="4.0" fill="none"/>
<path d="M 260,340 L 260,360 L 300,360" stroke="#0000b2" stroke-width="4.0" fill="none"/>
<path d="M 260,660 L 260,680 L 300,680" stroke="#0000b2" stroke-width="4.0" fill="none"/>
<path d="M 260,980 L 260,1000 L 300,1000" stroke="#0000b2" stroke-width="4.0" fill="none"/>
<path d="M 260,1300 L 260,1320 L 300,1320" stroke="#0000b2" stroke-width="4.0" fill="none"/>
<path d="M 200,500 L 260,500 L 260,480 L 300,480" stroke="#0000b2" stroke-width="4.0" fill="none"/>
<path d="M 400,500 L 600,500" stroke="#0000b2" stroke-width="4.0" fill="none"/>
<path d="M 200,820 L 260,820 L 260,800 L 300,800" stroke="#0000b2" stroke-width="4.0" fill="none"/>
<path d="M 400,820 L 600,820" stroke="#0000b2" stroke-width="4.0" fill="none"/>
<path d="M 200,1140 L 260,1140 L 260,1120 L 300,1120" stroke="#0000b2" stroke-width="4.0" fill="none"/>
<path d="M 400,1140 L 600,1140" stroke="#0000b2" stroke-width="4.0" fill="none"/>
<path d="M 200,1460 L 260,1460 L 260,1440 L 300,1440" stroke="#0000b2" stroke-width="4.0" fill="none"/>
<path d="M 400,1460 L 600,1460" stroke="#0000b2" stroke-width="4.0" fill="none"/>
<path d="M 260,420 L 260,440 L 300,440" stroke="#0000b2" stroke-width="4.0" fill="none"/>
<path d="M 260,740 L 260,760 L 300,760" stroke="#0000b2" stroke-width="4.0" fill="none"/>
<path d="M 260,1060 L 260,1080 L 300,1080" stroke="#0000b2" stroke-width="4.0" fill="none"/>
<path d="M 260,1380 L 260,1400 L 300,1400" stroke="#0000b2" stroke-width="4.0" fill="none"/>
<path d="M 180,260 L 190,260 L 200,260" stroke="#000000" stroke-width="4.0" fill="none"/>
<path d="M 200,340 L 190,340" stroke="#000000" stroke-width="4.0" fill="none"/>
<path d="M 200,420 L 190,420" stroke="#000000" stroke-width="4.0" fill="none"/>
<path d="M 200,500 L 190,500" stroke="#000000" stroke-width="4.0" fill="none"/>
<path d="M 200,580 L 190,580" stroke="#000000" stroke-width="4.0" fill="none"/>
<path d="M 200,660 L 190,660" stroke="#000000" stroke-width="4.0" fill="none"/>
<path d="M 200,740 L 190,740" stroke="#000000" stroke-width="4.0" fill="none"/>
<path d="M 200,820 L 190,820" stroke="#000000" stroke-width="4.0" fill="none"/>
<path d="M 200,900 L 190,900" stroke="#000000" stroke-width="4.0" fill="none"/>
<path d="M 200,980 L 190,980" stroke="#000000" stroke-width="4.0" fill="none"/>
<path d="M 200,1060 L 190,1060" stroke="#000000" stroke-width="4.0" fill="none"/>
<path d="M 200,1140 L 190,1140" stroke="#000000" stroke-width="4.0" fill="none"/>
<path d="M 200,1220 L 190,1220" stroke="#000000" stroke-width="4.0" fill="none"/>
<path d="M 200,1300 L 190,1300" stroke="#000000" stroke-width="4.0" fill="none"/>
<path d="M 200,1380 L 190,1380" stroke="#000000" stroke-width="4.0" fill="none"/>
<path d="M 200,1460 L 190,1460" stroke="#000000" stroke-width="4.0" fill="none"/>
<path d="M 600,260 L 610,260 L 620,260" stroke="#000000" stroke-width="4.0" fill="none"/>
<path d="M 600,340 L 610,340" stroke="#000000" stroke-width="4.0" fill="none"/>
<path d="M 600,420 L 610,420" stroke="#000000" stroke-width="4.0" fill="none"/>
<path d="M 600,500 L 610,500" stroke="#000000" stroke-width="4.0" fill="none"/>
<path d="M 600,580 L 610,580" stroke="#000000" stroke-width="4.0" fill="none"/>
<path d="M 600,660 L 610,660" stroke="#000000" stroke-width="4.0" fill="none"/>
<path d="M 600,740 L 610,740" stroke="#000000" stroke-width="4.0" fill="none"/>
<path d="M 600,820 L 610,820" stroke="#000000" stroke-width="4.0" fill="none"/>
<path d="M 600,900 L 610,900" stroke="#000000" stroke-width="4.0" fill="none"/>
<path d="M 600,980 L 610,980" stroke="#000000" stroke-width="4.0" fill="none"/>
<path d="M 600,1060 L 610,1060" stroke="#000000" stroke-width="4.0" fill="none"/>
<path d="M 600,1140 L 610,1140" stroke="#000000" stroke-width="4.0" fill="none"/>
<path d="M 600,1220 L 610,1220" stroke="#000000" stroke-width="4.0" fill="none"/>
<path d="M 600,1300 L 610,1300" stroke="#000000" stroke-width="4.0" fill="none"/>
<path d="M 600,1380 L 610,1380" stroke="#000000" stroke-width="4.0" fill="none"/>
<path d="M 600,1460 L 610,1460" stroke="#000000" stroke-width="4.0" fill="none"/>
<g>
<circle cx="260.0" cy="260.0" r="4.0" stroke="#0000b2" stroke-width="4.0" fill="#0000b2" />
<circle cx="260.0" cy="580.0" r="4.0" stroke="#0000b2" stroke-width="4.0" fill="#0000b2" />
<circle cx="260.0" cy="900.0" r="4.0" stroke="#0000b2" stroke-width="4.0" fill="#0000b2" />
<circle cx="260.0" cy="1220.0" r="4.0" stroke="#0000b2" stroke-width="4.0" fill="#0000b2" />
<circle cx="260.0" cy="340.0" r="4.0" stroke="#0000b2" stroke-width="4.0" fill="#0000b2" />
<circle cx="260.0" cy="660.0" r="4.0" stroke="#0000b2" stroke-width="4.0" fill="#0000b2" />
<circle cx="260.0" cy="980.0" r="4.0" stroke="#0000b2" stroke-width="4.0" fill="#0000b2" />
<circle cx="260.0" cy="1300.0" r="4.0" stroke="#0000b2" stroke-width="4.0" fill="#0000b2" />
<circle cx="260.0" cy="420.0" r="4.0" stroke="#0000b2" stroke-width="4.0" fill="#0000b2" />
<circle cx="260.0" cy="740.0" r="4.0" stroke="#0000b2" stroke-width="4.0" fill="#0000b2" />
<circle cx="260.0" cy="1060.0" r="4.0" stroke="#0000b2" stroke-width="4.0" fill="#0000b2" />
<circle cx="260.0" cy="1380.0" r="4.0" stroke="#0000b2" stroke-width="4.0" fill="#0000b2" />
<circle cx="260.0" cy="500.0" r="4.0" stroke="#0000b2" stroke-width="4.0" fill="#0000b2" />
<circle cx="260.0" cy="820.0" r="4.0" stroke="#0000b2" stroke-width="4.0" fill="#0000b2" />
<circle cx="260.0" cy="1140.0" r="4.0" stroke="#0000b2" stroke-width="4.0" fill="#0000b2" />
<circle cx="260.0" cy="1460.0" r="4.0" stroke="#0000b2" stroke-width="4.0" fill="#0000b2" />
</g>
<g>
<path d="M 350,1010 L 301,1010 L 301,950 L 350,950 C 360,950 380,960 379,980 C 379,1000 360,1010 350,1010 Z" stroke="#000000" stroke-width="4.0" fill="none"/>
<circle cx="390.0" cy="980.0" r="9.0" stroke="#000000" stroke-width="4.0" fill="none" />
<circle cx="300.0" cy="960.0" r="2.0" stroke="#0000b2" stroke-width="4.0" fill="#0000b2" />
<circle cx="300.0" cy="1000.0" r="2.0" stroke="#0000b2" stroke-width="4.0" fill="#0000b2" />
<circle cx="400.0" cy="980.0" r="2.0" stroke="#b20000" stroke-width="4.0" fill="#b20000" />
</g>
<g>
<path d="M 350,290 L 301,290 L 301,230 L 350,230 C 360,230 380,240 379,260 C 379,280 360,290 350,290 Z" stroke="#000000" stroke-width="4.0" fill="none"/>
<circle cx="390.0" cy="260.0" r="9.0" stroke="#000000" stroke-width="4.0" fill="none" />
<circle cx="300.0" cy="240.0" r="2.0" stroke="#0000b2" stroke-width="4.0" fill="#0000b2" />
<circle cx="300.0" cy="280.0" r="2.0" stroke="#0000b2" stroke-width="4.0" fill="#0000b2" />
<circle cx="400.0" cy="260.0" r="2.0" stroke="#b20000" stroke-width="4.0" fill="#b20000" />
</g>
<g>
<path d="M 350,370 L 301,370 L 301,310 L 350,310 C 360,310 380,320 379,340 C 379,360 360,370 350,370 Z" stroke="#000000" stroke-width="4.0" fill="none"/>
<circle cx="390.0" cy="340.0" r="9.0" stroke="#000000" stroke-width="4.0" fill="none" />
<circle cx="300.0" cy="320.0" r="2.0" stroke="#0000b2" stroke-width="4.0" fill="#0000b2" />
<circle cx="300.0" cy="360.0" r="2.0" stroke="#0000b2" stroke-width="4.0" fill="#0000b2" />
<circle cx="400.0" cy="340.0" r="2.0" stroke="#b20000" stroke-width="4.0" fill="#b20000" />
</g>
<g>
<path d="M 350,450 L 301,450 L 301,390 L 350,390 C 360,390 380,400 379,420 C 379,440 360,450 350,450 Z" stroke="#000000" stroke-width="4.0" fill="none"/>
<circle cx="390.0" cy="420.0" r="9.0" stroke="#000000" stroke-width="4.0" fill="none" />
<circle cx="300.0" cy="400.0" r="2.0" stroke="#0000b2" stroke-width="4.0" fill="#0000b2" />
<circle cx="300.0" cy="440.0" r="2.0" stroke="#0000b2" stroke-width="4.0" fill="#0000b2" />
<circle cx="400.0" cy="420.0" r="2.0" stroke="#b20000" stroke-width="4.0" fill="#b20000" />
</g>
<g>
<path d="M 350,1410 L 301,1410 L 301,1350 L 350,1350 C 360,1350 380,1360 379,1380 C 379,1400 360,1410 350,1410 Z" stroke="#000000" stroke-width="4.0" fill="none"/>
<circle cx="390.0" cy="1380.0" r="9.0" stroke="#000000" stroke-width="4.0" fill="none" />
<circle cx="300.0" cy="1360.0" r="2.0" stroke="#0000b2" stroke-width="4.0" fill="#0000b2" />
<circle cx="300.0" cy="1400.0" r="2.0" stroke="#0000b2" stroke-width="4.0" fill="#0000b2" />
<circle cx="400.0" cy="1380.0" r="2.0" stroke="#b20000" stroke-width="4.0" fill="#b20000" />
</g>
<g>
<path d="M 350,1490 L 301,1490 L 301,1430 L 350,1430 C 360,1430 380,1440 379,1460 C 379,1480 360,1490 350,1490 Z" stroke="#000000" stroke-width="4.0" fill="none"/>
<circle cx="390.0" cy="1460.0" r="9.0" stroke="#000000" stroke-width="4.0" fill="none" />
<circle cx="300.0" cy="1440.0" r="2.0" stroke="#0000b2" stroke-width="4.0" fill="#0000b2" />
<circle cx="300.0" cy="1480.0" r="2.0" stroke="#0000b2" stroke-width="4.0" fill="#0000b2" />
<circle cx="400.0" cy="1460.0" r="2.0" stroke="#b20000" stroke-width="4.0" fill="#b20000" />
</g>
<g>
<path d="M 350,930 L 301,930 L 301,870 L 350,870 C 360,870 380,880 379,900 C 379,920 360,930 350,930 Z" stroke="#000000" stroke-width="4.0" fill="none"/>
<circle cx="390.0" cy="900.0" r="9.0" stroke="#000000" stroke-width="4.0" fill="none" />
<circle cx="300.0" cy="880.0" r="2.0" stroke="#0000b2" stroke-width="4.0" fill="#0000b2" />
<circle cx="300.0" cy="920.0" r="2.0" stroke="#0000b2" stroke-width="4.0" fill="#0000b2" />
<circle cx="400.0" cy="900.0" r="2.0" stroke="#b20000" stroke-width="4.0" fill="#b20000" />
</g>
<g>
<path d="M 350,850 L 301,850 L 301,790 L 350,790 C 360,790 380,800 379,820 C 379,840 360,850 350,850 Z" stroke="#000000" stroke-width="4.0" fill="none"/>
<circle cx="390.0" cy="820.0" r="9.0" stroke="#000000" stroke-width="4.0" fill="none" />
<circle cx="300.0" cy="800.0" r="2.0" stroke="#0000b2" stroke-width="4.0" fill="#0000b2" />
<circle cx="300.0" cy="840.0" r="2.0" stroke="#0000b2" stroke-width="4.0" fill="#0000b2" />
<circle cx="400.0" cy="820.0" r="2.0" stroke="#b20000" stroke-width="4.0" fill="#b20000" />
</g>
<g>
<path d="M 350,1170 L 301,1170 L 301,1110 L 350,1110 C 360,1110 380,1120 379,1140 C 379,1160 360,1170 350,1170 Z" stroke="#000000" stroke-width="4.0" fill="none"/>
<circle cx="390.0" cy="1140.0" r="9.0" stroke="#000000" stroke-width="4.0" fill="none" />
<circle cx="300.0" cy="1120.0" r="2.0" stroke="#0000b2" stroke-width="4.0" fill="#0000b2" />
<circle cx="300.0" cy="1160.0" r="2.0" stroke="#0000b2" stroke-width="4.0" fill="#0000b2" />
<circle cx="400.0" cy="1140.0" r="2.0" stroke="#b20000" stroke-width="4.0" fill="#b20000" />
</g>
<g>
<path d="M 350,530 L 301,530 L 301,470 L 350,470 C 360,470 380,480 379,500 C 379,520 360,530 350,530 Z" stroke="#000000" stroke-width="4.0" fill="none"/>
<circle cx="390.0" cy="500.0" r="9.0" stroke="#000000" stroke-width="4.0" fill="none" />
<circle cx="300.0" cy="480.0" r="2.0" stroke="#0000b2" stroke-width="4.0" fill="#0000b2" />
<circle cx="300.0" cy="520.0" r="2.0" stroke="#0000b2" stroke-width="4.0" fill="#0000b2" />
<circle cx="400.0" cy="500.0" r="2.0" stroke="#b20000" stroke-width="4.0" fill="#b20000" />
</g>
<g>
<path d="M 350,1250 L 301,1250 L 301,1190 L 350,1190 C 360,1190 380,1200 379,1220 C 379,1240 360,1250 350,1250 Z" stroke="#000000" stroke-width="4.0" fill="none"/>
<circle cx="390.0" cy="1220.0" r="9.0" stroke="#000000" stroke-width="4.0" fill="none" />
<circle cx="300.0" cy="1200.0" r="2.0" stroke="#0000b2" stroke-width="4.0" fill="#0000b2" />
<circle cx="300.0" cy="1240.0" r="2.0" stroke="#0000b2" stroke-width="4.0" fill="#0000b2" />
<circle cx="400.0" cy="1220.0" r="2.0" stroke="#b20000" stroke-width="4.0" fill="#b20000" />
</g>
<g>
<path d="M 350,1090 L 301,1090 L 301,1030 L 350,1030 C 360,1030 380,1040 379,1060 C 379,1080 360,1090 350,1090 Z" stroke="#000000" stroke-width="4.0" fill="none"/>
<circle cx="390.0" cy="1060.0" r="9.0" stroke="#000000" stroke-width="4.0" fill="none" />
<circle cx="300.0" cy="1040.0" r="2.0" stroke="#0000b2" stroke-width="4.0" fill="#0000b2" />
<circle cx="300.0" cy="1080.0" r="2.0" stroke="#0000b2" stroke-width="4.0" fill="#0000b2" />
<circle cx="400.0" cy="1060.0" r="2.0" stroke="#b20000" stroke-width="4.0" fill="#b20000" />
</g>
<g>
<path d="M 350,610 L 301,610 L 301,550 L 350,550 C 360,550 380,560 379,580 C 379,600 360,610 350,610 Z" stroke="#000000" stroke-width="4.0" fill="none"/>
<circle cx="390.0" cy="580.0" r="9.0" stroke="#000000" stroke-width="4.0" fill="none" />
<circle cx="300.0" cy="560.0" r="2.0" stroke="#0000b2" stroke-width="4.0" fill="#0000b2" />
<circle cx="300.0" cy="600.0" r="2.0" stroke="#0000b2" stroke-width="4.0" fill="#0000b2" />
<circle cx="400.0" cy="580.0" r="2.0" stroke="#b20000" stroke-width="4.0" fill="#b20000" />
</g>
<g>
<path d="M 350,770 L 301,770 L 301,710 L 350,710 C 360,710 380,720 379,740 C 379,760 360,770 350,770 Z" stroke="#000000" stroke-width="4.0" fill="none"/>
<circle cx="390.0" cy="740.0" r="9.0" stroke="#000000" stroke-width="4.0" fill="none" />
<circle cx="300.0" cy="720.0" r="2.0" stroke="#0000b2" stroke-width="4.0" fill="#0000b2" />
<circle cx="300.0" cy="760.0" r="2.0" stroke="#0000b2" stroke-width="4.0" fill="#0000b2" />
<circle cx="400.0" cy="740.0" r="2.0" stroke="#b20000" stroke-width="4.0" fill="#b20000" />
</g>
<g>
<path d="M 350,690 L 301,690 L 301,630 L 350,630 C 360,630 380,640 379,660 C 379,680 360,690 350,690 Z" stroke="#000000" stroke-width="4.0" fill="none"/>
<circle cx="390.0" cy="660.0" r="9.0" stroke="#000000" stroke-width="4.0" fill="none" />
<circle cx="300.0" cy="640.0" r="2.0" stroke="#0000b2" stroke-width="4.0" fill="#0000b2" />
<circle cx="300.0" cy="680.0" r="2.0" stroke="#0000b2" stroke-width="4.0" fill="#0000b2" />
<circle cx="400.0" cy="660.0" r="2.0" stroke="#b20000" stroke-width="4.0" fill="#b20000" />
</g>
<g>
<path d="M 350,1330 L 301,1330 L 301,1270 L 350,1270 C 360,1270 380,1280 379,1300 C 379,1320 360,1330 350,1330 Z" stroke="#000000" stroke-width="4.0" fill="none"/>
<circle cx="390.0" cy="1300.0" r="9.0" stroke="#000000" stroke-width="4.0" fill="none" />
<circle cx="300.0" cy="1280.0" r="2.0" stroke="#0000b2" stroke-width="4.0" fill="#0000b2" />
<circle cx="300.0" cy="1320.0" r="2.0" stroke="#0000b2" stroke-width="4.0" fill="#0000b2" />
<circle cx="400.0" cy="1300.0" r="2.0" stroke="#b20000" stroke-width="4.0" fill="#b20000" />
</g>
<g>
<path d="M 69,245 L 99,245 L 99,275 L 69,275 Z" stroke="#000000" stroke-width="4.0" fill="none"/>
<circle cx="84.0" cy="260.0" r="9.0" stroke="#000000" stroke-width="4.0" fill="none" />
<text text-anchor="end" x="55.0" y="269.0" fill="#000000" style="font-size:24px"><tspan style="font-style:italic;">IN</tspan></text>
<circle cx="100.0" cy="260.0" r="2.0" stroke="#b20000" stroke-width="4.0" fill="#b20000" />
</g>
<g>
<circle cx="716.0" cy="260.0" r="9.0" stroke="#000000" stroke-width="4.0" fill="none" />
<circle cx="716.0" cy="260.0" r="15.0" stroke="#000000" stroke-width="4.0" fill="none" />
<text text-anchor="start" x="745.0" y="269.0" fill="#000000" style="font-size:24px"><tspan style="font-style:italic;">OUT</tspan></text>
<circle cx="700.0" cy="260.0" r="2.0" stroke="#0000b2" stroke-width="4.0" fill="#0000b2" />
</g>
<g>
<text text-anchor="end" x="178.0" y="257.0" fill="#808080" style="font-size:12px">0-15</text>
<text text-anchor="start" x="202.0" y="257.0" fill="#808080" style="font-size:12px">0</text>
<text text-anchor="start" x="202.0" y="337.0" fill="#808080" style="font-size:12px">1</text>
<text text-anchor="start" x="202.0" y="417.0" fill="#808080" style="font-size:12px">2</text>
<text text-anchor="start" x="202.0" y="497.0" fill="#808080" style="font-size:12px">3</text>
<text text-anchor="start" x="202.0" y="577.0" fill="#808080" style="font-size:12px">4</text>
<text text-anchor="start" x="202.0" y="657.0" fill="#808080" style="font-size:12px">5</text>
<text text-anchor="start" x="202.0" y="737.0" fill="#808080" style="font-size:12px">6</text>
<text text-anchor="start" x="202.0" y="817.0" fill="#808080" style="font-size:12px">7</text>
<text text-anchor="start" x="202.0" y="897.0" fill="#808080" style="font-size:12px">8</text>
<text text-anchor="start" x="202.0" y="977.0" fill="#808080" style="font-size:12px">9</text>
<text text-anchor="start" x="202.0" y="1057.0" fill="#808080" style="font-size:12px">10</text>
<text text-anchor="start" x="202.0" y="1137.0" fill="#808080" style="font-size:12px">11</text>
<text text-anchor="start" x="202.0" y="1217.0" fill="#808080" style="font-size:12px">12</text>
<text text-anchor="start" x="202.0" y="1297.0" fill="#808080" style="font-size:12px">13</text>
<text text-anchor="start" x="202.0" y="1377.0" fill="#808080" style="font-size:12px">14</text>
<text text-anchor="start" x="202.0" y="1457.0" fill="#808080" style="font-size:12px">15</text>
<path d="M 188,258 L 192,258 L 192,1462 L 188,1462 Z" stroke="#000000" stroke-width="4.0" fill="#000000" fill-opacity="1.0"/>
<circle cx="180.0" cy="260.0" r="2.0" stroke="#0000b2" stroke-width="4.0" fill="#0000b2" />
<circle cx="200.0" cy="260.0" r="2.0" stroke="#b20000" stroke-width="4.0" fill="#b20000" />
<circle cx="200.0" cy="340.0" r="2.0" stroke="#b20000" stroke-width="4.0" fill="#b20000" />
<circle cx="200.0" cy="420.0" r="2.0" stroke="#b20000" stroke-width="4.0" fill="#b20000" />
<circle cx="200.0" cy="500.0" r="2.0" stroke="#b20000" stroke-width="4.0" fill="#b20000" />
<circle cx="200.0" cy="580.0" r="2.0" stroke="#b20000" stroke-width="4.0" fill="#b20000" />
<circle cx="200.0" cy="660.0" r="2.0" stroke="#b20000" stroke-width="4.0" fill="#b20000" />
<circle cx="200.0" cy="740.0" r="2.0" stroke="#b20000" stroke-width="4.0" fill="#b20000" />
<circle cx="200.0" cy="820.0" r="2.0" stroke="#b20000" stroke-width="4.0" fill="#b20000" />
<circle cx="200.0" cy="900.0" r="2.0" stroke="#b20000" stroke-width="4.0" fill="#b20000" />
<circle cx="200.0" cy="980.0" r="2.0" stroke="#b20000" stroke-width="4.0" fill="#b20000" />
<circle cx="200.0" cy="1060.0" r="2.0" stroke="#b20000" stroke-width="4.0" fill="#b20000" />
<circle cx="200.0" cy="1140.0" r="2.0" stroke="#b20000" stroke-width="4.0" fill="#b20000" />
<circle cx="200.0" cy="1220.0" r="2.0" stroke="#b20000" stroke-width="4.0" fill="#b20000" />
<circle cx="200.0" cy="1300.0" r="2.0" stroke="#b20000" stroke-width="4.0" fill="#b20000" />
<circle cx="200.0" cy="1380.0" r="2.0" stroke="#b20000" stroke-width="4.0" fill="#b20000" />
<circle cx="200.0" cy="1460.0" r="2.0" stroke="#b20000" stroke-width="4.0" fill="#b20000" />
</g>
<g>
<text text-anchor="end" x="598.0" y="257.0" fill="#808080" style="font-size:12px">0</text>
<text text-anchor="end" x="598.0" y="337.0" fill="#808080" style="font-size:12px">1</text>
<text text-anchor="end" x="598.0" y="417.0" fill="#808080" style="font-size:12px">2</text>
<text text-anchor="end" x="598.0" y="497.0" fill="#808080" style="font-size:12px">3</text>
<text text-anchor="end" x="598.0" y="577.0" fill="#808080" style="font-size:12px">4</text>
<text text-anchor="end" x="598.0" y="657.0" fill="#808080" style="font-size:12px">5</text>
<text text-anchor="end" x="598.0" y="737.0" fill="#808080" style="font-size:12px">6</text>
<text text-anchor="end" x="598.0" y="817.0" fill="#808080" style="font-size:12px">7</text>
<text text-anchor="end" x="598.0" y="897.0" fill="#808080" style="font-size:12px">8</text>
<text text-anchor="end" x="598.0" y="977.0" fill="#808080" style="font-size:12px">9</text>
<text text-anchor="end" x="598.0" y="1057.0" fill="#808080" style="font-size:12px">10</text>
<text text-anchor="end" x="598.0" y="1137.0" fill="#808080" style="font-size:12px">11</text>
<text text-anchor="end" x="598.0" y="1217.0" fill="#808080" style="font-size:12px">12</text>
<text text-anchor="end" x="598.0" y="1297.0" fill="#808080" style="font-size:12px">13</text>
<text text-anchor="end" x="598.0" y="1377.0" fill="#808080" style="font-size:12px">14</text>
<text text-anchor="end" x="598.0" y="1457.0" fill="#808080" style="font-size:12px">15</text>
<text text-anchor="start" x="622.0" y="257.0" fill="#808080" style="font-size:12px">0-15</text>
<path d="M 608,258 L 612,258 L 612,1462 L 608,1462 Z" stroke="#000000" stroke-width="4.0" fill="#000000" fill-opacity="1.0"/>
<circle cx="600.0" cy="260.0" r="2.0" stroke="#0000b2" stroke-width="4.0" fill="#0000b2" />
<circle cx="600.0" cy="340.0" r="2.0" stroke="#0000b2" stroke-width="4.0" fill="#0000b2" />
<circle cx="600.0" cy="420.0" r="2.0" stroke="#0000b2" stroke-width="4.0" fill="#0000b2" />
<circle cx="600.0" cy="500.0" r="2.0" stroke="#0000b2" stroke-width="4.0" fill="#0000b2" />
<circle cx="600.0" cy="580.0" r="2.0" stroke="#0000b2" stroke-width="4.0" fill="#0000b2" />
<circle cx="600.0" cy="660.0" r="2.0" stroke="#0000b2" stroke-width="4.0" fill="#0000b2" />
<circle cx="600.0" cy="740.0" r="2.0" stroke="#0000b2" stroke-width="4.0" fill="#0000b2" />
<circle cx="600.0" cy="820.0" r="2.0" stroke="#0000b2" stroke-width="4.0" fill="#0000b2" />
<circle cx="600.0" cy="900.0" r="2.0" stroke="#0000b2" stroke-width="4.0" fill="#0000b2" />
<circle cx="600.0" cy="980.0" r="2.0" stroke="#0000b2" stroke-width="4.0" fill="#0000b2" />
<circle cx="600.0" cy="1060.0" r="2.0" stroke="#0000b2" stroke-width="4.0" fill="#0000b2" />
<circle cx="600.0" cy="1140.0" r="2.0" stroke="#0000b2" stroke-width="4.0" fill="#0000b2" />
<circle cx="600.0" cy="1220.0" r="2.0" stroke="#0000b2" stroke-width="4.0" fill="#0000b2" />
<circle cx="600.0" cy="1300.0" r="2.0" stroke="#0000b2" stroke-width="4.0" fill="#0000b2" />
<circle cx="600.0" cy="1380.0" r="2.0" stroke="#0000b2" stroke-width="4.0" fill="#0000b2" />
<circle cx="600.0" cy="1460.0" r="2.0" stroke="#0000b2" stroke-width="4.0" fill="#0000b2" />
<circle cx="620.0" cy="260.0" r="2.0" stroke="#b20000" stroke-width="4.0" fill="#b20000" />
</g>
</g>
</svg>