<?xml version="1.0" encoding="UTF-8" standalone="no"?>
<!-- Created with Digital by H.Neemann -->
<!-- created: Mon Aug 30 22:52:02 MST 2021 -->

<svg
   xmlns:svg="http://www.w3.org/2000/svg"
   xmlns="http://www.w3.org/2000/svg"
   width="152.85mm"
   height="70.05mm"
   viewBox="40 50 1019 467">
<g stroke-linecap="square">
<path d="M 840,320 L 960,320" stroke="#0000b2" stroke-width="4.0" fill="none"/>
<path d="M 140,240 L 520,240" stroke="#0000b2" stroke-width="4.0" fill="none"/>
<path d="M 240,220 L 240,400 L 520,400" stroke="#0000b2" stroke-width="4.0" fill="none"/>
<path d="M 620,420 L 680,420 L 680,340 L 740,340" stroke="#0000b2" stroke-width="4.0" fill="none"/>
<path d="M 240,140 L 240,180 L 340,180" stroke="#0000b2" stroke-width="4.0" fill="none"/>
<path d="M 140,500 L 240,500 L 240,440 L 520,440" stroke="#0000b2" stroke-width="4.0" fill="none"/>
<path d="M 440,200 L 520,200" stroke="#0000b2" stroke-width="4.0" fill="none"/>
<path d="M 620,220 L 680,220 L 680,300 L 740,300" stroke="#0000b2" stroke-width="4.0" fill="none"/>
<path d="M 240,180 L 240,220 L 340,220" stroke="#0000b2" stroke-width="4.0" fill="none"/>
<g>
<circle cx="240.0" cy="180.0" r="4.0" stroke="#0000b2" stroke-width="4.0" fill="#0000b2" />
<circle cx="240.0" cy="220.0" r="4.0" stroke="#0000b2" stroke-width="4.0" fill="#0000b2" />
</g>
<g>
<path d="M 109,225 L 139,225 L 139,255 L 109,255 Z" stroke="#000000" stroke-width="4.0" fill="none"/>
<circle cx="124.0" cy="240.0" r="9.0" stroke="#000000" stroke-width="4.0" fill="none" />
<text text-anchor="end" x="95.0" y="249.0" fill="#000000" style="font-size:24px"><tspan style="font-style:italic;">IN A</tspan></text>
<circle cx="140.0" cy="240.0" r="2.0" stroke="#b20000" stroke-width="4.0" fill="#b20000" />
</g>
<g>
<path d="M 109,485 L 139,485 L 139,515 L 109,515 Z" stroke="#000000" stroke-width="4.0" fill="none"/>
<circle cx="124.0" cy="500.0" r="9.0" stroke="#000000" stroke-width="4.0" fill="none" />
<text text-anchor="end" x="95.0" y="509.0" fill="#000000" style="font-size:24px"><tspan style="font-style:italic;">IN B</tspan></text>
<circle cx="140.0" cy="500.0" r="2.0" stroke="#b20000" stroke-width="4.0" fill="#b20000" />
</g>
<g>
<path d="M 570,450 L 521,450 L 521,390 L 570,390 C 580,390 600,400 599,420 C 599,440 580,450 570,450 Z" stroke="#000000" stroke-width="4.0" fill="none"/>
<circle cx="610.0" cy="420.0" r="9.0" stroke="#000000" stroke-width="4.0" fill="none" />
<circle cx="520.0" cy="400.0" r="2.0" stroke="#0000b2" stroke-width="4.0" fill="#0000b2" />
<circle cx="520.0" cy="440.0" r="2.0" stroke="#0000b2" stroke-width="4.0" fill="#0000b2" />
<circle cx="620.0" cy="420.0" r="2.0" stroke="#b20000" stroke-width="4.0" fill="#b20000" />
</g>
<g>
<path d="M 390,230 L 341,230 L 341,170 L 390,170 C 400,170 420,180 419,200 C 419,220 400,230 390,230 Z" stroke="#000000" stroke-width="4.0" fill="none"/>
<circle cx="430.0" cy="200.0" r="9.0" stroke="#000000" stroke-width="4.0" fill="none" />
<circle cx="340.0" cy="180.0" r="2.0" stroke="#0000b2" stroke-width="4.0" fill="#0000b2" />
<circle cx="340.0" cy="220.0" r="2.0" stroke="#0000b2" stroke-width="4.0" fill="#0000b2" />
<circle cx="440.0" cy="200.0" r="2.0" stroke="#b20000" stroke-width="4.0" fill="#b20000" />
</g>
<g>
<path d="M 570,250 L 521,250 L 521,190 L 570,190 C 580,190 600,200 599,220 C 599,240 580,250 570,250 Z" stroke="#000000" stroke-width="4.0" fill="none"/>
<circle cx="610.0" cy="220.0" r="9.0" stroke="#000000" stroke-width="4.0" fill="none" />
<circle cx="520.0" cy="200.0" r="2.0" stroke="#0000b2" stroke-width="4.0" fill="#0000b2" />
<circle cx="520.0" cy="240.0" r="2.0" stroke="#0000b2" stroke-width="4.0" fill="#0000b2" />
<circle cx="620.0" cy="220.0" r="2.0" stroke="#b20000" stroke-width="4.0" fill="#b20000" />
</g>
<g>
<circle cx="976.0" cy="320.0" r="9.0" stroke="#000000" stroke-width="4.0" fill="none" />
<circle cx="976.0" cy="320.0" r="15.0" stroke="#000000" stroke-width="4.0" fill="none" />
<text text-anchor="start" x="1005.0" y="329.0" fill="#000000" style="font-size:24px"><tspan style="font-style:italic;">OUT</tspan></text>
<circle cx="960.0" cy="320.0" r="2.0" stroke="#0000b2" stroke-width="4.0" fill="#0000b2" />
</g>
<g>
<path d="M 790,350 L 741,350 L 741,290 L 790,290 C 800,290 820,300 819,320 C 819,340 800,350 790,350 Z" stroke="#000000" stroke-width="4.0" fill="none"/>
<circle cx="830.0" cy="320.0" r="9.0" stroke="#000000" stroke-width="4.0" fill="none" />
<circle cx="740.0" cy="300.0" r="2.0" stroke="#0000b2" stroke-width="4.0" fill="#0000b2" />
<circle cx="740.0" cy="340.0" r="2.0" stroke="#0000b2" stroke-width="4.0" fill="#0000b2" />
<circle cx="840.0" cy="320.0" r="2.0" stroke="#b20000" stroke-width="4.0" fill="#b20000" />
</g>
<g>
<path d="M 255,109 L 255,139 L 225,139 L 225,109 Z" stroke="#000000" stroke-width="4.0" fill="none"/>
<circle cx="240.0" cy="124.0" r="9.0" stroke="#000000" stroke-width="4.0" fill="none" />
<text text-anchor="start" x="240.0" y="104.0" fill="#000000" style="font-size:24px" transform="rotate(-90,240.0,95.0)" ><tspan style="font-style:italic;">SEL</tspan></text>
<circle cx="240.0" cy="140.0" r="2.0" stroke="#b20000" stroke-width="4.0" fill="#b20000" />
</g>
</g>
</svg>