<?xml version="1.0" encoding="UTF-8" standalone="no"?>
<!-- Created with Digital by H.Neemann -->
<!-- created: Mon Aug 30 22:51:45 MST 2021 -->

<svg
   xmlns:svg="http://www.w3.org/2000/svg"
   xmlns="http://www.w3.org/2000/svg"
   width="149.85mm"
   height="11.1mm"
   viewBox="0 243 999 74">
<g stroke-linecap="square">
<path d="M 100,260 L 320,260" stroke="#0000b2" stroke-width="4.0" fill="none"/>
<path d="M 420,280 L 520,280 L 520,260 L 640,260" stroke="#0000b2" stroke-width="4.0" fill="none"/>
<path d="M 740,280 L 900,280" stroke="#0000b2" stroke-width="4.0" fill="none"/>
<path d="M 520,280 L 520,300 L 640,300" stroke="#0000b2" stroke-width="4.0" fill="none"/>
<path d="M 100,300 L 320,300" stroke="#0000b2" stroke-width="4.0" fill="none"/>
<g>
<circle cx="520.0" cy="280.0" r="4.0" stroke="#0000b2" stroke-width="4.0" fill="#0000b2" />
</g>
<g>
<path d="M 69,245 L 99,245 L 99,275 L 69,275 Z" stroke="#000000" stroke-width="4.0" fill="none"/>
<circle cx="84.0" cy="260.0" r="9.0" stroke="#000000" stroke-width="4.0" fill="none" />
<text text-anchor="end" x="55.0" y="269.0" fill="#000000" style="font-size:24px"><tspan style="font-style:italic;">IN A</tspan></text>
<circle cx="100.0" cy="260.0" r="2.0" stroke="#b20000" stroke-width="4.0" fill="#b20000" />
</g>
<g>
<circle cx="916.0" cy="280.0" r="9.0" stroke="#000000" stroke-width="4.0" fill="none" />
<circle cx="916.0" cy="280.0" r="15.0" stroke="#000000" stroke-width="4.0" fill="none" />
<text text-anchor="start" x="945.0" y="289.0" fill="#000000" style="font-size:24px"><tspan style="font-style:italic;">OUT</tspan></text>
<circle cx="900.0" cy="280.0" r="2.0" stroke="#0000b2" stroke-width="4.0" fill="#0000b2" />
</g>
<g>
<path d="M 370,310 L 321,310 L 321,250 L 370,250 C 380,250 400,260 399,280 C 399,300 380,310 370,310 Z" stroke="#000000" stroke-width="4.0" fill="none"/>
<circle cx="410.0" cy="280.0" r="9.0" stroke="#000000" stroke-width="4.0" fill="none" />
<circle cx="320.0" cy="260.0" r="2.0" stroke="#0000b2" stroke-width="4.0" fill="#0000b2" />
<circle cx="320.0" cy="300.0" r="2.0" stroke="#0000b2" stroke-width="4.0" fill="#0000b2" />
<circle cx="420.0" cy="280.0" r="2.0" stroke="#b20000" stroke-width="4.0" fill="#b20000" />
</g>
<g>
<path d="M 690,310 L 641,310 L 641,250 L 690,250 C 700,250 720,260 719,280 C 719,300 700,310 690,310 Z" stroke="#000000" stroke-width="4.0" fill="none"/>
<circle cx="730.0" cy="280.0" r="9.0" stroke="#000000" stroke-width="4.0" fill="none" />
<circle cx="640.0" cy="260.0" r="2.0" stroke="#0000b2" stroke-width="4.0" fill="#0000b2" />
<circle cx="640.0" cy="300.0" r="2.0" stroke="#0000b2" stroke-width="4.0" fill="#0000b2" />
<circle cx="740.0" cy="280.0" r="2.0" stroke="#b20000" stroke-width="4.0" fill="#b20000" />
</g>
<g>
<path d="M 69,285 L 99,285 L 99,315 L 69,315 Z" stroke="#000000" stroke-width="4.0" fill="none"/>
<circle cx="84.0" cy="300.0" r="9.0" stroke="#000000" stroke-width="4.0" fill="none" />
<text text-anchor="end" x="55.0" y="309.0" fill="#000000" style="font-size:24px"><tspan style="font-style:italic;">IN B</tspan></text>
<circle cx="100.0" cy="300.0" r="2.0" stroke="#b20000" stroke-width="4.0" fill="#b20000" />
</g>
</g>
</svg>