<?xml version="1.0" encoding="UTF-8" standalone="no"?>
<!-- Created with Digital by H.Neemann -->
<!-- created: Mon Aug 30 22:49:47 MST 2021 -->

<svg
   xmlns:svg="http://www.w3.org/2000/svg"
   xmlns="http://www.w3.org/2000/svg"
   width="88.65mm"
   height="9.6mm"
   viewBox="248 268 591 64">
<g stroke-linecap="square">
<path d="M 400,300 L 400,320 L 460,320" stroke="#0000b2" stroke-width="4.0" fill="none"/>
<path d="M 320,300 L 400,300 L 400,280 L 460,280" stroke="#0000b2" stroke-width="4.0" fill="none"/>
<path d="M 560,300 L 740,300" stroke="#0000b2" stroke-width="4.0" fill="none"/>
<g>
<circle cx="400.0" cy="300.0" r="4.0" stroke="#0000b2" stroke-width="4.0" fill="#0000b2" />
</g>
<g>
<path d="M 510,330 L 461,330 L 461,270 L 510,270 C 520,270 540,280 539,300 C 539,320 520,330 510,330 Z" stroke="#000000" stroke-width="4.0" fill="none"/>
<circle cx="550.0" cy="300.0" r="9.0" stroke="#000000" stroke-width="4.0" fill="none" />
<circle cx="460.0" cy="280.0" r="2.0" stroke="#0000b2" stroke-width="4.0" fill="#0000b2" />
<circle cx="460.0" cy="320.0" r="2.0" stroke="#0000b2" stroke-width="4.0" fill="#0000b2" />
<circle cx="560.0" cy="300.0" r="2.0" stroke="#b20000" stroke-width="4.0" fill="#b20000" />
</g>
<g>
<path d="M 289,285 L 319,285 L 319,315 L 289,315 Z" stroke="#000000" stroke-width="4.0" fill="none"/>
<circle cx="304.0" cy="300.0" r="9.0" stroke="#000000" stroke-width="4.0" fill="none" />
<text text-anchor="end" x="275.0" y="309.0" fill="#000000" style="font-size:24px"><tspan style="font-style:italic;">IN</tspan></text>
<circle cx="320.0" cy="300.0" r="2.0" stroke="#b20000" stroke-width="4.0" fill="#b20000" />
</g>
<g>
<circle cx="756.0" cy="300.0" r="9.0" stroke="#000000" stroke-width="4.0" fill="none" />
<circle cx="756.0" cy="300.0" r="15.0" stroke="#000000" stroke-width="4.0" fill="none" />
<text text-anchor="start" x="785.0" y="309.0" fill="#000000" style="font-size:24px"><tspan style="font-style:italic;">OUT</tspan></text>
<circle cx="740.0" cy="300.0" r="2.0" stroke="#0000b2" stroke-width="4.0" fill="#0000b2" />
</g>
</g>
</svg>