<?xml version="1.0" encoding="UTF-8" standalone="no"?>
<!-- Created with Digital by H.Neemann -->
<!-- created: Tue Aug 31 23:40:42 MST 2021 -->

<svg
   xmlns:svg="http://www.w3.org/2000/svg"
   xmlns="http://www.w3.org/2000/svg"
   width="196.65mm"
   height="378.15mm"
   viewBox="12 103 1311 2521">
<g stroke-linecap="square">
<path d="M 300,120 L 310,120 L 320,120" stroke="#000000" stroke-width="4.0" fill="none"/>
<path d="M 320,200 L 310,200" stroke="#000000" stroke-width="4.0" fill="none"/>
<path d="M 320,280 L 310,280" stroke="#000000" stroke-width="4.0" fill="none"/>
<path d="M 320,360 L 310,360" stroke="#000000" stroke-width="4.0" fill="none"/>
<path d="M 320,440 L 310,440" stroke="#000000" stroke-width="4.0" fill="none"/>
<path d="M 320,520 L 310,520" stroke="#000000" stroke-width="4.0" fill="none"/>
<path d="M 320,600 L 310,600" stroke="#000000" stroke-width="4.0" fill="none"/>
<path d="M 320,680 L 310,680" stroke="#000000" stroke-width="4.0" fill="none"/>
<path d="M 320,760 L 310,760" stroke="#000000" stroke-width="4.0" fill="none"/>
<path d="M 320,840 L 310,840" stroke="#000000" stroke-width="4.0" fill="none"/>
<path d="M 320,920 L 310,920" stroke="#000000" stroke-width="4.0" fill="none"/>
<path d="M 320,1000 L 310,1000" stroke="#000000" stroke-width="4.0" fill="none"/>
<path d="M 320,1080 L 310,1080" stroke="#000000" stroke-width="4.0" fill="none"/>
<path d="M 320,1160 L 310,1160" stroke="#000000" stroke-width="4.0" fill="none"/>
<path d="M 320,1240 L 310,1240" stroke="#000000" stroke-width="4.0" fill="none"/>
<path d="M 320,1320 L 310,1320" stroke="#000000" stroke-width="4.0" fill="none"/>
<path d="M 300,1420 L 310,1420 L 320,1420" stroke="#000000" stroke-width="4.0" fill="none"/>
<path d="M 320,1500 L 310,1500" stroke="#000000" stroke-width="4.0" fill="none"/>
<path d="M 320,1580 L 310,1580" stroke="#000000" stroke-width="4.0" fill="none"/>
<path d="M 320,1660 L 310,1660" stroke="#000000" stroke-width="4.0" fill="none"/>
<path d="M 320,1740 L 310,1740" stroke="#000000" stroke-width="4.0" fill="none"/>
<path d="M 320,1820 L 310,1820" stroke="#000000" stroke-width="4.0" fill="none"/>
<path d="M 320,1900 L 310,1900" stroke="#000000" stroke-width="4.0" fill="none"/>
<path d="M 320,1980 L 310,1980" stroke="#000000" stroke-width="4.0" fill="none"/>
<path d="M 320,2060 L 310,2060" stroke="#000000" stroke-width="4.0" fill="none"/>
<path d="M 320,2140 L 310,2140" stroke="#000000" stroke-width="4.0" fill="none"/>
<path d="M 320,2220 L 310,2220" stroke="#000000" stroke-width="4.0" fill="none"/>
<path d="M 320,2300 L 310,2300" stroke="#000000" stroke-width="4.0" fill="none"/>
<path d="M 320,2380 L 310,2380" stroke="#000000" stroke-width="4.0" fill="none"/>
<path d="M 320,2460 L 310,2460" stroke="#000000" stroke-width="4.0" fill="none"/>
<path d="M 320,2540 L 310,2540" stroke="#000000" stroke-width="4.0" fill="none"/>
<path d="M 320,2620 L 310,2620" stroke="#000000" stroke-width="4.0" fill="none"/>
<path d="M 1020,140 L 1030,140 L 1040,140" stroke="#000000" stroke-width="4.0" fill="none"/>
<path d="M 1020,220 L 1030,220" stroke="#000000" stroke-width="4.0" fill="none"/>
<path d="M 1020,300 L 1030,300" stroke="#000000" stroke-width="4.0" fill="none"/>
<path d="M 1020,380 L 1030,380" stroke="#000000" stroke-width="4.0" fill="none"/>
<path d="M 1020,460 L 1030,460" stroke="#000000" stroke-width="4.0" fill="none"/>
<path d="M 1020,540 L 1030,540" stroke="#000000" stroke-width="4.0" fill="none"/>
<path d="M 1020,620 L 1030,620" stroke="#000000" stroke-width="4.0" fill="none"/>
<path d="M 1020,700 L 1030,700" stroke="#000000" stroke-width="4.0" fill="none"/>
<path d="M 1020,780 L 1030,780" stroke="#000000" stroke-width="4.0" fill="none"/>
<path d="M 1020,860 L 1030,860" stroke="#000000" stroke-width="4.0" fill="none"/>
<path d="M 1020,940 L 1030,940" stroke="#000000" stroke-width="4.0" fill="none"/>
<path d="M 1020,1020 L 1030,1020" stroke="#000000" stroke-width="4.0" fill="none"/>
<path d="M 1020,1100 L 1030,1100" stroke="#000000" stroke-width="4.0" fill="none"/>
<path d="M 1020,1180 L 1030,1180" stroke="#000000" stroke-width="4.0" fill="none"/>
<path d="M 1020,1260 L 1030,1260" stroke="#000000" stroke-width="4.0" fill="none"/>
<path d="M 1020,1340 L 1030,1340" stroke="#000000" stroke-width="4.0" fill="none"/>
<path d="M 320,520 L 400,520 L 404,520" stroke="#0000b2" stroke-width="4.0" fill="none"/>
<path d="M 320,1160 L 400,1160 L 404,1160" stroke="#0000b2" stroke-width="4.0" fill="none"/>
<path d="M 320,1420 L 540,1420 L 540,180 L 380,180 L 380,160 L 400,160 L 404,160" stroke="#0000b2" stroke-width="4.0" fill="none"/>
<path d="M 200,1420 L 300,1420" stroke="#0000b2" stroke-width="4.0" fill="none"/>
<path d="M 320,2060 L 700,2060 L 700,820 L 380,820 L 380,800 L 400,800 L 404,800" stroke="#0000b2" stroke-width="4.0" fill="none"/>
<path d="M 1040,140 L 1120,140" stroke="#0000b2" stroke-width="4.0" fill="none"/>
<path d="M 480,140 L 1020,140" stroke="#0000b2" stroke-width="4.0" fill="none"/>
<path d="M 480,780 L 1020,780" stroke="#0000b2" stroke-width="4.0" fill="none"/>
<path d="M 320,280 L 400,280 L 404,280" stroke="#0000b2" stroke-width="4.0" fill="none"/>
<path d="M 320,920 L 400,920 L 404,920" stroke="#0000b2" stroke-width="4.0" fill="none"/>
<path d="M 320,1820 L 640,1820 L 640,580 L 380,580 L 380,560 L 400,560 L 404,560" stroke="#0000b2" stroke-width="4.0" fill="none"/>
<path d="M 320,2460 L 800,2460 L 800,1220 L 380,1220 L 380,1200 L 400,1200 L 404,1200" stroke="#0000b2" stroke-width="4.0" fill="none"/>
<path d="M 480,540 L 1020,540" stroke="#0000b2" stroke-width="4.0" fill="none"/>
<path d="M 480,1180 L 1020,1180" stroke="#0000b2" stroke-width="4.0" fill="none"/>
<path d="M 320,680 L 400,680 L 404,680" stroke="#0000b2" stroke-width="4.0" fill="none"/>
<path d="M 320,1320 L 400,1320 L 404,1320" stroke="#0000b2" stroke-width="4.0" fill="none"/>
<path d="M 320,1580 L 580,1580 L 580,340 L 380,340 L 380,320 L 400,320 L 404,320" stroke="#0000b2" stroke-width="4.0" fill="none"/>
<path d="M 320,2220 L 740,2220 L 740,980 L 380,980 L 380,960 L 400,960 L 404,960" stroke="#0000b2" stroke-width="4.0" fill="none"/>
<path d="M 480,300 L 1020,300" stroke="#0000b2" stroke-width="4.0" fill="none"/>
<path d="M 480,940 L 1020,940" stroke="#0000b2" stroke-width="4.0" fill="none"/>
<path d="M 320,440 L 400,440 L 404,440" stroke="#0000b2" stroke-width="4.0" fill="none"/>
<path d="M 320,1080 L 400,1080 L 404,1080" stroke="#0000b2" stroke-width="4.0" fill="none"/>
<path d="M 320,1980 L 680,1980 L 680,740 L 380,740 L 380,720 L 400,720 L 404,720" stroke="#0000b2" stroke-width="4.0" fill="none"/>
<path d="M 320,2620 L 840,2620 L 840,1380 L 380,1380 L 380,1360 L 400,1360 L 404,1360" stroke="#0000b2" stroke-width="4.0" fill="none"/>
<path d="M 480,700 L 1020,700" stroke="#0000b2" stroke-width="4.0" fill="none"/>
<path d="M 480,1340 L 1020,1340" stroke="#0000b2" stroke-width="4.0" fill="none"/>
<path d="M 320,200 L 400,200 L 404,200" stroke="#0000b2" stroke-width="4.0" fill="none"/>
<path d="M 320,840 L 400,840 L 404,840" stroke="#0000b2" stroke-width="4.0" fill="none"/>
<path d="M 320,1740 L 620,1740 L 620,500 L 380,500 L 380,480 L 400,480 L 404,480" stroke="#0000b2" stroke-width="4.0" fill="none"/>
<path d="M 320,2380 L 780,2380 L 780,1140 L 380,1140 L 380,1120 L 400,1120 L 404,1120" stroke="#0000b2" stroke-width="4.0" fill="none"/>
<path d="M 480,460 L 1020,460" stroke="#0000b2" stroke-width="4.0" fill="none"/>
<path d="M 480,1100 L 1020,1100" stroke="#0000b2" stroke-width="4.0" fill="none"/>
<path d="M 320,600 L 400,600 L 404,600" stroke="#0000b2" stroke-width="4.0" fill="none"/>
<path d="M 320,1240 L 400,1240 L 404,1240" stroke="#0000b2" stroke-width="4.0" fill="none"/>
<path d="M 480,220 L 1020,220" stroke="#0000b2" stroke-width="4.0" fill="none"/>
<path d="M 480,860 L 1020,860" stroke="#0000b2" stroke-width="4.0" fill="none"/>
<path d="M 320,360 L 400,360 L 404,360" stroke="#0000b2" stroke-width="4.0" fill="none"/>
<path d="M 320,1000 L 400,1000 L 404,1000" stroke="#0000b2" stroke-width="4.0" fill="none"/>
<path d="M 480,620 L 1020,620" stroke="#0000b2" stroke-width="4.0" fill="none"/>
<path d="M 480,1260 L 1020,1260" stroke="#0000b2" stroke-width="4.0" fill="none"/>
<path d="M 320,760 L 400,760 L 404,760" stroke="#0000b2" stroke-width="4.0" fill="none"/>
<path d="M 220,120 L 300,120" stroke="#0000b2" stroke-width="4.0" fill="none"/>
<path d="M 320,120 L 400,120 L 404,120" stroke="#0000b2" stroke-width="4.0" fill="none"/>
<path d="M 480,380 L 1020,380" stroke="#0000b2" stroke-width="4.0" fill="none"/>
<path d="M 480,1020 L 1020,1020" stroke="#0000b2" stroke-width="4.0" fill="none"/>
<path d="M 320,1500 L 560,1500 L 560,260 L 380,260 L 380,240 L 400,240 L 404,240" stroke="#0000b2" stroke-width="4.0" fill="none"/>
<path d="M 404,400 L 400,400 L 380,400 L 380,420 L 600,420 L 600,1660 L 320,1660" stroke="#0000b2" stroke-width="4.0" fill="none"/>
<path d="M 404,640 L 400,640 L 380,640 L 380,660 L 660,660 L 660,1900 L 320,1900" stroke="#0000b2" stroke-width="4.0" fill="none"/>
<path d="M 320,2140 L 720,2140 L 720,900 L 380,900 L 380,880 L 400,880 L 404,880" stroke="#0000b2" stroke-width="4.0" fill="none"/>
<path d="M 404,1040 L 400,1040 L 380,1040 L 380,1060 L 760,1060 L 760,2300 L 320,2300" stroke="#0000b2" stroke-width="4.0" fill="none"/>
<path d="M 404,1280 L 400,1280 L 380,1280 L 380,1300 L 820,1300 L 820,2540 L 320,2540" stroke="#0000b2" stroke-width="4.0" fill="none"/>
<g>
</g>
<g>
<path d="M 189,105 L 219,105 L 219,135 L 189,135 Z" stroke="#000000" stroke-width="4.0" fill="none"/>
<circle cx="204.0" cy="120.0" r="9.0" stroke="#000000" stroke-width="4.0" fill="none" />
<text text-anchor="end" x="175.0" y="129.0" fill="#000000" style="font-size:24px"><tspan style="font-style:italic;">IN (16 Bits)</tspan></text>
<circle cx="220.0" cy="120.0" r="2.0" stroke="#b20000" stroke-width="4.0" fill="#b20000" />
</g>
<g>
<text text-anchor="end" x="298.0" y="117.0" fill="#808080" style="font-size:12px">0-15</text>
<text text-anchor="start" x="322.0" y="117.0" fill="#808080" style="font-size:12px">0</text>
<text text-anchor="start" x="322.0" y="197.0" fill="#808080" style="font-size:12px">1</text>
<text text-anchor="start" x="322.0" y="277.0" fill="#808080" style="font-size:12px">2</text>
<text text-anchor="start" x="322.0" y="357.0" fill="#808080" style="font-size:12px">3</text>
<text text-anchor="start" x="322.0" y="437.0" fill="#808080" style="font-size:12px">4</text>
<text text-anchor="start" x="322.0" y="517.0" fill="#808080" style="font-size:12px">5</text>
<text text-anchor="start" x="322.0" y="597.0" fill="#808080" style="font-size:12px">6</text>
<text text-anchor="start" x="322.0" y="677.0" fill="#808080" style="font-size:12px">7</text>
<text text-anchor="start" x="322.0" y="757.0" fill="#808080" style="font-size:12px">8</text>
<text text-anchor="start" x="322.0" y="837.0" fill="#808080" style="font-size:12px">9</text>
<text text-anchor="start" x="322.0" y="917.0" fill="#808080" style="font-size:12px">10</text>
<text text-anchor="start" x="322.0" y="997.0" fill="#808080" style="font-size:12px">11</text>
<text text-anchor="start" x="322.0" y="1077.0" fill="#808080" style="font-size:12px">12</text>
<text text-anchor="start" x="322.0" y="1157.0" fill="#808080" style="font-size:12px">13</text>
<text text-anchor="start" x="322.0" y="1237.0" fill="#808080" style="font-size:12px">14</text>
<text text-anchor="start" x="322.0" y="1317.0" fill="#808080" style="font-size:12px">15</text>
<path d="M 308,118 L 312,118 L 312,1322 L 308,1322 Z" stroke="#000000" stroke-width="4.0" fill="#000000" fill-opacity="1.0"/>
<circle cx="300.0" cy="120.0" r="2.0" stroke="#0000b2" stroke-width="4.0" fill="#0000b2" />
<circle cx="320.0" cy="120.0" r="2.0" stroke="#b20000" stroke-width="4.0" fill="#b20000" />
<circle cx="320.0" cy="200.0" r="2.0" stroke="#b20000" stroke-width="4.0" fill="#b20000" />
<circle cx="320.0" cy="280.0" r="2.0" stroke="#b20000" stroke-width="4.0" fill="#b20000" />
<circle cx="320.0" cy="360.0" r="2.0" stroke="#b20000" stroke-width="4.0" fill="#b20000" />
<circle cx="320.0" cy="440.0" r="2.0" stroke="#b20000" stroke-width="4.0" fill="#b20000" />
<circle cx="320.0" cy="520.0" r="2.0" stroke="#b20000" stroke-width="4.0" fill="#b20000" />
<circle cx="320.0" cy="600.0" r="2.0" stroke="#b20000" stroke-width="4.0" fill="#b20000" />
<circle cx="320.0" cy="680.0" r="2.0" stroke="#b20000" stroke-width="4.0" fill="#b20000" />
<circle cx="320.0" cy="760.0" r="2.0" stroke="#b20000" stroke-width="4.0" fill="#b20000" />
<circle cx="320.0" cy="840.0" r="2.0" stroke="#b20000" stroke-width="4.0" fill="#b20000" />
<circle cx="320.0" cy="920.0" r="2.0" stroke="#b20000" stroke-width="4.0" fill="#b20000" />
<circle cx="320.0" cy="1000.0" r="2.0" stroke="#b20000" stroke-width="4.0" fill="#b20000" />
<circle cx="320.0" cy="1080.0" r="2.0" stroke="#b20000" stroke-width="4.0" fill="#b20000" />
<circle cx="320.0" cy="1160.0" r="2.0" stroke="#b20000" stroke-width="4.0" fill="#b20000" />
<circle cx="320.0" cy="1240.0" r="2.0" stroke="#b20000" stroke-width="4.0" fill="#b20000" />
<circle cx="320.0" cy="1320.0" r="2.0" stroke="#b20000" stroke-width="4.0" fill="#b20000" />
</g>
<g>
<path d="M 430,170 L 400,170 C 410,154 410,126 400,110 L 420,110 C 450,110 470,120 480,140 C 470,160 450,170 430,170 Z" stroke="#000000" stroke-width="4.0" fill="none"/>
<circle cx="400.0" cy="120.0" r="2.0" stroke="#0000b2" stroke-width="4.0" fill="#0000b2" />
<circle cx="400.0" cy="160.0" r="2.0" stroke="#0000b2" stroke-width="4.0" fill="#0000b2" />
<circle cx="480.0" cy="140.0" r="2.0" stroke="#b20000" stroke-width="4.0" fill="#b20000" />
</g>
<g>
<path d="M 169,1405 L 199,1405 L 199,1435 L 169,1435 Z" stroke="#000000" stroke-width="4.0" fill="none"/>
<circle cx="184.0" cy="1420.0" r="9.0" stroke="#000000" stroke-width="4.0" fill="none" />
<text text-anchor="end" x="155.0" y="1429.0" fill="#000000" style="font-size:24px"><tspan style="font-style:italic;">IN (16 Bits)</tspan></text>
<circle cx="200.0" cy="1420.0" r="2.0" stroke="#b20000" stroke-width="4.0" fill="#b20000" />
</g>
<g>
<text text-anchor="end" x="298.0" y="1417.0" fill="#808080" style="font-size:12px">0-15</text>
<text text-anchor="start" x="322.0" y="1417.0" fill="#808080" style="font-size:12px">0</text>
<text text-anchor="start" x="322.0" y="1497.0" fill="#808080" style="font-size:12px">1</text>
<text text-anchor="start" x="322.0" y="1577.0" fill="#808080" style="font-size:12px">2</text>
<text text-anchor="start" x="322.0" y="1657.0" fill="#808080" style="font-size:12px">3</text>
<text text-anchor="start" x="322.0" y="1737.0" fill="#808080" style="font-size:12px">4</text>
<text text-anchor="start" x="322.0" y="1817.0" fill="#808080" style="font-size:12px">5</text>
<text text-anchor="start" x="322.0" y="1897.0" fill="#808080" style="font-size:12px">6</text>
<text text-anchor="start" x="322.0" y="1977.0" fill="#808080" style="font-size:12px">7</text>
<text text-anchor="start" x="322.0" y="2057.0" fill="#808080" style="font-size:12px">8</text>
<text text-anchor="start" x="322.0" y="2137.0" fill="#808080" style="font-size:12px">9</text>
<text text-anchor="start" x="322.0" y="2217.0" fill="#808080" style="font-size:12px">10</text>
<text text-anchor="start" x="322.0" y="2297.0" fill="#808080" style="font-size:12px">11</text>
<text text-anchor="start" x="322.0" y="2377.0" fill="#808080" style="font-size:12px">12</text>
<text text-anchor="start" x="322.0" y="2457.0" fill="#808080" style="font-size:12px">13</text>
<text text-anchor="start" x="322.0" y="2537.0" fill="#808080" style="font-size:12px">14</text>
<text text-anchor="start" x="322.0" y="2617.0" fill="#808080" style="font-size:12px">15</text>
<path d="M 308,1418 L 312,1418 L 312,2622 L 308,2622 Z" stroke="#000000" stroke-width="4.0" fill="#000000" fill-opacity="1.0"/>
<circle cx="300.0" cy="1420.0" r="2.0" stroke="#0000b2" stroke-width="4.0" fill="#0000b2" />
<circle cx="320.0" cy="1420.0" r="2.0" stroke="#b20000" stroke-width="4.0" fill="#b20000" />
<circle cx="320.0" cy="1500.0" r="2.0" stroke="#b20000" stroke-width="4.0" fill="#b20000" />
<circle cx="320.0" cy="1580.0" r="2.0" stroke="#b20000" stroke-width="4.0" fill="#b20000" />
<circle cx="320.0" cy="1660.0" r="2.0" stroke="#b20000" stroke-width="4.0" fill="#b20000" />
<circle cx="320.0" cy="1740.0" r="2.0" stroke="#b20000" stroke-width="4.0" fill="#b20000" />
<circle cx="320.0" cy="1820.0" r="2.0" stroke="#b20000" stroke-width="4.0" fill="#b20000" />
<circle cx="320.0" cy="1900.0" r="2.0" stroke="#b20000" stroke-width="4.0" fill="#b20000" />
<circle cx="320.0" cy="1980.0" r="2.0" stroke="#b20000" stroke-width="4.0" fill="#b20000" />
<circle cx="320.0" cy="2060.0" r="2.0" stroke="#b20000" stroke-width="4.0" fill="#b20000" />
<circle cx="320.0" cy="2140.0" r="2.0" stroke="#b20000" stroke-width="4.0" fill="#b20000" />
<circle cx="320.0" cy="2220.0" r="2.0" stroke="#b20000" stroke-width="4.0" fill="#b20000" />
<circle cx="320.0" cy="2300.0" r="2.0" stroke="#b20000" stroke-width="4.0" fill="#b20000" />
<circle cx="320.0" cy="2380.0" r="2.0" stroke="#b20000" stroke-width="4.0" fill="#b20000" />
<circle cx="320.0" cy="2460.0" r="2.0" stroke="#b20000" stroke-width="4.0" fill="#b20000" />
<circle cx="320.0" cy="2540.0" r="2.0" stroke="#b20000" stroke-width="4.0" fill="#b20000" />
<circle cx="320.0" cy="2620.0" r="2.0" stroke="#b20000" stroke-width="4.0" fill="#b20000" />
</g>
<g>
<path d="M 430,1050 L 400,1050 C 410,1034 410,1006 400,990 L 420,990 C 450,990 470,1000 480,1020 C 470,1040 450,1050 430,1050 Z" stroke="#000000" stroke-width="4.0" fill="none"/>
<circle cx="400.0" cy="1000.0" r="2.0" stroke="#0000b2" stroke-width="4.0" fill="#0000b2" />
<circle cx="400.0" cy="1040.0" r="2.0" stroke="#0000b2" stroke-width="4.0" fill="#0000b2" />
<circle cx="480.0" cy="1020.0" r="2.0" stroke="#b20000" stroke-width="4.0" fill="#b20000" />
</g>
<g>
<path d="M 430,330 L 400,330 C 410,314 410,286 400,270 L 420,270 C 450,270 470,280 480,300 C 470,320 450,330 430,330 Z" stroke="#000000" stroke-width="4.0" fill="none"/>
<circle cx="400.0" cy="280.0" r="2.0" stroke="#0000b2" stroke-width="4.0" fill="#0000b2" />
<circle cx="400.0" cy="320.0" r="2.0" stroke="#0000b2" stroke-width="4.0" fill="#0000b2" />
<circle cx="480.0" cy="300.0" r="2.0" stroke="#b20000" stroke-width="4.0" fill="#b20000" />
</g>
<g>
<path d="M 430,570 L 400,570 C 410,554 410,526 400,510 L 420,510 C 450,510 470,520 480,540 C 470,560 450,570 430,570 Z" stroke="#000000" stroke-width="4.0" fill="none"/>
<circle cx="400.0" cy="520.0" r="2.0" stroke="#0000b2" stroke-width="4.0" fill="#0000b2" />
<circle cx="400.0" cy="560.0" r="2.0" stroke="#0000b2" stroke-width="4.0" fill="#0000b2" />
<circle cx="480.0" cy="540.0" r="2.0" stroke="#b20000" stroke-width="4.0" fill="#b20000" />
</g>
<g>
<path d="M 430,890 L 400,890 C 410,874 410,846 400,830 L 420,830 C 450,830 470,840 480,860 C 470,880 450,890 430,890 Z" stroke="#000000" stroke-width="4.0" fill="none"/>
<circle cx="400.0" cy="840.0" r="2.0" stroke="#0000b2" stroke-width="4.0" fill="#0000b2" />
<circle cx="400.0" cy="880.0" r="2.0" stroke="#0000b2" stroke-width="4.0" fill="#0000b2" />
<circle cx="480.0" cy="860.0" r="2.0" stroke="#b20000" stroke-width="4.0" fill="#b20000" />
</g>
<g>
<path d="M 430,650 L 400,650 C 410,634 410,606 400,590 L 420,590 C 450,590 470,600 480,620 C 470,640 450,650 430,650 Z" stroke="#000000" stroke-width="4.0" fill="none"/>
<circle cx="400.0" cy="600.0" r="2.0" stroke="#0000b2" stroke-width="4.0" fill="#0000b2" />
<circle cx="400.0" cy="640.0" r="2.0" stroke="#0000b2" stroke-width="4.0" fill="#0000b2" />
<circle cx="480.0" cy="620.0" r="2.0" stroke="#b20000" stroke-width="4.0" fill="#b20000" />
</g>
<g>
<path d="M 430,810 L 400,810 C 410,794 410,766 400,750 L 420,750 C 450,750 470,760 480,780 C 470,800 450,810 430,810 Z" stroke="#000000" stroke-width="4.0" fill="none"/>
<circle cx="400.0" cy="760.0" r="2.0" stroke="#0000b2" stroke-width="4.0" fill="#0000b2" />
<circle cx="400.0" cy="800.0" r="2.0" stroke="#0000b2" stroke-width="4.0" fill="#0000b2" />
<circle cx="480.0" cy="780.0" r="2.0" stroke="#b20000" stroke-width="4.0" fill="#b20000" />
</g>
<g>
<path d="M 430,490 L 400,490 C 410,474 410,446 400,430 L 420,430 C 450,430 470,440 480,460 C 470,480 450,490 430,490 Z" stroke="#000000" stroke-width="4.0" fill="none"/>
<circle cx="400.0" cy="440.0" r="2.0" stroke="#0000b2" stroke-width="4.0" fill="#0000b2" />
<circle cx="400.0" cy="480.0" r="2.0" stroke="#0000b2" stroke-width="4.0" fill="#0000b2" />
<circle cx="480.0" cy="460.0" r="2.0" stroke="#b20000" stroke-width="4.0" fill="#b20000" />
</g>
<g>
<path d="M 430,730 L 400,730 C 410,714 410,686 400,670 L 420,670 C 450,670 470,680 480,700 C 470,720 450,730 430,730 Z" stroke="#000000" stroke-width="4.0" fill="none"/>
<circle cx="400.0" cy="680.0" r="2.0" stroke="#0000b2" stroke-width="4.0" fill="#0000b2" />
<circle cx="400.0" cy="720.0" r="2.0" stroke="#0000b2" stroke-width="4.0" fill="#0000b2" />
<circle cx="480.0" cy="700.0" r="2.0" stroke="#b20000" stroke-width="4.0" fill="#b20000" />
</g>
<g>
<path d="M 430,410 L 400,410 C 410,394 410,366 400,350 L 420,350 C 450,350 470,360 480,380 C 470,400 450,410 430,410 Z" stroke="#000000" stroke-width="4.0" fill="none"/>
<circle cx="400.0" cy="360.0" r="2.0" stroke="#0000b2" stroke-width="4.0" fill="#0000b2" />
<circle cx="400.0" cy="400.0" r="2.0" stroke="#0000b2" stroke-width="4.0" fill="#0000b2" />
<circle cx="480.0" cy="380.0" r="2.0" stroke="#b20000" stroke-width="4.0" fill="#b20000" />
</g>
<g>
<path d="M 430,250 L 400,250 C 410,234 410,206 400,190 L 420,190 C 450,190 470,200 480,220 C 470,240 450,250 430,250 Z" stroke="#000000" stroke-width="4.0" fill="none"/>
<circle cx="400.0" cy="200.0" r="2.0" stroke="#0000b2" stroke-width="4.0" fill="#0000b2" />
<circle cx="400.0" cy="240.0" r="2.0" stroke="#0000b2" stroke-width="4.0" fill="#0000b2" />
<circle cx="480.0" cy="220.0" r="2.0" stroke="#b20000" stroke-width="4.0" fill="#b20000" />
</g>
<g>
<path d="M 430,970 L 400,970 C 410,954 410,926 400,910 L 420,910 C 450,910 470,920 480,940 C 470,960 450,970 430,970 Z" stroke="#000000" stroke-width="4.0" fill="none"/>
<circle cx="400.0" cy="920.0" r="2.0" stroke="#0000b2" stroke-width="4.0" fill="#0000b2" />
<circle cx="400.0" cy="960.0" r="2.0" stroke="#0000b2" stroke-width="4.0" fill="#0000b2" />
<circle cx="480.0" cy="940.0" r="2.0" stroke="#b20000" stroke-width="4.0" fill="#b20000" />
</g>
<g>
<path d="M 430,1130 L 400,1130 C 410,1114 410,1086 400,1070 L 420,1070 C 450,1070 470,1080 480,1100 C 470,1120 450,1130 430,1130 Z" stroke="#000000" stroke-width="4.0" fill="none"/>
<circle cx="400.0" cy="1080.0" r="2.0" stroke="#0000b2" stroke-width="4.0" fill="#0000b2" />
<circle cx="400.0" cy="1120.0" r="2.0" stroke="#0000b2" stroke-width="4.0" fill="#0000b2" />
<circle cx="480.0" cy="1100.0" r="2.0" stroke="#b20000" stroke-width="4.0" fill="#b20000" />
</g>
<g>
<path d="M 430,1210 L 400,1210 C 410,1194 410,1166 400,1150 L 420,1150 C 450,1150 470,1160 480,1180 C 470,1200 450,1210 430,1210 Z" stroke="#000000" stroke-width="4.0" fill="none"/>
<circle cx="400.0" cy="1160.0" r="2.0" stroke="#0000b2" stroke-width="4.0" fill="#0000b2" />
<circle cx="400.0" cy="1200.0" r="2.0" stroke="#0000b2" stroke-width="4.0" fill="#0000b2" />
<circle cx="480.0" cy="1180.0" r="2.0" stroke="#b20000" stroke-width="4.0" fill="#b20000" />
</g>
<g>
<path d="M 430,1290 L 400,1290 C 410,1274 410,1246 400,1230 L 420,1230 C 450,1230 470,1240 480,1260 C 470,1280 450,1290 430,1290 Z" stroke="#000000" stroke-width="4.0" fill="none"/>
<circle cx="400.0" cy="1240.0" r="2.0" stroke="#0000b2" stroke-width="4.0" fill="#0000b2" />
<circle cx="400.0" cy="1280.0" r="2.0" stroke="#0000b2" stroke-width="4.0" fill="#0000b2" />
<circle cx="480.0" cy="1260.0" r="2.0" stroke="#b20000" stroke-width="4.0" fill="#b20000" />
</g>
<g>
<path d="M 430,1370 L 400,1370 C 410,1354 410,1326 400,1310 L 420,1310 C 450,1310 470,1320 480,1340 C 470,1360 450,1370 430,1370 Z" stroke="#000000" stroke-width="4.0" fill="none"/>
<circle cx="400.0" cy="1320.0" r="2.0" stroke="#0000b2" stroke-width="4.0" fill="#0000b2" />
<circle cx="400.0" cy="1360.0" r="2.0" stroke="#0000b2" stroke-width="4.0" fill="#0000b2" />
<circle cx="480.0" cy="1340.0" r="2.0" stroke="#b20000" stroke-width="4.0" fill="#b20000" />
</g>
<g>
<circle cx="1136.0" cy="140.0" r="9.0" stroke="#000000" stroke-width="4.0" fill="none" />
<circle cx="1136.0" cy="140.0" r="15.0" stroke="#000000" stroke-width="4.0" fill="none" />
<text text-anchor="start" x="1165.0" y="149.0" fill="#000000" style="font-size:24px"><tspan style="font-style:italic;">OUT(16 Bits)</tspan></text>
<circle cx="1120.0" cy="140.0" r="2.0" stroke="#0000b2" stroke-width="4.0" fill="#0000b2" />
</g>
<g>
<text text-anchor="end" x="1018.0" y="137.0" fill="#808080" style="font-size:12px">0</text>
<text text-anchor="end" x="1018.0" y="217.0" fill="#808080" style="font-size:12px">1</text>
<text text-anchor="end" x="1018.0" y="297.0" fill="#808080" style="font-size:12px">2</text>
<text text-anchor="end" x="1018.0" y="377.0" fill="#808080" style="font-size:12px">3</text>
<text text-anchor="end" x="1018.0" y="457.0" fill="#808080" style="font-size:12px">4</text>
<text text-anchor="end" x="1018.0" y="537.0" fill="#808080" style="font-size:12px">5</text>
<text text-anchor="end" x="1018.0" y="617.0" fill="#808080" style="font-size:12px">6</text>
<text text-anchor="end" x="1018.0" y="697.0" fill="#808080" style="font-size:12px">7</text>
<text text-anchor="end" x="1018.0" y="777.0" fill="#808080" style="font-size:12px">8</text>
<text text-anchor="end" x="1018.0" y="857.0" fill="#808080" style="font-size:12px">9</text>
<text text-anchor="end" x="1018.0" y="937.0" fill="#808080" style="font-size:12px">10</text>
<text text-anchor="end" x="1018.0" y="1017.0" fill="#808080" style="font-size:12px">11</text>
<text text-anchor="end" x="1018.0" y="1097.0" fill="#808080" style="font-size:12px">12</text>
<text text-anchor="end" x="1018.0" y="1177.0" fill="#808080" style="font-size:12px">13</text>
<text text-anchor="end" x="1018.0" y="1257.0" fill="#808080" style="font-size:12px">14</text>
<text text-anchor="end" x="1018.0" y="1337.0" fill="#808080" style="font-size:12px">15</text>
<text text-anchor="start" x="1042.0" y="137.0" fill="#808080" style="font-size:12px">0-15</text>
<path d="M 1028,138 L 1032,138 L 1032,1342 L 1028,1342 Z" stroke="#000000" stroke-width="4.0" fill="#000000" fill-opacity="1.0"/>
<circle cx="1020.0" cy="140.0" r="2.0" stroke="#0000b2" stroke-width="4.0" fill="#0000b2" />
<circle cx="1020.0" cy="220.0" r="2.0" stroke="#0000b2" stroke-width="4.0" fill="#0000b2" />
<circle cx="1020.0" cy="300.0" r="2.0" stroke="#0000b2" stroke-width="4.0" fill="#0000b2" />
<circle cx="1020.0" cy="380.0" r="2.0" stroke="#0000b2" stroke-width="4.0" fill="#0000b2" />
<circle cx="1020.0" cy="460.0" r="2.0" stroke="#0000b2" stroke-width="4.0" fill="#0000b2" />
<circle cx="1020.0" cy="540.0" r="2.0" stroke="#0000b2" stroke-width="4.0" fill="#0000b2" />
<circle cx="1020.0" cy="620.0" r="2.0" stroke="#0000b2" stroke-width="4.0" fill="#0000b2" />
<circle cx="1020.0" cy="700.0" r="2.0" stroke="#0000b2" stroke-width="4.0" fill="#0000b2" />
<circle cx="1020.0" cy="780.0" r="2.0" stroke="#0000b2" stroke-width="4.0" fill="#0000b2" />
<circle cx="1020.0" cy="860.0" r="2.0" stroke="#0000b2" stroke-width="4.0" fill="#0000b2" />
<circle cx="1020.0" cy="940.0" r="2.0" stroke="#0000b2" stroke-width="4.0" fill="#0000b2" />
<circle cx="1020.0" cy="1020.0" r="2.0" stroke="#0000b2" stroke-width="4.0" fill="#0000b2" />
<circle cx="1020.0" cy="1100.0" r="2.0" stroke="#0000b2" stroke-width="4.0" fill="#0000b2" />
<circle cx="1020.0" cy="1180.0" r="2.0" stroke="#0000b2" stroke-width="4.0" fill="#0000b2" />
<circle cx="1020.0" cy="1260.0" r="2.0" stroke="#0000b2" stroke-width="4.0" fill="#0000b2" />
<circle cx="1020.0" cy="1340.0" r="2.0" stroke="#0000b2" stroke-width="4.0" fill="#0000b2" />
<circle cx="1040.0" cy="140.0" r="2.0" stroke="#b20000" stroke-width="4.0" fill="#b20000" />
</g>
</g>
</svg>