<?xml version="1.0" encoding="UTF-8" standalone="no"?>
<!-- Created with Digital by H.Neemann -->
<!-- created: Tue Aug 31 20:09:01 MST 2021 -->

<svg
   xmlns:svg="http://www.w3.org/2000/svg"
   xmlns="http://www.w3.org/2000/svg"
   width="152.55mm"
   height="46.35mm"
   viewBox="-35 203 1017 309">
<g stroke-linecap="square">
<path d="M 200,220 L 210,220 L 220,220" stroke="#000000" stroke-width="4.0" fill="none"/>
<path d="M 220,260 L 210,260" stroke="#000000" stroke-width="4.0" fill="none"/>
<path d="M 220,300 L 210,300" stroke="#000000" stroke-width="4.0" fill="none"/>
<path d="M 220,340 L 210,340" stroke="#000000" stroke-width="4.0" fill="none"/>
<path d="M 220,380 L 210,380" stroke="#000000" stroke-width="4.0" fill="none"/>
<path d="M 220,420 L 210,420" stroke="#000000" stroke-width="4.0" fill="none"/>
<path d="M 220,460 L 210,460" stroke="#000000" stroke-width="4.0" fill="none"/>
<path d="M 220,500 L 210,500" stroke="#000000" stroke-width="4.0" fill="none"/>
<path d="M 420,320 L 460,320 L 460,300 L 500,300 L 504,300" stroke="#0000b2" stroke-width="4.0" fill="none"/>
<path d="M 420,480 L 460,480 L 460,460 L 500,460 L 504,460" stroke="#0000b2" stroke-width="4.0" fill="none"/>
<path d="M 220,260 L 340,260 L 344,260" stroke="#0000b2" stroke-width="4.0" fill="none"/>
<path d="M 220,420 L 340,420 L 344,420" stroke="#0000b2" stroke-width="4.0" fill="none"/>
<path d="M 720,360 L 800,360" stroke="#0000b2" stroke-width="4.0" fill="none"/>
<path d="M 220,300 L 340,300 L 344,300" stroke="#0000b2" stroke-width="4.0" fill="none"/>
<path d="M 220,460 L 340,460 L 344,460" stroke="#0000b2" stroke-width="4.0" fill="none"/>
<path d="M 420,240 L 460,240 L 460,260 L 500,260 L 504,260" stroke="#0000b2" stroke-width="4.0" fill="none"/>
<path d="M 420,400 L 460,400 L 460,420 L 500,420 L 504,420" stroke="#0000b2" stroke-width="4.0" fill="none"/>
<path d="M 220,340 L 340,340 L 344,340" stroke="#0000b2" stroke-width="4.0" fill="none"/>
<path d="M 220,500 L 340,500 L 344,500" stroke="#0000b2" stroke-width="4.0" fill="none"/>
<path d="M 580,280 L 600,280 L 600,340 L 640,340 L 644,340" stroke="#0000b2" stroke-width="4.0" fill="none"/>
<path d="M 580,440 L 600,440 L 600,380 L 640,380 L 644,380" stroke="#0000b2" stroke-width="4.0" fill="none"/>
<path d="M 120,220 L 200,220" stroke="#0000b2" stroke-width="4.0" fill="none"/>
<path d="M 220,220 L 340,220 L 344,220" stroke="#0000b2" stroke-width="4.0" fill="none"/>
<path d="M 220,380 L 340,380 L 344,380" stroke="#0000b2" stroke-width="4.0" fill="none"/>
<g>
</g>
<g>
<path d="M 89,205 L 119,205 L 119,235 L 89,235 Z" stroke="#000000" stroke-width="4.0" fill="none"/>
<circle cx="104.0" cy="220.0" r="9.0" stroke="#000000" stroke-width="4.0" fill="none" />
<text text-anchor="end" x="75.0" y="229.0" fill="#000000" style="font-size:24px"><tspan style="font-style:italic;">IN(8 BIT)</tspan></text>
<circle cx="120.0" cy="220.0" r="2.0" stroke="#b20000" stroke-width="4.0" fill="#b20000" />
</g>
<g>
<text text-anchor="end" x="198.0" y="217.0" fill="#808080" style="font-size:12px">0-7</text>
<text text-anchor="start" x="222.0" y="217.0" fill="#808080" style="font-size:12px">0</text>
<text text-anchor="start" x="222.0" y="257.0" fill="#808080" style="font-size:12px">1</text>
<text text-anchor="start" x="222.0" y="297.0" fill="#808080" style="font-size:12px">2</text>
<text text-anchor="start" x="222.0" y="337.0" fill="#808080" style="font-size:12px">3</text>
<text text-anchor="start" x="222.0" y="377.0" fill="#808080" style="font-size:12px">4</text>
<text text-anchor="start" x="222.0" y="417.0" fill="#808080" style="font-size:12px">5</text>
<text text-anchor="start" x="222.0" y="457.0" fill="#808080" style="font-size:12px">6</text>
<text text-anchor="start" x="222.0" y="497.0" fill="#808080" style="font-size:12px">7</text>
<path d="M 208,218 L 212,218 L 212,502 L 208,502 Z" stroke="#000000" stroke-width="4.0" fill="#000000" fill-opacity="1.0"/>
<circle cx="200.0" cy="220.0" r="2.0" stroke="#0000b2" stroke-width="4.0" fill="#0000b2" />
<circle cx="220.0" cy="220.0" r="2.0" stroke="#b20000" stroke-width="4.0" fill="#b20000" />
<circle cx="220.0" cy="260.0" r="2.0" stroke="#b20000" stroke-width="4.0" fill="#b20000" />
<circle cx="220.0" cy="300.0" r="2.0" stroke="#b20000" stroke-width="4.0" fill="#b20000" />
<circle cx="220.0" cy="340.0" r="2.0" stroke="#b20000" stroke-width="4.0" fill="#b20000" />
<circle cx="220.0" cy="380.0" r="2.0" stroke="#b20000" stroke-width="4.0" fill="#b20000" />
<circle cx="220.0" cy="420.0" r="2.0" stroke="#b20000" stroke-width="4.0" fill="#b20000" />
<circle cx="220.0" cy="460.0" r="2.0" stroke="#b20000" stroke-width="4.0" fill="#b20000" />
<circle cx="220.0" cy="500.0" r="2.0" stroke="#b20000" stroke-width="4.0" fill="#b20000" />
</g>
<g>
<path d="M 370,270 L 340,270 C 350,254 350,226 340,210 L 360,210 C 390,210 410,220 420,240 C 410,260 390,270 370,270 Z" stroke="#000000" stroke-width="4.0" fill="none"/>
<circle cx="340.0" cy="220.0" r="2.0" stroke="#0000b2" stroke-width="4.0" fill="#0000b2" />
<circle cx="340.0" cy="260.0" r="2.0" stroke="#0000b2" stroke-width="4.0" fill="#0000b2" />
<circle cx="420.0" cy="240.0" r="2.0" stroke="#b20000" stroke-width="4.0" fill="#b20000" />
</g>
<g>
<path d="M 370,350 L 340,350 C 350,334 350,306 340,290 L 360,290 C 390,290 410,300 420,320 C 410,340 390,350 370,350 Z" stroke="#000000" stroke-width="4.0" fill="none"/>
<circle cx="340.0" cy="300.0" r="2.0" stroke="#0000b2" stroke-width="4.0" fill="#0000b2" />
<circle cx="340.0" cy="340.0" r="2.0" stroke="#0000b2" stroke-width="4.0" fill="#0000b2" />
<circle cx="420.0" cy="320.0" r="2.0" stroke="#b20000" stroke-width="4.0" fill="#b20000" />
</g>
<g>
<path d="M 370,430 L 340,430 C 350,414 350,386 340,370 L 360,370 C 390,370 410,380 420,400 C 410,420 390,430 370,430 Z" stroke="#000000" stroke-width="4.0" fill="none"/>
<circle cx="340.0" cy="380.0" r="2.0" stroke="#0000b2" stroke-width="4.0" fill="#0000b2" />
<circle cx="340.0" cy="420.0" r="2.0" stroke="#0000b2" stroke-width="4.0" fill="#0000b2" />
<circle cx="420.0" cy="400.0" r="2.0" stroke="#b20000" stroke-width="4.0" fill="#b20000" />
</g>
<g>
<path d="M 370,510 L 340,510 C 350,494 350,466 340,450 L 360,450 C 390,450 410,460 420,480 C 410,500 390,510 370,510 Z" stroke="#000000" stroke-width="4.0" fill="none"/>
<circle cx="340.0" cy="460.0" r="2.0" stroke="#0000b2" stroke-width="4.0" fill="#0000b2" />
<circle cx="340.0" cy="500.0" r="2.0" stroke="#0000b2" stroke-width="4.0" fill="#0000b2" />
<circle cx="420.0" cy="480.0" r="2.0" stroke="#b20000" stroke-width="4.0" fill="#b20000" />
</g>
<g>
<path d="M 530,310 L 500,310 C 510,294 510,266 500,250 L 520,250 C 550,250 570,260 580,280 C 570,300 550,310 530,310 Z" stroke="#000000" stroke-width="4.0" fill="none"/>
<circle cx="500.0" cy="260.0" r="2.0" stroke="#0000b2" stroke-width="4.0" fill="#0000b2" />
<circle cx="500.0" cy="300.0" r="2.0" stroke="#0000b2" stroke-width="4.0" fill="#0000b2" />
<circle cx="580.0" cy="280.0" r="2.0" stroke="#b20000" stroke-width="4.0" fill="#b20000" />
</g>
<g>
<path d="M 530,470 L 500,470 C 510,454 510,426 500,410 L 520,410 C 550,410 570,420 580,440 C 570,460 550,470 530,470 Z" stroke="#000000" stroke-width="4.0" fill="none"/>
<circle cx="500.0" cy="420.0" r="2.0" stroke="#0000b2" stroke-width="4.0" fill="#0000b2" />
<circle cx="500.0" cy="460.0" r="2.0" stroke="#0000b2" stroke-width="4.0" fill="#0000b2" />
<circle cx="580.0" cy="440.0" r="2.0" stroke="#b20000" stroke-width="4.0" fill="#b20000" />
</g>
<g>
<path d="M 670,390 L 640,390 C 650,374 650,346 640,330 L 660,330 C 690,330 710,340 720,360 C 710,380 690,390 670,390 Z" stroke="#000000" stroke-width="4.0" fill="none"/>
<circle cx="640.0" cy="340.0" r="2.0" stroke="#0000b2" stroke-width="4.0" fill="#0000b2" />
<circle cx="640.0" cy="380.0" r="2.0" stroke="#0000b2" stroke-width="4.0" fill="#0000b2" />
<circle cx="720.0" cy="360.0" r="2.0" stroke="#b20000" stroke-width="4.0" fill="#b20000" />
</g>
<g>
<circle cx="816.0" cy="360.0" r="9.0" stroke="#000000" stroke-width="4.0" fill="none" />
<circle cx="816.0" cy="360.0" r="15.0" stroke="#000000" stroke-width="4.0" fill="none" />
<text text-anchor="start" x="845.0" y="369.0" fill="#000000" style="font-size:24px"><tspan style="font-style:italic;">OUT(1 BIT)</tspan></text>
<circle cx="800.0" cy="360.0" r="2.0" stroke="#0000b2" stroke-width="4.0" fill="#0000b2" />
</g>
</g>
</svg>