<?xml version="1.0" encoding="UTF-8" standalone="no"?>
<!-- Created with Digital by H.Neemann -->
<!-- created: Tue Sep 07 22:46:18 MST 2021 -->

<svg
   xmlns:svg="http://www.w3.org/2000/svg"
   xmlns="http://www.w3.org/2000/svg"
   width="213.15mm"
   height="133.35mm"
   viewBox="58 163 1421 889">
<g stroke-linecap="square">
<path d="M 920,300 L 920,320 L 980,320" stroke="#0000b2" stroke-width="4.0" fill="none"/>
<path d="M 1020,320 L 1080,320" stroke="#0000b2" stroke-width="4.0" fill="none"/>
<path d="M 220,640 L 1100,640 L 1100,320" stroke="#0000b2" stroke-width="4.0" fill="none"/>
<path d="M 220,260 L 320,260 L 320,220" stroke="#0000b2" stroke-width="4.0" fill="none"/>
<path d="M 760,260 L 800,260 L 800,280 L 840,280" stroke="#0000b2" stroke-width="4.0" fill="none"/>
<path d="M 340,200 L 380,200 L 380,180 L 500,180" stroke="#0000b2" stroke-width="4.0" fill="none"/>
<path d="M 540,200 L 580,200 L 580,240 L 680,240" stroke="#0000b2" stroke-width="4.0" fill="none"/>
<path d="M 220,520 L 520,520 L 520,440" stroke="#0000b2" stroke-width="4.0" fill="none"/>
<path d="M 280,700 L 280,840 L 360,840" stroke="#0000b2" stroke-width="4.0" fill="none"/>
<path d="M 380,840 L 460,840 L 464,840" stroke="#0000b2" stroke-width="4.0" fill="none"/>
<path d="M 220,400 L 300,400" stroke="#0000b2" stroke-width="4.0" fill="none"/>
<path d="M 1180,300 L 1180,400 L 1220,400" stroke="#0000b2" stroke-width="4.0" fill="none"/>
<path d="M 200,700 L 200,1040 L 360,1040" stroke="#0000b2" stroke-width="4.0" fill="none"/>
<path d="M 380,1040 L 460,1040 L 464,1040" stroke="#0000b2" stroke-width="4.0" fill="none"/>
<path d="M 580,240 L 580,340 L 680,340" stroke="#0000b2" stroke-width="4.0" fill="none"/>
<path d="M 740,340 L 800,340 L 800,320 L 840,320" stroke="#0000b2" stroke-width="4.0" fill="none"/>
<path d="M 220,600 L 860,600 L 860,320" stroke="#0000b2" stroke-width="4.0" fill="none"/>
<path d="M 740,920 L 840,920" stroke="#0000b2" stroke-width="4.0" fill="none"/>
<path d="M 880,920 L 1220,920 L 1220,560 L 1280,560" stroke="#0000b2" stroke-width="4.0" fill="none"/>
<path d="M 280,220 L 300,220" stroke="#0000b2" stroke-width="4.0" fill="none"/>
<path d="M 380,200 L 380,220 L 400,220" stroke="#0000b2" stroke-width="4.0" fill="none"/>
<path d="M 440,220 L 500,220" stroke="#0000b2" stroke-width="4.0" fill="none"/>
<path d="M 220,480 L 320,480 L 320,440" stroke="#0000b2" stroke-width="4.0" fill="none"/>
<path d="M 340,420 L 380,420 L 380,400 L 500,400" stroke="#0000b2" stroke-width="4.0" fill="none"/>
<path d="M 540,420 L 600,420 L 600,360" stroke="#0000b2" stroke-width="4.0" fill="none"/>
<path d="M 1240,420 L 1280,420" stroke="#0000b2" stroke-width="4.0" fill="none"/>
<path d="M 320,700 L 320,740 L 360,740" stroke="#0000b2" stroke-width="4.0" fill="none"/>
<path d="M 380,740 L 420,740 L 420,800 L 460,800 L 464,800" stroke="#0000b2" stroke-width="4.0" fill="none"/>
<path d="M 320,680 L 1180,680 L 1180,400" stroke="#0000b2" stroke-width="4.0" fill="none"/>
<path d="M 220,300 L 520,300 L 520,220" stroke="#0000b2" stroke-width="4.0" fill="none"/>
<path d="M 880,300 L 920,300 L 920,280 L 1080,280" stroke="#0000b2" stroke-width="4.0" fill="none"/>
<path d="M 1120,300 L 1180,300 L 1180,260 L 1280,260" stroke="#0000b2" stroke-width="4.0" fill="none"/>
<path d="M 240,700 L 240,940 L 360,940" stroke="#0000b2" stroke-width="4.0" fill="none"/>
<path d="M 380,940 L 420,940 L 420,1000 L 460,1000 L 464,1000" stroke="#0000b2" stroke-width="4.0" fill="none"/>
<path d="M 220,180 L 300,180" stroke="#0000b2" stroke-width="4.0" fill="none"/>
<path d="M 540,820 L 620,820 L 620,900 L 660,900 L 664,900" stroke="#0000b2" stroke-width="4.0" fill="none"/>
<path d="M 280,440 L 300,440" stroke="#0000b2" stroke-width="4.0" fill="none"/>
<path d="M 380,420 L 380,440 L 400,440" stroke="#0000b2" stroke-width="4.0" fill="none"/>
<path d="M 440,440 L 500,440" stroke="#0000b2" stroke-width="4.0" fill="none"/>
<path d="M 540,1020 L 620,1020 L 620,940 L 660,940 L 664,940" stroke="#0000b2" stroke-width="4.0" fill="none"/>
<path d="M 640,380 L 680,380" stroke="#0000b2" stroke-width="4.0" fill="none"/>
<path d="M 680,280 L 600,280 L 600,360 L 680,360" stroke="#0000b2" stroke-width="4.0" fill="none"/>
<path d="M 1220,400 L 1230,400 L 1240,400" stroke="#000000" stroke-width="4.0" fill="none"/>
<path d="M 1240,420 L 1230,420" stroke="#000000" stroke-width="4.0" fill="none"/>
<path d="M 320,680 L 320,690 L 320,700" stroke="#000000" stroke-width="4.0" fill="none"/>
<path d="M 280,700 L 280,690" stroke="#000000" stroke-width="4.0" fill="none"/>
<path d="M 240,700 L 240,690" stroke="#000000" stroke-width="4.0" fill="none"/>
<path d="M 200,700 L 200,690" stroke="#000000" stroke-width="4.0" fill="none"/>
<path d="M 360,740 L 370,740 L 380,740" stroke="#000000" stroke-width="4.0" fill="none"/>
<path d="M 360,840 L 370,840 L 380,840" stroke="#000000" stroke-width="4.0" fill="none"/>
<path d="M 360,940 L 370,940 L 380,940" stroke="#000000" stroke-width="4.0" fill="none"/>
<path d="M 360,1040 L 370,1040 L 380,1040" stroke="#000000" stroke-width="4.0" fill="none"/>
<g>
<circle cx="380.0" cy="200.0" r="4.0" stroke="#0000b2" stroke-width="4.0" fill="#0000b2" />
<circle cx="1180.0" cy="400.0" r="4.0" stroke="#0000b2" stroke-width="4.0" fill="#0000b2" />
<circle cx="380.0" cy="420.0" r="4.0" stroke="#0000b2" stroke-width="4.0" fill="#0000b2" />
<circle cx="600.0" cy="360.0" r="4.0" stroke="#0000b2" stroke-width="4.0" fill="#0000b2" />
<circle cx="920.0" cy="300.0" r="4.0" stroke="#0000b2" stroke-width="4.0" fill="#0000b2" />
<circle cx="1180.0" cy="300.0" r="4.0" stroke="#0000b2" stroke-width="4.0" fill="#0000b2" />
<circle cx="580.0" cy="240.0" r="4.0" stroke="#0000b2" stroke-width="4.0" fill="#0000b2" />
</g>
<g>
<path d="M 189,165 L 219,165 L 219,195 L 189,195 Z" stroke="#000000" stroke-width="4.0" fill="none"/>
<circle cx="204.0" cy="180.0" r="9.0" stroke="#000000" stroke-width="4.0" fill="none" />
<text text-anchor="end" x="175.0" y="189.0" fill="#000000" style="font-size:24px"><tspan style="font-style:italic;">x (16-Bit)</tspan></text>
<circle cx="220.0" cy="180.0" r="2.0" stroke="#b20000" stroke-width="4.0" fill="#b20000" />
</g>
<g>
<path d="M 189,385 L 219,385 L 219,415 L 189,415 Z" stroke="#000000" stroke-width="4.0" fill="none"/>
<circle cx="204.0" cy="400.0" r="9.0" stroke="#000000" stroke-width="4.0" fill="none" />
<text text-anchor="end" x="175.0" y="409.0" fill="#000000" style="font-size:24px"><tspan style="font-style:italic;">y (16-bit)</tspan></text>
<circle cx="220.0" cy="400.0" r="2.0" stroke="#b20000" stroke-width="4.0" fill="#b20000" />
</g>
<g>
<path d="M 189,245 L 219,245 L 219,275 L 189,275 Z" stroke="#000000" stroke-width="4.0" fill="none"/>
<circle cx="204.0" cy="260.0" r="9.0" stroke="#000000" stroke-width="4.0" fill="none" />
<text text-anchor="end" x="175.0" y="269.0" fill="#000000" style="font-size:24px"><tspan style="font-style:italic;">zx</tspan></text>
<circle cx="220.0" cy="260.0" r="2.0" stroke="#b20000" stroke-width="4.0" fill="#b20000" />
</g>
<g>
<path d="M 189,285 L 219,285 L 219,315 L 189,315 Z" stroke="#000000" stroke-width="4.0" fill="none"/>
<circle cx="204.0" cy="300.0" r="9.0" stroke="#000000" stroke-width="4.0" fill="none" />
<text text-anchor="end" x="175.0" y="309.0" fill="#000000" style="font-size:24px"><tspan style="font-style:italic;">nx</tspan></text>
<circle cx="220.0" cy="300.0" r="2.0" stroke="#b20000" stroke-width="4.0" fill="#b20000" />
</g>
<g>
<path d="M 189,465 L 219,465 L 219,495 L 189,495 Z" stroke="#000000" stroke-width="4.0" fill="none"/>
<circle cx="204.0" cy="480.0" r="9.0" stroke="#000000" stroke-width="4.0" fill="none" />
<text text-anchor="end" x="175.0" y="489.0" fill="#000000" style="font-size:24px"><tspan style="font-style:italic;">zy</tspan></text>
<circle cx="220.0" cy="480.0" r="2.0" stroke="#b20000" stroke-width="4.0" fill="#b20000" />
</g>
<g>
<path d="M 189,505 L 219,505 L 219,535 L 189,535 Z" stroke="#000000" stroke-width="4.0" fill="none"/>
<circle cx="204.0" cy="520.0" r="9.0" stroke="#000000" stroke-width="4.0" fill="none" />
<text text-anchor="end" x="175.0" y="529.0" fill="#000000" style="font-size:24px"><tspan style="font-style:italic;">ny</tspan></text>
<circle cx="220.0" cy="520.0" r="2.0" stroke="#b20000" stroke-width="4.0" fill="#b20000" />
</g>
<g>
<path d="M 189,585 L 219,585 L 219,615 L 189,615 Z" stroke="#000000" stroke-width="4.0" fill="none"/>
<circle cx="204.0" cy="600.0" r="9.0" stroke="#000000" stroke-width="4.0" fill="none" />
<text text-anchor="end" x="175.0" y="609.0" fill="#000000" style="font-size:24px"><tspan style="font-style:italic;">f</tspan></text>
<circle cx="220.0" cy="600.0" r="2.0" stroke="#b20000" stroke-width="4.0" fill="#b20000" />
</g>
<g>
<path d="M 189,625 L 219,625 L 219,655 L 189,655 Z" stroke="#000000" stroke-width="4.0" fill="none"/>
<circle cx="204.0" cy="640.0" r="9.0" stroke="#000000" stroke-width="4.0" fill="none" />
<text text-anchor="end" x="175.0" y="649.0" fill="#000000" style="font-size:24px"><tspan style="font-style:italic;">no</tspan></text>
<circle cx="220.0" cy="640.0" r="2.0" stroke="#b20000" stroke-width="4.0" fill="#b20000" />
</g>
<g>
<circle cx="1296.0" cy="260.0" r="9.0" stroke="#000000" stroke-width="4.0" fill="none" />
<circle cx="1296.0" cy="260.0" r="15.0" stroke="#000000" stroke-width="4.0" fill="none" />
<text text-anchor="start" x="1325.0" y="269.0" fill="#000000" style="font-size:24px"><tspan style="font-style:italic;">OUT (16-bit)</tspan></text>
<circle cx="1280.0" cy="260.0" r="2.0" stroke="#0000b2" stroke-width="4.0" fill="#0000b2" />
</g>
<g>
<circle cx="1296.0" cy="560.0" r="9.0" stroke="#000000" stroke-width="4.0" fill="none" />
<circle cx="1296.0" cy="560.0" r="15.0" stroke="#000000" stroke-width="4.0" fill="none" />
<text text-anchor="start" x="1325.0" y="569.0" fill="#000000" style="font-size:24px"><tspan style="font-style:italic;">zr</tspan></text>
<circle cx="1280.0" cy="560.0" r="2.0" stroke="#0000b2" stroke-width="4.0" fill="#0000b2" />
</g>
<g>
<circle cx="1296.0" cy="420.0" r="9.0" stroke="#000000" stroke-width="4.0" fill="none" />
<circle cx="1296.0" cy="420.0" r="15.0" stroke="#000000" stroke-width="4.0" fill="none" />
<text text-anchor="start" x="1325.0" y="429.0" fill="#000000" style="font-size:24px"><tspan style="font-style:italic;">ng</tspan></text>
<circle cx="1280.0" cy="420.0" r="2.0" stroke="#0000b2" stroke-width="4.0" fill="#0000b2" />
</g>
<g>
<path d="M 301,176 L 339,185 L 339,215 L 301,224 Z" stroke="#000000" stroke-width="4.0" fill="none"/>
<text text-anchor="start" x="303.0" y="195.5" fill="#808080" style="font-size:18px">0</text>
<circle cx="320.0" cy="220.0" r="2.0" stroke="#0000b2" stroke-width="4.0" fill="#0000b2" />
<circle cx="300.0" cy="180.0" r="2.0" stroke="#0000b2" stroke-width="4.0" fill="#0000b2" />
<circle cx="300.0" cy="220.0" r="2.0" stroke="#0000b2" stroke-width="4.0" fill="#0000b2" />
<circle cx="340.0" cy="200.0" r="2.0" stroke="#b20000" stroke-width="4.0" fill="#b20000" />
</g>
<g>
<path d="M 301,396 L 339,405 L 339,435 L 301,444 Z" stroke="#000000" stroke-width="4.0" fill="none"/>
<text text-anchor="start" x="303.0" y="415.5" fill="#808080" style="font-size:18px">0</text>
<circle cx="320.0" cy="440.0" r="2.0" stroke="#0000b2" stroke-width="4.0" fill="#0000b2" />
<circle cx="300.0" cy="400.0" r="2.0" stroke="#0000b2" stroke-width="4.0" fill="#0000b2" />
<circle cx="300.0" cy="440.0" r="2.0" stroke="#0000b2" stroke-width="4.0" fill="#0000b2" />
<circle cx="340.0" cy="420.0" r="2.0" stroke="#b20000" stroke-width="4.0" fill="#b20000" />
</g>
<g>
<text text-anchor="end" x="277.0" y="229.0" fill="#000000" style="font-size:24px">0</text>
<circle cx="280.0" cy="220.0" r="2.0" stroke="#b20000" stroke-width="4.0" fill="#b20000" />
</g>
<g>
<text text-anchor="end" x="277.0" y="449.0" fill="#000000" style="font-size:24px">0</text>
<circle cx="280.0" cy="440.0" r="2.0" stroke="#b20000" stroke-width="4.0" fill="#b20000" />
</g>
<g>
<path d="M 501,176 L 539,185 L 539,215 L 501,224 Z" stroke="#000000" stroke-width="4.0" fill="none"/>
<text text-anchor="start" x="503.0" y="195.5" fill="#808080" style="font-size:18px">0</text>
<circle cx="520.0" cy="220.0" r="2.0" stroke="#0000b2" stroke-width="4.0" fill="#0000b2" />
<circle cx="500.0" cy="180.0" r="2.0" stroke="#0000b2" stroke-width="4.0" fill="#0000b2" />
<circle cx="500.0" cy="220.0" r="2.0" stroke="#0000b2" stroke-width="4.0" fill="#0000b2" />
<circle cx="540.0" cy="200.0" r="2.0" stroke="#b20000" stroke-width="4.0" fill="#b20000" />
</g>
<g>
<path d="M 501,396 L 539,405 L 539,435 L 501,444 Z" stroke="#000000" stroke-width="4.0" fill="none"/>
<text text-anchor="start" x="503.0" y="415.5" fill="#808080" style="font-size:18px">0</text>
<circle cx="520.0" cy="440.0" r="2.0" stroke="#0000b2" stroke-width="4.0" fill="#0000b2" />
<circle cx="500.0" cy="400.0" r="2.0" stroke="#0000b2" stroke-width="4.0" fill="#0000b2" />
<circle cx="500.0" cy="440.0" r="2.0" stroke="#0000b2" stroke-width="4.0" fill="#0000b2" />
<circle cx="540.0" cy="420.0" r="2.0" stroke="#b20000" stroke-width="4.0" fill="#b20000" />
</g>
<g>
<path d="M 401,208 L 419,220 L 401,232 Z" stroke="#000000" stroke-width="4.0" fill="none"/>
<circle cx="430.0" cy="220.0" r="9.0" stroke="#000000" stroke-width="4.0" fill="none" />
<circle cx="400.0" cy="220.0" r="2.0" stroke="#0000b2" stroke-width="4.0" fill="#0000b2" />
<circle cx="440.0" cy="220.0" r="2.0" stroke="#b20000" stroke-width="4.0" fill="#b20000" />
</g>
<g>
<path d="M 401,428 L 419,440 L 401,452 Z" stroke="#000000" stroke-width="4.0" fill="none"/>
<circle cx="430.0" cy="440.0" r="9.0" stroke="#000000" stroke-width="4.0" fill="none" />
<circle cx="400.0" cy="440.0" r="2.0" stroke="#0000b2" stroke-width="4.0" fill="#0000b2" />
<circle cx="440.0" cy="440.0" r="2.0" stroke="#b20000" stroke-width="4.0" fill="#b20000" />
</g>
<g>
<path d="M 730,290 L 681,290 L 681,230 L 730,230 C 740,230 760,240 759,260 C 759,280 740,290 730,290 Z" stroke="#000000" stroke-width="4.0" fill="none"/>
<circle cx="680.0" cy="240.0" r="2.0" stroke="#0000b2" stroke-width="4.0" fill="#0000b2" />
<circle cx="680.0" cy="280.0" r="2.0" stroke="#0000b2" stroke-width="4.0" fill="#0000b2" />
<circle cx="760.0" cy="260.0" r="2.0" stroke="#b20000" stroke-width="4.0" fill="#b20000" />
</g>
<g>
<path d="M 681,330 L 739,330 L 739,390 L 681,390 Z" stroke="#000000" stroke-width="4.0" fill="none"/>
<text text-anchor="start" x="684.0" y="346.75" fill="#808080" style="font-size:18px">a</text>
<text text-anchor="start" x="684.0" y="366.75" fill="#808080" style="font-size:18px">b</text>
<text text-anchor="start" x="684.0" y="386.75" fill="#808080" style="font-size:18px">c<tspan style="font-size:80%;baseline-shift:sub;">i</tspan></text>
<text text-anchor="end" x="736.0" y="346.75" fill="#808080" style="font-size:18px">s</text>
<text text-anchor="end" x="736.0" y="366.75" fill="#808080" style="font-size:18px">c<tspan style="font-size:80%;baseline-shift:sub;">o</tspan></text>
<text text-anchor="middle" x="710.0" y="407.5" fill="#808080" style="font-size:18px">Add</text>
<circle cx="680.0" cy="340.0" r="2.0" stroke="#0000b2" stroke-width="4.0" fill="#0000b2" />
<circle cx="680.0" cy="360.0" r="2.0" stroke="#0000b2" stroke-width="4.0" fill="#0000b2" />
<circle cx="680.0" cy="380.0" r="2.0" stroke="#0000b2" stroke-width="4.0" fill="#0000b2" />
<circle cx="740.0" cy="340.0" r="2.0" stroke="#b20000" stroke-width="4.0" fill="#b20000" />
<circle cx="740.0" cy="360.0" r="2.0" stroke="#b20000" stroke-width="4.0" fill="#b20000" />
</g>
<g>
<path d="M 841,276 L 879,285 L 879,315 L 841,324 Z" stroke="#000000" stroke-width="4.0" fill="none"/>
<text text-anchor="start" x="843.0" y="295.5" fill="#808080" style="font-size:18px">0</text>
<circle cx="860.0" cy="320.0" r="2.0" stroke="#0000b2" stroke-width="4.0" fill="#0000b2" />
<circle cx="840.0" cy="280.0" r="2.0" stroke="#0000b2" stroke-width="4.0" fill="#0000b2" />
<circle cx="840.0" cy="320.0" r="2.0" stroke="#0000b2" stroke-width="4.0" fill="#0000b2" />
<circle cx="880.0" cy="300.0" r="2.0" stroke="#b20000" stroke-width="4.0" fill="#b20000" />
</g>
<g>
<path d="M 1081,276 L 1119,285 L 1119,315 L 1081,324 Z" stroke="#000000" stroke-width="4.0" fill="none"/>
<text text-anchor="start" x="1083.0" y="295.5" fill="#808080" style="font-size:18px">0</text>
<circle cx="1100.0" cy="320.0" r="2.0" stroke="#0000b2" stroke-width="4.0" fill="#0000b2" />
<circle cx="1080.0" cy="280.0" r="2.0" stroke="#0000b2" stroke-width="4.0" fill="#0000b2" />
<circle cx="1080.0" cy="320.0" r="2.0" stroke="#0000b2" stroke-width="4.0" fill="#0000b2" />
<circle cx="1120.0" cy="300.0" r="2.0" stroke="#b20000" stroke-width="4.0" fill="#b20000" />
</g>
<g>
<path d="M 981,308 L 999,320 L 981,332 Z" stroke="#000000" stroke-width="4.0" fill="none"/>
<circle cx="1010.0" cy="320.0" r="9.0" stroke="#000000" stroke-width="4.0" fill="none" />
<circle cx="980.0" cy="320.0" r="2.0" stroke="#0000b2" stroke-width="4.0" fill="#0000b2" />
<circle cx="1020.0" cy="320.0" r="2.0" stroke="#b20000" stroke-width="4.0" fill="#b20000" />
</g>
<g>
<text text-anchor="end" x="1218.0" y="397.0" fill="#808080" style="font-size:12px">0-15</text>
<text text-anchor="start" x="1242.0" y="397.0" fill="#808080" style="font-size:12px">0-14</text>
<text text-anchor="start" x="1242.0" y="417.0" fill="#808080" style="font-size:12px">15</text>
<path d="M 1228,398 L 1232,398 L 1232,422 L 1228,422 Z" stroke="#000000" stroke-width="4.0" fill="#000000" fill-opacity="1.0"/>
<circle cx="1220.0" cy="400.0" r="2.0" stroke="#0000b2" stroke-width="4.0" fill="#0000b2" />
<circle cx="1240.0" cy="400.0" r="2.0" stroke="#b20000" stroke-width="4.0" fill="#b20000" />
<circle cx="1240.0" cy="420.0" r="2.0" stroke="#b20000" stroke-width="4.0" fill="#b20000" />
</g>
<g>
<text text-anchor="start" x="323.0" y="687.0" fill="#808080" style="font-size:12px" transform="rotate(-90,323.0,678.0)" >0-15</text>
<text text-anchor="end" x="323.0" y="711.0" fill="#808080" style="font-size:12px" transform="rotate(-90,323.0,702.0)" >0-3</text>
<text text-anchor="end" x="283.0" y="711.0" fill="#808080" style="font-size:12px" transform="rotate(-90,283.0,702.0)" >4-7</text>
<text text-anchor="end" x="243.0" y="711.0" fill="#808080" style="font-size:12px" transform="rotate(-90,243.0,702.0)" >8-11</text>
<text text-anchor="end" x="203.0" y="711.0" fill="#808080" style="font-size:12px" transform="rotate(-90,203.0,702.0)" >12-15</text>
<path d="M 322,688 L 322,692 L 198,692 L 198,688 Z" stroke="#000000" stroke-width="4.0" fill="#000000" fill-opacity="1.0"/>
<circle cx="320.0" cy="680.0" r="2.0" stroke="#0000b2" stroke-width="4.0" fill="#0000b2" />
<circle cx="320.0" cy="700.0" r="2.0" stroke="#b20000" stroke-width="4.0" fill="#b20000" />
<circle cx="280.0" cy="700.0" r="2.0" stroke="#b20000" stroke-width="4.0" fill="#b20000" />
<circle cx="240.0" cy="700.0" r="2.0" stroke="#b20000" stroke-width="4.0" fill="#b20000" />
<circle cx="200.0" cy="700.0" r="2.0" stroke="#b20000" stroke-width="4.0" fill="#b20000" />
</g>
<g>
<text text-anchor="end" x="358.0" y="737.0" fill="#808080" style="font-size:12px">0-3</text>
<text text-anchor="start" x="382.0" y="737.0" fill="#808080" style="font-size:12px">0</text>
<path d="M 368,738 L 372,738 L 372,742 L 368,742 Z" stroke="#000000" stroke-width="4.0" fill="#000000" fill-opacity="1.0"/>
<circle cx="360.0" cy="740.0" r="2.0" stroke="#0000b2" stroke-width="4.0" fill="#0000b2" />
<circle cx="380.0" cy="740.0" r="2.0" stroke="#b20000" stroke-width="4.0" fill="#b20000" />
</g>
<g>
<text text-anchor="end" x="358.0" y="837.0" fill="#808080" style="font-size:12px">0-3</text>
<text text-anchor="start" x="382.0" y="837.0" fill="#808080" style="font-size:12px">0</text>
<path d="M 368,838 L 372,838 L 372,842 L 368,842 Z" stroke="#000000" stroke-width="4.0" fill="#000000" fill-opacity="1.0"/>
<circle cx="360.0" cy="840.0" r="2.0" stroke="#0000b2" stroke-width="4.0" fill="#0000b2" />
<circle cx="380.0" cy="840.0" r="2.0" stroke="#b20000" stroke-width="4.0" fill="#b20000" />
</g>
<g>
<text text-anchor="end" x="358.0" y="937.0" fill="#808080" style="font-size:12px">0-3</text>
<text text-anchor="start" x="382.0" y="937.0" fill="#808080" style="font-size:12px">0</text>
<path d="M 368,938 L 372,938 L 372,942 L 368,942 Z" stroke="#000000" stroke-width="4.0" fill="#000000" fill-opacity="1.0"/>
<circle cx="360.0" cy="940.0" r="2.0" stroke="#0000b2" stroke-width="4.0" fill="#0000b2" />
<circle cx="380.0" cy="940.0" r="2.0" stroke="#b20000" stroke-width="4.0" fill="#b20000" />
</g>
<g>
<text text-anchor="end" x="358.0" y="1037.0" fill="#808080" style="font-size:12px">0-3</text>
<text text-anchor="start" x="382.0" y="1037.0" fill="#808080" style="font-size:12px">0</text>
<path d="M 368,1038 L 372,1038 L 372,1042 L 368,1042 Z" stroke="#000000" stroke-width="4.0" fill="#000000" fill-opacity="1.0"/>
<circle cx="360.0" cy="1040.0" r="2.0" stroke="#0000b2" stroke-width="4.0" fill="#0000b2" />
<circle cx="380.0" cy="1040.0" r="2.0" stroke="#b20000" stroke-width="4.0" fill="#b20000" />
</g>
<g>
<path d="M 490,850 L 460,850 C 470,834 470,806 460,790 L 480,790 C 510,790 530,800 540,820 C 530,840 510,850 490,850 Z" stroke="#000000" stroke-width="4.0" fill="none"/>
<circle cx="460.0" cy="800.0" r="2.0" stroke="#0000b2" stroke-width="4.0" fill="#0000b2" />
<circle cx="460.0" cy="840.0" r="2.0" stroke="#0000b2" stroke-width="4.0" fill="#0000b2" />
<circle cx="540.0" cy="820.0" r="2.0" stroke="#b20000" stroke-width="4.0" fill="#b20000" />
</g>
<g>
<path d="M 490,1050 L 460,1050 C 470,1034 470,1006 460,990 L 480,990 C 510,990 530,1000 540,1020 C 530,1040 510,1050 490,1050 Z" stroke="#000000" stroke-width="4.0" fill="none"/>
<circle cx="460.0" cy="1000.0" r="2.0" stroke="#0000b2" stroke-width="4.0" fill="#0000b2" />
<circle cx="460.0" cy="1040.0" r="2.0" stroke="#0000b2" stroke-width="4.0" fill="#0000b2" />
<circle cx="540.0" cy="1020.0" r="2.0" stroke="#b20000" stroke-width="4.0" fill="#b20000" />
</g>
<g>
<path d="M 690,950 L 660,950 C 670,934 670,906 660,890 L 680,890 C 710,890 730,900 740,920 C 730,940 710,950 690,950 Z" stroke="#000000" stroke-width="4.0" fill="none"/>
<circle cx="660.0" cy="900.0" r="2.0" stroke="#0000b2" stroke-width="4.0" fill="#0000b2" />
<circle cx="660.0" cy="940.0" r="2.0" stroke="#0000b2" stroke-width="4.0" fill="#0000b2" />
<circle cx="740.0" cy="920.0" r="2.0" stroke="#b20000" stroke-width="4.0" fill="#b20000" />
</g>
<g>
<path d="M 841,908 L 859,920 L 841,932 Z" stroke="#000000" stroke-width="4.0" fill="none"/>
<circle cx="870.0" cy="920.0" r="9.0" stroke="#000000" stroke-width="4.0" fill="none" />
<circle cx="840.0" cy="920.0" r="2.0" stroke="#0000b2" stroke-width="4.0" fill="#0000b2" />
<circle cx="880.0" cy="920.0" r="2.0" stroke="#b20000" stroke-width="4.0" fill="#b20000" />
</g>
<g>
<text text-anchor="end" x="637.0" y="389.0" fill="#000000" style="font-size:24px">0</text>
<circle cx="640.0" cy="380.0" r="2.0" stroke="#b20000" stroke-width="4.0" fill="#b20000" />
</g>
</g>
</svg>